<?xml version="1.0" encoding="UTF-8" standalone="no"?>
<!-- Created with Inkscape (http://www.inkscape.org/) -->

<svg
   xmlns:i="http://ns.adobe.com/AdobeIllustrator/10.0/"
   xmlns:dc="http://purl.org/dc/elements/1.1/"
   xmlns:cc="http://creativecommons.org/ns#"
   xmlns:rdf="http://www.w3.org/1999/02/22-rdf-syntax-ns#"
   xmlns:svg="http://www.w3.org/2000/svg"
   xmlns="http://www.w3.org/2000/svg"
   xmlns:xlink="http://www.w3.org/1999/xlink"
   xmlns:sodipodi="http://sodipodi.sourceforge.net/DTD/sodipodi-0.dtd"
   xmlns:inkscape="http://www.inkscape.org/namespaces/inkscape"
   width="1056"
   height="816"
   id="svg2985"
   version="1.1"
   inkscape:version="0.92.2 (5c3e80d, 2017-08-06)"
   sodipodi:docname="xubuntu_flyer_USletter_page_2.svg"
   inkscape:export-filename="/home/knome/xubuntu_flyer_draft.png"
   inkscape:export-xdpi="90.042519"
   inkscape:export-ydpi="90.042519"
   viewBox="0 0 990 765">
  <defs
     id="defs2987" />
  <sodipodi:namedview
     inkscape:document-units="mm"
     pagecolor="#ffffff"
     bordercolor="#666666"
     borderopacity="1.0"
     inkscape:pageopacity="1"
     inkscape:pageshadow="2"
     inkscape:zoom="0.43028864"
     inkscape:cx="-17.04702"
     inkscape:cy="-172.13572"
     inkscape:current-layer="layer1"
     id="namedview2989"
     showgrid="false"
     showguides="true"
     inkscape:guide-bbox="true"
     units="mm"
     inkscape:window-width="1367"
     inkscape:window-height="1139"
     inkscape:window-x="551"
     inkscape:window-y="0"
     inkscape:window-maximized="0"
     inkscape:snap-global="true"
     inkscape:object-nodes="true"
     showborder="true"
     fit-margin-top="10"
     fit-margin-left="10"
     fit-margin-right="10"
     fit-margin-bottom="10">
    <inkscape:grid
       type="xygrid"
       id="grid2994"
       empspacing="1"
       visible="true"
       enabled="true"
       snapvisiblegridlinesonly="true"
       units="mm"
       spacingx="350.7874"
       spacingy="744.09449"
       empcolor="#ff0000"
       empopacity="0.47058824"
       originx="35.430928"
       originy="817.04647" />
    <inkscape:grid
       type="xygrid"
       id="grid2996"
       empspacing="1"
       visible="true"
       enabled="true"
       snapvisiblegridlinesonly="true"
       color="#00ffff"
       opacity="0.1254902"
       dotted="false"
       units="mm"
       spacingx="981.49606"
       spacingy="673.22835"
       originx="70.863998"
       originy="852.47954"
       empcolor="#ffa000"
       empopacity="0.47058824" />
    <inkscape:grid
       type="xygrid"
       id="grid3055"
       empspacing="5"
       visible="true"
       enabled="true"
       snapvisiblegridlinesonly="true"
       units="mm"
       originx="70.863998"
       spacingx="12.57874"
       spacingy="13.464567"
       originy="852.47954"
       dotted="true"
       color="#00d5ff"
       opacity="0.1254902"
       empcolor="#0058ff"
       empopacity="0.25098039" />
  </sodipodi:namedview>
  <metadata
     id="metadata2991">
    <rdf:RDF>
      <cc:Work
         rdf:about="">
        <dc:format>image/svg+xml</dc:format>
        <dc:type
           rdf:resource="http://purl.org/dc/dcmitype/StillImage" />
        <dc:title />
      </cc:Work>
    </rdf:RDF>
  </metadata>
  <g
     inkscape:groupmode="layer"
     id="layer2"
     inkscape:label="USl 1/3s"
     style="display:none">
    <rect
       style="display:inline;fill:#e6e6e6;fill-opacity:1;stroke:none"
       id="rect3192"
       width="329.99881"
       height="765"
       x="0"
       y="0" />
    <rect
       y="0"
       x="660.00122"
       height="765"
       width="329.99881"
       id="rect3197"
       style="display:inline;fill:#e6e6e6;fill-opacity:1;stroke:none" />
    <rect
       y="0"
       x="330.00244"
       height="765"
       width="329.99881"
       id="rect4535"
       style="display:inline;fill:#f9f9f9;fill-opacity:1;stroke:none" />
  </g>
  <g
     inkscape:groupmode="layer"
     id="layer3"
     inkscape:label="Text frames"
     style="display:none"
     transform="translate(35.430928,-796.14086)">
    <path
       style="display:inline;fill:#ffd5d5;fill-opacity:1;stroke:none"
       d="m 325.64453,1224.6723 v 235.7678 c 110.91824,0 127.6089,0 267.85273,0 1.5e-4,-58.3468 -3.4e-4,-177.4211 -6.4e-4,-235.7678 z"
       id="rect4257"
       inkscape:connector-curvature="0"
       sodipodi:nodetypes="ccccc" />
    <rect
       style="display:inline;fill:#ffd5d5;fill-opacity:1;stroke:none"
       id="rect4245"
       width="267.85275"
       height="296.8862"
       x="325.64453"
       y="871.50623"
       rx="0"
       ry="0" />
    <rect
       ry="0"
       rx="0"
       y="871.50623"
       x="-4.69872"
       height="648.20178"
       width="267.85275"
       id="rect3817"
       style="display:inline;fill:#ffd5d5;fill-opacity:1;stroke:none" />
    <path
       style="display:inline;fill:#ffd5d5;fill-opacity:1;stroke:none"
       d="m 655.64332,871.50623 v 56.93716 h 267.85276 v -56.93716 z m 0,55.25067 v 79.5394 h 267.85276 v -79.5394 z"
       id="rect5623"
       inkscape:connector-curvature="0"
       sodipodi:nodetypes="cccccccccc" />
    <path
       style="fill:#ffd5d5;fill-opacity:1;stroke:none"
       d="m 325.64453,1479.1728 v 46.535 h 169.3125 c 3e-5,-12.6821 2e-5,-31.1085 0,-46.535 z"
       id="rect4033"
       inkscape:connector-curvature="0"
       sodipodi:nodetypes="ccccc" />
    <path
       sodipodi:nodetypes="ccccc"
       inkscape:connector-curvature="0"
       id="path5428"
       d="m 655.64332,1439.1728 v 86.535 h 205.3125 c 3e-5,-12.6821 2e-5,-71.1085 0,-86.535 z"
       style="display:inline;fill:#ffd5d5;fill-opacity:1;stroke:none" />
    <flowRoot
       xml:space="preserve"
       id="flowRoot3738"
       style="color:#000000;line-height:0.01%;text-align:center;letter-spacing:0px;word-spacing:0px;text-anchor:middle;display:inline;overflow:visible;visibility:visible;fill:#000000;fill-opacity:1;fill-rule:nonzero;stroke:none;stroke-width:1px;marker:none;enable-background:accumulate"
       transform="translate(-70.862319,781.17969)"><flowRegion
         id="flowRegion3740"><rect
           id="rect3742"
           width="340"
           height="232"
           x="1098"
           y="344.47949" /></flowRegion><flowPara
         id="flowPara3748"
         style="font-size:14px;line-height:1.25"> </flowPara></flowRoot>    <path
       sodipodi:nodetypes="ccccc"
       inkscape:connector-curvature="0"
       id="path4089"
       d="m 655.85303,1021.5698 v 63.7795 h 194.4044 c 0,-17.3816 0,-42.6364 0,-63.7795 z"
       style="display:inline;fill:#ffd5d5;fill-opacity:1;stroke:none" />
    <path
       sodipodi:nodetypes="cccccccccc"
       inkscape:connector-curvature="0"
       id="path3788"
       d="m 655.64332,1105.3493 v 142.8382 h 267.85276 v -142.8382 z m 0,138.6074 v 199.5402 h 267.85276 v -199.5402 z"
       style="display:inline;fill:#ffd5d5;fill-opacity:1;stroke:none" />
  </g>
  <g
     inkscape:label="CONTENT"
     inkscape:groupmode="layer"
     id="layer1"
     style="display:inline"
     transform="translate(35.430928,-796.14086)">
    <g
       inkscape:label="Layer 1"
       id="layer1-9"
       transform="translate(1090.5357,-395.80208)" />
    <flowRoot
       xml:space="preserve"
       style="color:#000000;line-height:0.01%;text-align:center;letter-spacing:0px;word-spacing:0px;text-anchor:middle;display:inline;overflow:visible;visibility:visible;fill:#000000;fill-opacity:1;fill-rule:nonzero;stroke:none;stroke-width:1px;marker:none;enable-background:accumulate"
       id="flowRoot3819"
       transform="translate(0,-9.3367473)"><flowRegion
         id="flowRegion3821"><use
           x="0"
           y="0"
           xlink:href="#rect3817"
           id="use3823"
           width="1052.3622"
           height="744.09448"
           transform="translate(0,3.902296)" /></flowRegion><flowPara
         style="font-style:normal;font-variant:normal;font-weight:normal;font-stretch:normal;font-size:13px;line-height:150%;font-family:'Open Sans';-inkscape-font-specification:'Open Sans';text-align:start;text-anchor:start;fill:#333333"
         id="flowPara3388">Xubuntu comes preinstalled with applications for the most common tasks performed by a desktop system.</flowPara><flowPara
         style="font-style:normal;font-variant:normal;font-weight:normal;font-stretch:normal;font-size:13px;line-height:150%;font-family:'Open Sans';-inkscape-font-specification:'Open Sans';text-align:start;text-anchor:start;fill:#333333"
         id="flowPara3396"> </flowPara><flowPara
         style="font-style:normal;font-variant:normal;font-weight:normal;font-stretch:normal;font-size:13px;line-height:150%;font-family:'Open Sans';-inkscape-font-specification:'Open Sans';text-align:start;text-anchor:start;fill:#333333"
         id="flowPara3398">The applications and settings shipped by default are carefully selected, resulting in a seamless and stable system. Some of the default applications include:</flowPara><flowPara
         style="font-style:normal;font-variant:normal;font-weight:normal;font-stretch:normal;font-size:13px;line-height:150%;font-family:'Open Sans';-inkscape-font-specification:'Open Sans';text-align:start;text-anchor:start;fill:#333333"
         id="flowPara3827"> </flowPara><flowPara
         style="font-style:normal;font-variant:normal;font-weight:normal;font-stretch:normal;font-size:13px;line-height:150%;font-family:'Open Sans';-inkscape-font-specification:'Open Sans';text-align:start;text-anchor:start;fill:#333333"
         id="flowPara3371"><flowSpan
   style="font-style:normal;font-variant:normal;font-weight:600;font-stretch:normal;font-size:13px;line-height:150%;font-family:'Open Sans';-inkscape-font-specification:'Open Sans Semi-Bold';text-align:start;writing-mode:lr-tb;text-anchor:start"
   id="flowSpan3839">Firefox® </flowSpan>for web browsing, <flowSpan
   style="font-style:normal;font-variant:normal;font-weight:600;font-stretch:normal;font-size:13px;line-height:150%;font-family:'Open Sans';-inkscape-font-specification:'Open Sans Semi-Bold';text-align:start;writing-mode:lr-tb;text-anchor:start"
   id="flowSpan3841">Thunderbird® </flowSpan>for email and <flowSpan
   style="font-style:normal;font-variant:normal;font-weight:600;font-stretch:normal;font-size:13px;line-height:150%;font-family:'Open Sans';-inkscape-font-specification:'Open Sans Semi-Bold';text-align:start;writing-mode:lr-tb;text-anchor:start"
   id="flowSpan3843">Pidgin </flowSpan>for instant messaging.</flowPara><flowPara
         style="font-style:normal;font-variant:normal;font-weight:normal;font-stretch:normal;font-size:13px;line-height:150%;font-family:'Open Sans';-inkscape-font-specification:'Open Sans';text-align:start;text-anchor:start;fill:#333333"
         id="flowPara3400"> <flowSpan
   style="font-style:normal;font-variant:normal;font-weight:600;font-stretch:normal;font-size:13px;line-height:150%;font-family:'Open Sans';-inkscape-font-specification:'Open Sans Semi-Bold';text-align:start;writing-mode:lr-tb;text-anchor:start"
   id="flowSpan3373" /></flowPara><flowPara
         style="font-style:normal;font-variant:normal;font-weight:normal;font-stretch:normal;font-size:13px;line-height:150%;font-family:'Open Sans';-inkscape-font-specification:'Open Sans';text-align:start;text-anchor:start;fill:#333333"
         id="flowPara3405"><flowSpan
   style="font-style:normal;font-variant:normal;font-weight:600;font-stretch:normal;font-size:13px;line-height:150%;font-family:'Open Sans';-inkscape-font-specification:'Open Sans Semi-Bold';text-align:start;writing-mode:lr-tb;text-anchor:start"
   id="flowSpan3407">LibreOffice Writer </flowSpan>for word processing and <flowSpan
   style="font-style:normal;font-variant:normal;font-weight:600;font-stretch:normal;font-family:'Open Sans';-inkscape-font-specification:'Open Sans Semi-Bold'"
   id="flowSpan3463">LibreOffice Calc</flowSpan> for spreadsheets. </flowPara><flowPara
         style="font-style:normal;font-variant:normal;font-weight:normal;font-stretch:normal;font-size:13px;line-height:150%;font-family:'Open Sans';-inkscape-font-specification:'Open Sans';text-align:start;text-anchor:start;fill:#333333"
         id="flowPara3635"> </flowPara><flowPara
         style="font-style:normal;font-variant:normal;font-weight:normal;font-stretch:normal;font-size:13px;line-height:150%;font-family:'Open Sans';-inkscape-font-specification:'Open Sans';text-align:start;text-anchor:start;fill:#333333"
         id="flowPara3637">Customizability is one of the strengths of Xubuntu. In addition to the deciding which applications to use, you can easily control many more aspects of the operating system and make it look and work as you like by using the <flowSpan
   style="font-style:normal;font-variant:normal;font-weight:600;font-stretch:normal;font-size:13px;line-height:150%;font-family:'Open Sans';-inkscape-font-specification:'Open Sans Semi-Bold';text-align:start;writing-mode:lr-tb;text-anchor:start"
   id="flowSpan3639">Settings Manager</flowSpan> shipped with Xubuntu. This flexibility also allows users to customize what services are loaded on startup and more so your session can be crafted to meet your requirements and make the most out of your hardware.</flowPara><flowPara
         style="font-style:normal;font-variant:normal;font-weight:normal;font-stretch:normal;font-size:13px;line-height:150%;font-family:'Open Sans';-inkscape-font-specification:'Open Sans';text-align:start;text-anchor:start;fill:#333333"
         id="flowPara3321"> </flowPara><flowPara
         style="font-style:normal;font-variant:normal;font-weight:normal;font-stretch:normal;font-size:13px;line-height:150%;font-family:'Open Sans';-inkscape-font-specification:'Open Sans';text-align:start;text-anchor:start;fill:#333333"
         id="flowPara3323">Finally, Xubuntu partners with a project to develop and maintain a clean, elegant theme that evolves with each release to give users a fresh, modern look that they have come to expect from today’s operating systems.</flowPara></flowRoot>    <flowRoot
       style="font-style:normal;font-variant:normal;font-weight:normal;font-stretch:normal;line-height:0.01%;font-family:'Fjalla One';-inkscape-font-specification:Sans;letter-spacing:0px;word-spacing:0px;fill:#0044aa;fill-opacity:1;stroke:none"
       id="flowRoot5680"
       xml:space="preserve"
       transform="translate(-40.029775,786.04684)"><flowRegion
         id="flowRegion5682"><rect
           style="fill:#0044aa;fill-opacity:1"
           y="35.189495"
           x="35.094307"
           height="98.495529"
           width="288.80728"
           id="rect5684" /></flowRegion><flowPara
         style="font-style:normal;font-variant:normal;font-weight:normal;font-stretch:normal;font-size:18px;line-height:170.00000477%;font-family:'Open Sans';-inkscape-font-specification:'Open Sans';text-align:start;text-anchor:start;fill:#0044aa;fill-opacity:1"
         id="flowPara5692">What can I do with Xubuntu?</flowPara></flowRoot>    <flowRoot
       style="font-style:normal;font-variant:normal;font-weight:normal;font-stretch:normal;line-height:0.01%;font-family:'Fjalla One';-inkscape-font-specification:Sans;letter-spacing:0px;word-spacing:0px;fill:#0044aa;fill-opacity:1;stroke:none"
       id="flowRoot3932"
       xml:space="preserve"
       transform="translate(288.78418,786.04684)"><flowRegion
         id="flowRegion3934"><rect
           style="fill:#0044aa;fill-opacity:1"
           y="35.189495"
           x="35.094307"
           height="98.495529"
           width="288.80728"
           id="rect3936" /></flowRegion><flowPara
         style="font-style:normal;font-variant:normal;font-weight:normal;font-stretch:normal;font-size:18px;line-height:170.00000477%;font-family:'Open Sans';-inkscape-font-specification:'Open Sans';text-align:start;text-anchor:start;fill:#0044aa;fill-opacity:1"
         id="flowPara3944">In the Ubuntu ecosystem</flowPara></flowRoot>    <flowRoot
       xml:space="preserve"
       style="color:#000000;line-height:0.01%;text-align:start;letter-spacing:0px;word-spacing:0px;text-anchor:start;display:inline;overflow:visible;visibility:visible;fill:#333333;fill-opacity:1;fill-rule:nonzero;stroke:none;stroke-width:1px;marker:none;enable-background:accumulate"
       id="flowRoot4259"
       transform="translate(-0.65795898,-10.159401)"><flowRegion
         id="flowRegion4261"><use
           x="0"
           y="0"
           xlink:href="#rect4257"
           id="use4263"
           width="1052.3622"
           height="744.09448"
           transform="translate(0.65795898,4.81379)" /></flowRegion><flowPara
         id="flowPara4265"
         style="font-style:normal;font-variant:normal;font-weight:normal;font-stretch:normal;font-size:13px;line-height:150%;font-family:'Open Sans';-inkscape-font-specification:'Open Sans'">Xfce stands for “XForms Common Environment” and been polished by seventeen years of development. Xfce uses the Xfwm window manager, and has spawned several of its own projects, including: Xfce terminal (terminal emulator), Xfburn (CD and DVD burning program), Orage (calendar), Parole (media player) and Thunar (file manager).</flowPara><flowPara
         style="font-style:normal;font-variant:normal;font-weight:normal;font-stretch:normal;font-size:13px;line-height:150%;font-family:'Open Sans';-inkscape-font-specification:'Open Sans'"
         id="flowPara4276"> </flowPara><flowPara
         style="font-style:normal;font-variant:normal;font-weight:normal;font-stretch:normal;font-size:13px;line-height:150%;font-family:'Open Sans';-inkscape-font-specification:'Open Sans'"
         id="flowPara4031">You can learn more about Xfce and their projects on the Xfce website at <flowSpan
   style="fill:#0044aa"
   id="flowSpan4019">xfce.org</flowSpan>.</flowPara></flowRoot>    <g
       style="display:inline"
       id="g4763"
       transform="matrix(0.13932373,0,0,0.13932373,497.90939,1425.345)">
      <path
         d="m 686.01129,438.94339 c -3.353,-2.77349 -29.64674,38.71236 -23.83256,43.01749 3.49603,2.61546 25.33033,-41.53853 23.83256,-43.01749 z"
         id="path13"
         style="fill:#000000;fill-opacity:1;fill-rule:evenodd;stroke:none"
         inkscape:export-filename="/home/knome/Stuff/xubuntu-mouse-draft-2.png"
         inkscape:export-xdpi="1026.8827"
         inkscape:export-ydpi="1026.8827"
         inkscape:connector-curvature="0" />
      <path
         d="m 655.78463,433.1306 c -1.65949,-1.92678 -10.46548,42.78039 -6.39371,44.75985 3.49601,2.61546 9.58499,-42.43418 6.39371,-44.75985 z"
         id="path18"
         style="fill:#000000;fill-opacity:1;fill-rule:evenodd;stroke:none"
         inkscape:export-filename="/home/knome/Stuff/xubuntu-mouse-draft-2.png"
         inkscape:export-xdpi="1026.8827"
         inkscape:export-ydpi="1026.8827"
         inkscape:connector-curvature="0" />
      <path
         style="fill:#000000;fill-opacity:1;fill-rule:evenodd;stroke:none"
         d="m 37.625,384.15853 c -3.443355,1.88538 27.552632,22.09367 85.46875,45.9375 57.91987,23.84382 137.92965,84.27698 131.65625,94.03125 -18.81237,26.49691 -29.90817,58.18792 -22.25,112.46875 1.38111,9.55483 -28.31634,26.14558 -26.15625,40.5625 1.80637,10.9698 33.19295,-10.87512 36.625,-6.5625 2.0999,7.74098 -16.79186,46.91895 -9.15625,49.71875 5.58462,1.6596 54.67873,-46.58659 57.53125,-45.78125 80.96219,24.47603 186.3041,5.99395 188.34375,5.21875 -0.19196,-0.42524 75.80178,35.72642 82.40625,31.40625 16.65983,-18.04093 -31.57326,-43.46801 -23.53125,-53.625 3.52614,-5.31744 58.74796,19.9643 61.46875,13.0625 3.95898,-11.94824 -25.64187,-37.03634 -30.09375,-44.46875 -3.87242,-6.85285 -4.71239,-17.9194 5.21875,-24.84375 9.9349,-6.92434 111.50996,-45.77552 107.25,-75.84375 -7.36468,-54.63458 -128.82052,-58.18257 -130.78125,-62.78125 -0.92191,-2.1601 5.3446,-78.12685 -30.09375,-64.09375 -21.81925,8.12105 -4.00496,56.52301 -2.59375,62.78125 1.30204,5.7615 -9.70773,5.15389 -11.78125,2.625 -4.6287,-5.65237 -19.9116,-56.10291 -37.9375,-47.09375 -25.28137,13.939 -1.48853,57.43256 -6.53125,58.84375 -9.36668,5.23466 -8.83606,18.02087 -16.34375,28.4375 -12.38092,17.74363 -105.021,-8.31111 -134.96875,-10.125 -21.92462,-1.29455 -42.8956,16.69428 -44.875,14.40625 -26.69638,-26.73399 -81.9285,-73.2869 -142.4375,-88.75 C 90.129469,410.48114 39.649614,383.81985 37.625,384.15853 Z m 529.46875,102.21875 c 5.78951,-10e-6 10.46875,5.34579 10.46875,11.9375 2e-5,6.59167 -4.67924,11.9375 -10.46875,11.9375 -5.78954,0 -10.5,-5.34583 -10.5,-11.9375 10e-6,-6.59171 4.71046,-11.9375 10.5,-11.9375 z m -23.53125,7.25 c 4.45553,19.23387 11.41036,25.36339 32.28125,24.75 -26.56462,24.35939 -42.70923,-17.37781 -32.28125,-24.75 z M 601,543.90853 c 1.08692,0.0412 1.92367,0.28894 2.46875,0.8125 10.46545,3.79336 -44.97502,23.75615 -45.34375,20.9375 -0.57648,-2.01216 32.36808,-22.14821 42.875,-21.75 z m 5.625,12.78125 c 0.57282,-0.0444 1.07711,0.032 1.5,0.25 9.87845,9.8145 -31.27532,31.57642 -30.8125,30.8125 -3.31635,-2.00393 20.72016,-30.39586 29.3125,-31.0625 z"
         id="path14"
         inkscape:connector-curvature="0" />
    </g>
    <flowRoot
       xml:space="preserve"
       style="color:#000000;line-height:0.01%;text-align:start;letter-spacing:0px;word-spacing:0px;text-anchor:start;display:inline;overflow:visible;visibility:visible;fill:#333333;fill-opacity:1;fill-rule:nonzero;stroke:none;stroke-width:1px;marker:none;enable-background:accumulate"
       id="flowRoot4247"
       transform="translate(-0.65795898,-8.0628597)"><flowRegion
         id="flowRegion4249"><use
           x="0"
           y="0"
           xlink:href="#rect4245"
           id="use4251"
           width="1052.3622"
           height="744.09448"
           transform="translate(0.65795898,2.707398)" /></flowRegion><flowPara
         style="font-style:normal;font-variant:normal;font-weight:normal;font-stretch:normal;font-size:13px;line-height:150%;font-family:'Open Sans';-inkscape-font-specification:'Open Sans'"
         id="flowPara3311">Xubuntu is an officially recognized flavor of Ubuntu, featuring the Xfce Desktop Environment instead of Unity, and with a different selection of default applications and configuration. Xubuntu benefits from the broad hardware support in Ubuntu – most devices should &quot;just work&quot; when plugging them in.</flowPara><flowPara
         style="font-style:normal;font-variant:normal;font-weight:normal;font-stretch:normal;font-size:13px;line-height:150%;font-family:'Open Sans';-inkscape-font-specification:'Open Sans'"
         id="flowPara3940"> </flowPara><flowPara
         style="font-style:normal;font-variant:normal;font-weight:normal;font-stretch:normal;font-size:13px;line-height:150%;font-family:'Open Sans';-inkscape-font-specification:'Open Sans'"
         id="flowPara3336">The Xubuntu desktop covers both ends of the usability spectrum: the default settings are carefully selected to produce unified and simple experience for the novice while allowing a full range of customizations for the advanced user.</flowPara></flowRoot>    <flowRoot
       xml:space="preserve"
       style="color:#000000;line-height:0.01%;text-align:center;letter-spacing:0px;word-spacing:0px;text-anchor:middle;display:inline;overflow:visible;visibility:visible;fill:#000000;fill-opacity:1;fill-rule:nonzero;stroke:none;stroke-width:1px;marker:none;enable-background:accumulate"
       id="flowRoot4055"
       transform="translate(0,4.7315993)"><flowRegion
         id="flowRegion4057"><use
           x="0"
           y="0"
           xlink:href="#rect4033"
           id="use4059"
           width="1052.3622"
           height="744.09448"
           transform="translate(0,-2.3566017)" /></flowRegion><flowPara
         id="flowPara4061"
         style="font-style:italic;font-variant:normal;font-weight:600;font-stretch:normal;font-size:10px;line-height:150%;font-family:'Open Sans';-inkscape-font-specification:'Open Sans Semi-Bold Italic';text-align:start;writing-mode:lr-tb;text-anchor:start;fill:#666666">Lightweight and fast!</flowPara><flowPara
         style="font-size:11px;line-height:150%;fill:#666666"
         id="flowPara4069"><flowSpan
           style="font-style:normal;font-variant:normal;font-weight:normal;font-stretch:normal;font-size:10px;line-height:150%;font-family:'Open Sans';-inkscape-font-specification:'Open Sans';text-align:start;text-anchor:start;fill:#666666"
           id="flowSpan4071">The Xfce mascot is a mouse, which also inspired the Xubuntu logo</flowSpan></flowPara></flowRoot>    <g
       style="display:inline"
       id="g4231"
       transform="matrix(0.22500045,0,0,0.22500045,859.71633,1017.18)">
      <path
         id="path4223"
         d="m 283.465,141.734 c 0,78.273 -63.457,141.73 -141.734,141.73 C 63.454,283.464 0,220.008 0,141.734 0,63.455 63.453,0 141.73,0 220.007,0 283.465,63.455 283.465,141.734 Z"
         inkscape:connector-curvature="0"
         style="fill:#dd4814" />
      <path
         id="path4225"
         d="m 45.356,122.812 c -10.453,0 -18.923,8.47 -18.923,18.923 0,10.449 8.47,18.92 18.923,18.92 10.449,0 18.92,-8.471 18.92,-18.92 0,-10.454 -8.47,-18.923 -18.92,-18.923 z m 135.107,86.002 c -9.051,5.225 -12.149,16.793 -6.926,25.84 5.226,9.051 16.793,12.151 25.844,6.926 9.048,-5.224 12.148,-16.792 6.923,-25.842 -5.224,-9.047 -16.793,-12.148 -25.841,-6.924 z M 86.458,141.732 c 0,-18.701 9.293,-35.219 23.504,-45.221 L 96.128,73.338 c -16.56,11.064 -28.878,27.978 -33.995,47.788 5.977,4.872 9.796,12.291 9.796,20.608 0,8.315 -3.819,15.734 -9.797,20.605 5.116,19.812 17.435,36.726 33.995,47.789 l 13.835,-23.175 c -14.211,-10 -23.504,-26.517 -23.504,-45.221 z m 55.275,-55.275 c 28.877,0 52.564,22.141 55.047,50.373 l 26.968,-0.394 c -1.327,-20.844 -10.432,-39.562 -24.425,-53.319 -7.194,2.718 -15.505,2.306 -22.688,-1.842 -7.192,-4.152 -11.705,-11.156 -12.941,-18.757 -6.992,-1.935 -14.351,-2.99 -21.96,-2.99 -13.086,0 -25.449,3.072 -36.431,8.512 l 13.146,23.56 c 7.077,-3.293 14.963,-5.143 23.284,-5.143 z m 0,110.551 c -8.322,0 -16.207,-1.85 -23.285,-5.143 L 105.3,215.427 c 10.983,5.438 23.347,8.511 36.433,8.511 7.609,0 14.968,-1.055 21.961,-2.99 1.236,-7.601 5.75,-14.605 12.943,-18.76 7.183,-4.146 15.494,-4.558 22.688,-1.839 13.992,-13.758 23.097,-32.476 24.422,-53.32 l -26.968,-0.394 c -2.481,28.236 -26.169,50.373 -55.046,50.373 z M 180.46,74.649 c 9.05,5.227 20.619,2.126 25.842,-6.921 5.226,-9.051 2.128,-20.619 -6.923,-25.845 -9.049,-5.224 -20.617,-2.124 -25.843,6.927 -5.224,9.047 -2.124,20.616 6.924,25.839 z"
         inkscape:connector-curvature="0"
         style="fill:#ffffff" />
    </g>
    <flowRoot
       xml:space="preserve"
       id="flowRoot4808"
       style="color:#000000;line-height:0.01%;text-align:center;letter-spacing:0px;word-spacing:0px;text-anchor:middle;display:inline;overflow:visible;visibility:visible;fill:#000000;fill-opacity:1;fill-rule:nonzero;stroke:none;stroke-width:1px;marker:none;enable-background:accumulate"><flowRegion
         id="flowRegion4810"><rect
           id="rect4812"
           width="319.61227"
           height="50.91169"
           x="656.19507"
           y="1193.8145" /></flowRegion><flowPara
         id="flowPara4814"
         style="font-size:14px;line-height:1.25"> </flowPara></flowRoot>    <flowRoot
       xml:space="preserve"
       style="color:#000000;line-height:0.01%;text-align:start;letter-spacing:0px;word-spacing:0px;text-anchor:start;display:inline;overflow:visible;visibility:visible;fill:#333333;fill-opacity:1;fill-rule:nonzero;stroke:none;stroke-width:1px;marker:none;enable-background:accumulate"
       id="flowRoot5163"
       transform="translate(0,-4.5468867)"><flowRegion
         id="flowRegion5165" /><flowPara
         style="font-style:normal;font-variant:normal;font-weight:normal;font-stretch:normal;font-size:11px;line-height:150%;font-family:'Open Sans';-inkscape-font-specification:'Open Sans';text-align:start;writing-mode:lr-tb;text-anchor:start"
         id="flowPara5169"> </flowPara></flowRoot>    <g
       style="overflow:visible"
       id="g5412"
       transform="matrix(0.58810618,0,0,0.58810618,872.30556,1461.9282)">
      <g
         i:rgbTrio="#4F008000FFFF"
         i:dimmedPercent="50"
         i:layer="yes"
         id="Layer_1">
        <g
           id="g5382">
          <path
             id="path5384"
             d="m 51.986,57.297 c -1.797,0.025 0.34,0.926 2.686,1.287 0.648,-0.506 1.236,-1.018 1.76,-1.516 -1.461,0.358 -2.948,0.366 -4.446,0.229"
             i:knockout="Off"
             inkscape:connector-curvature="0"
             style="fill:#d70751" />
          <path
             id="path5386"
             d="m 61.631,54.893 c 1.07,-1.477 1.85,-3.094 2.125,-4.766 -0.24,1.192 -0.887,2.221 -1.496,3.307 -3.359,2.115 -0.316,-1.256 -0.002,-2.537 -3.612,4.546 -0.496,2.726 -0.627,3.996"
             i:knockout="Off"
             inkscape:connector-curvature="0"
             style="fill:#d70751" />
          <path
             id="path5388"
             d="m 65.191,45.629 c 0.217,-3.236 -0.637,-2.213 -0.924,-0.978 0.335,0.174 0.6,2.281 0.924,0.978"
             i:knockout="Off"
             inkscape:connector-curvature="0"
             style="fill:#d70751" />
          <path
             id="path5390"
             d="m 45.172,1.399 c 0.959,0.172 2.072,0.304 1.916,0.533 1.049,-0.23 1.287,-0.442 -1.916,-0.533"
             i:knockout="Off"
             inkscape:connector-curvature="0"
             style="fill:#d70751" />
          <path
             id="path5392"
             d="M 47.088,1.932 46.41,2.072 47.041,2.016 47.088,1.932"
             i:knockout="Off"
             inkscape:connector-curvature="0"
             style="fill:#d70751" />
          <path
             id="path5394"
             d="m 76.992,46.856 c 0.107,2.906 -0.85,4.316 -1.713,6.812 l -1.553,0.776 c -1.271,2.468 0.123,1.567 -0.787,3.53 -1.984,1.764 -6.021,5.52 -7.313,5.863 -0.943,-0.021 0.639,-1.113 0.846,-1.541 -2.656,1.824 -2.131,2.738 -6.193,3.846 L 60.16,65.878 C 50.142,70.591 36.226,61.251 36.409,48.507 c -0.107,0.809 -0.304,0.607 -0.526,0.934 -0.517,-6.557 3.028,-13.143 9.007,-15.832 5.848,-2.895 12.704,-1.707 16.893,2.197 -2.301,-3.014 -6.881,-6.209 -12.309,-5.91 -5.317,0.084 -10.291,3.463 -11.951,7.131 -2.724,1.715 -3.04,6.611 -4.227,7.507 -1.597,11.737 3.004,16.808 10.787,22.773 1.225,0.826 0.345,0.951 0.511,1.58 -2.586,-1.211 -4.954,-3.039 -6.901,-5.277 1.033,1.512 2.148,2.982 3.589,4.137 -2.438,-0.826 -5.695,-5.908 -6.646,-6.115 4.203,7.525 17.052,13.197 23.78,10.383 -3.113,0.115 -7.068,0.064 -10.566,-1.229 -1.469,-0.756 -3.467,-2.322 -3.11,-2.615 9.182,3.43 18.667,2.598 26.612,-3.771 2.021,-1.574 4.229,-4.252 4.867,-4.289 -0.961,1.445 0.164,0.695 -0.574,1.971 2.014,-3.248 -0.875,-1.322 2.082,-5.609 l 1.092,1.504 c -0.406,-2.696 3.348,-5.97 2.967,-10.234 0.861,-1.304 0.961,1.403 0.047,4.403 1.268,-3.328 0.334,-3.863 0.66,-6.609 0.352,0.923 0.814,1.904 1.051,2.878 -0.826,-3.216 0.848,-5.416 1.262,-7.285 -0.408,-0.181 -1.275,1.422 -1.473,-2.377 0.029,-1.65 0.459,-0.865 0.625,-1.271 -0.324,-0.186 -1.174,-1.451 -1.691,-3.877 0.375,-0.57 1.002,1.478 1.512,1.562 -0.328,-1.929 -0.893,-3.4 -0.916,-4.88 -1.49,-3.114 -0.527,0.415 -1.736,-1.337 -1.586,-4.947 1.316,-1.148 1.512,-3.396 2.404,3.483 3.775,8.881 4.404,11.117 -0.48,-2.726 -1.256,-5.367 -2.203,-7.922 0.73,0.307 -1.176,-5.609 0.949,-1.691 C 83.519,18.706 76.074,10.902 69.225,7.24 70.063,8.007 71.121,8.97 70.741,9.121 67.335,7.093 67.934,6.935 67.446,6.078 64.671,4.949 64.489,6.169 62.651,6.08 57.421,3.306 56.413,3.601 51.6,1.863 l 0.219,1.023 c -3.465,-1.154 -4.037,0.438 -7.782,0.004 -0.228,-0.178 1.2,-0.644 2.375,-0.815 -3.35,0.442 -3.193,-0.66 -6.471,0.122 0.808,-0.567 1.662,-0.942 2.524,-1.424 -2.732,0.166 -6.522,1.59 -5.352,0.295 -4.456,1.988 -12.37,4.779 -16.811,8.943 l -0.14,-0.933 c -2.035,2.443 -8.874,7.296 -9.419,10.46 l -0.544,0.127 c -1.059,1.793 -1.744,3.825 -2.584,5.67 -1.385,2.36 -2.03,0.908 -1.833,1.278 -2.724,5.523 -4.077,10.164 -5.246,13.97 0.833,1.245 0.02,7.495 0.335,12.497 -1.368,24.704 17.338,48.69 37.785,54.228 2.997,1.072 7.454,1.031 11.245,1.141 -4.473,-1.279 -5.051,-0.678 -9.408,-2.197 -3.143,-1.48 -3.832,-3.17 -6.058,-5.102 l 0.881,1.557 c -4.366,-1.545 -2.539,-1.912 -6.091,-3.037 l 0.941,-1.229 C 28.751,98.334 26.418,96.056 25.78,94.795 l -1.548,0.061 c -1.86,-2.295 -2.851,-3.949 -2.779,-5.23 l -0.5,0.891 c -0.567,-0.973 -6.843,-8.607 -3.587,-6.83 -0.605,-0.553 -1.409,-0.9 -2.281,-2.484 l 0.663,-0.758 c -1.567,-2.016 -2.884,-4.6 -2.784,-5.461 0.836,1.129 1.416,1.34 1.99,1.533 -3.957,-9.818 -4.179,-0.541 -7.176,-9.994 L 8.412,66.472 C 7.926,65.74 7.631,64.945 7.24,64.165 l 0.276,-2.75 C 4.667,58.121 6.719,47.409 7.13,41.534 7.415,39.145 9.508,36.602 11.1,32.614 l -0.97,-0.167 c 1.854,-3.234 10.586,-12.988 14.63,-12.486 1.959,-2.461 -0.389,-0.009 -0.772,-0.629 4.303,-4.453 5.656,-3.146 8.56,-3.947 3.132,-1.859 -2.688,0.725 -1.203,-0.709 5.414,-1.383 3.837,-3.144 10.9,-3.846 0.745,0.424 -1.729,0.655 -2.35,1.205 4.511,-2.207 14.275,-1.705 20.617,1.225 7.359,3.439 15.627,13.605 15.953,23.17 l 0.371,0.1 c -0.188,3.802 0.582,8.199 -0.752,12.238 l 0.908,-1.912"
             i:knockout="Off"
             inkscape:connector-curvature="0"
             style="fill:#d70751" />
          <path
             id="path5396"
             d="m 32.372,59.764 -0.252,1.26 c 1.181,1.604 2.118,3.342 3.626,4.596 -1.085,-2.118 -1.891,-2.993 -3.374,-5.856"
             i:knockout="Off"
             inkscape:connector-curvature="0"
             style="fill:#d70751" />
          <path
             id="path5398"
             d="m 35.164,59.654 c -0.625,-0.691 -0.995,-1.523 -1.409,-2.352 0.396,1.457 1.207,2.709 1.962,3.982 l -0.553,-1.63"
             i:knockout="Off"
             inkscape:connector-curvature="0"
             style="fill:#d70751" />
          <path
             id="path5400"
             d="m 84.568,48.916 -0.264,0.662 c -0.484,3.438 -1.529,6.84 -3.131,9.994 1.77,-3.328 2.915,-6.968 3.395,-10.656"
             i:knockout="Off"
             inkscape:connector-curvature="0"
             style="fill:#d70751" />
          <path
             id="path5402"
             d="M 45.527,0.537 C 46.742,0.092 48.514,0.293 49.803,0 48.123,0.141 46.451,0.225 44.8,0.438 l 0.727,0.099"
             i:knockout="Off"
             inkscape:connector-curvature="0"
             style="fill:#d70751" />
          <path
             id="path5404"
             d="m 2.872,23.219 c 0.28,2.592 -1.95,3.598 0.494,1.889 1.31,-2.951 -0.512,-0.815 -0.494,-1.889"
             i:knockout="Off"
             inkscape:connector-curvature="0"
             style="fill:#d70751" />
          <path
             id="path5406"
             d="M 0,35.215 C 0.563,33.487 0.665,32.449 0.88,31.449 -0.676,33.438 0.164,33.862 0,35.215"
             i:knockout="Off"
             inkscape:connector-curvature="0"
             style="fill:#d70751" />
        </g>
      </g>
    </g>
    <flowRoot
       xml:space="preserve"
       style="color:#000000;line-height:0.01%;text-align:center;letter-spacing:0px;word-spacing:0px;text-anchor:middle;display:inline;overflow:visible;visibility:visible;fill:#000000;fill-opacity:1;fill-rule:nonzero;stroke:none;stroke-width:1px;marker:none;enable-background:accumulate"
       id="flowRoot5479"
       transform="translate(0,12.356599)"><flowRegion
         id="flowRegion5481"><use
           x="0"
           y="0"
           xlink:href="#path5428"
           id="use5483"
           width="1125.312"
           height="1597.4795" /></flowRegion><flowPara
         style="font-style:italic;font-variant:normal;font-weight:600;font-stretch:normal;font-size:10px;line-height:150%;font-family:'Open Sans';-inkscape-font-specification:'Open Sans Semi-Bold Italic';text-align:start;writing-mode:lr-tb;text-anchor:start;fill:#666666"
         id="flowPara5485">Based on Debian and Linux</flowPara><flowPara
         id="flowPara5487"
         style="font-style:normal;font-variant:normal;font-weight:normal;font-stretch:normal;font-size:10px;line-height:150%;font-family:'Open Sans';-inkscape-font-specification:'Open Sans';text-align:start;writing-mode:lr-tb;text-anchor:start;fill:#666666">Ubuntu is based on Debian, a free operating system started in 1993.</flowPara><flowPara
         style="font-style:normal;font-variant:normal;font-weight:normal;font-stretch:normal;font-size:10px;line-height:150%;font-family:'Open Sans';-inkscape-font-specification:'Open Sans';text-align:start;writing-mode:lr-tb;text-anchor:start;fill:#666666"
         id="flowPara5489">In addition to Debian, the Linux kernel is an important part of the operating system.</flowPara></flowRoot>    <flowRoot
       transform="translate(290.37427,1139.2129)"
       xml:space="preserve"
       id="flowRoot3664"
       style="font-style:normal;font-variant:normal;font-weight:normal;font-stretch:normal;line-height:0.01%;font-family:'Fjalla One';-inkscape-font-specification:Sans;letter-spacing:0px;word-spacing:0px;fill:#0044aa;fill-opacity:1;stroke:none"><flowRegion
         id="flowRegion3666"><rect
           id="rect3668"
           width="288.80728"
           height="98.495529"
           x="35.094307"
           y="35.189495"
           style="fill:#0044aa;fill-opacity:1" /></flowRegion><flowPara
         id="flowPara3670"
         style="font-style:normal;font-variant:normal;font-weight:normal;font-stretch:normal;font-size:18px;line-height:170.00000477%;font-family:'Open Sans';-inkscape-font-specification:'Open Sans';text-align:start;text-anchor:start;fill:#0044aa;fill-opacity:1">What is Xfce?</flowPara></flowRoot>    <flowRoot
       transform="translate(619.61793,786.14352)"
       xml:space="preserve"
       id="flowRoot3672"
       style="font-style:normal;font-variant:normal;font-weight:normal;font-stretch:normal;line-height:0.01%;font-family:'Fjalla One';-inkscape-font-specification:Sans;letter-spacing:0px;word-spacing:0px;fill:#0044aa;fill-opacity:1;stroke:none"><flowRegion
         id="flowRegion3674"><rect
           id="rect3676"
           width="288.80728"
           height="98.495529"
           x="35.094307"
           y="35.189495"
           style="fill:#0044aa;fill-opacity:1" /></flowRegion><flowPara
         id="flowPara3678"
         style="font-style:normal;font-variant:normal;font-weight:normal;font-stretch:normal;font-size:18px;line-height:170.00000477%;font-family:'Open Sans';-inkscape-font-specification:'Open Sans';text-align:start;text-anchor:start;fill:#0044aa;fill-opacity:1">Software in Xubuntu</flowPara></flowRoot>    <flowRoot
       xml:space="preserve"
       style="color:#000000;line-height:0.01%;text-align:start;letter-spacing:0px;word-spacing:0px;text-anchor:start;display:inline;overflow:visible;visibility:visible;fill:#333333;fill-opacity:1;fill-rule:nonzero;stroke:none;stroke-width:1px;marker:none;enable-background:accumulate"
       id="flowRoot3684"
       transform="translate(0,-5.358171)"><flowRegion
         id="flowRegion3686"><use
           x="0"
           y="0"
           xlink:href="#rect5623"
           id="use3688"
           width="1125.312"
           height="1597.4795" /></flowRegion><flowPara
         id="flowPara3702"
         style="font-style:normal;font-variant:normal;font-weight:normal;font-stretch:normal;font-size:13px;line-height:150%;font-family:'Open Sans';-inkscape-font-specification:'Open Sans'">Like Ubuntu, Xubuntu uses the <flowSpan
   id="flowSpan3692"
   style="font-style:normal;font-variant:normal;font-weight:600;font-stretch:normal;font-size:13px;line-height:150%;font-family:'Open Sans';-inkscape-font-specification:'Open Sans Semi-Bold';text-align:start;writing-mode:lr-tb;text-anchor:start">Software Center</flowSpan> to search for and install new software, such as new games, productivity tools, themes, fonts and other accessories to customize your experience. Software updates are automatically handled by the <flowSpan
   id="flowSpan3694"
   style="font-style:normal;font-variant:normal;font-weight:600;font-stretch:normal;font-size:13px;line-height:150%;font-family:'Open Sans';-inkscape-font-specification:'Open Sans Semi-Bold';text-align:start;writing-mode:lr-tb;text-anchor:start">Software Updater</flowSpan>.</flowPara></flowRoot>    <flowRoot
       xml:space="preserve"
       style="color:#000000;line-height:0.01%;text-align:center;letter-spacing:0px;word-spacing:0px;text-anchor:middle;display:inline;overflow:visible;visibility:visible;fill:#000000;fill-opacity:1;fill-rule:nonzero;stroke:none;stroke-width:1px;marker:none;enable-background:accumulate"
       id="flowRoot3778"
       transform="translate(0,-8.3555807)"><flowRegion
         id="flowRegion3780"><use
           x="0"
           y="0"
           xlink:href="#path4089"
           id="use3782"
           width="1125.312"
           height="1597.4795"
           transform="translate(0,4.168061)" /></flowRegion><flowPara
         style="font-style:italic;font-variant:normal;font-weight:600;font-stretch:normal;font-size:10px;line-height:150%;font-family:'Open Sans';-inkscape-font-specification:'Open Sans Semi-Bold Italic';text-align:start;writing-mode:lr-tb;text-anchor:start;fill:#666666"
         id="flowPara3784">What does the word Ubuntu mean?</flowPara><flowPara
         id="flowPara3786"
         style="font-style:normal;font-variant:normal;font-weight:normal;font-stretch:normal;font-size:10px;line-height:150%;font-family:'Open Sans';-inkscape-font-specification:'Open Sans';text-align:start;text-anchor:start;fill:#666666">The word Ubuntu is an ancient African term that can be roughly translated to &quot;humanity towards others&quot;</flowPara></flowRoot>    <flowRoot
       xml:space="preserve"
       style="color:#000000;line-height:0.01%;text-align:start;letter-spacing:0px;word-spacing:0px;text-anchor:start;display:inline;overflow:visible;visibility:visible;fill:#333333;fill-opacity:1;fill-rule:nonzero;stroke:none;stroke-width:1px;marker:none;enable-background:accumulate"
       id="flowRoot3802"
       transform="translate(0,-10.696321)"><flowRegion
         id="flowRegion3804"><use
           x="0"
           y="0"
           xlink:href="#path3788"
           id="use3806"
           width="1125.312"
           height="1597.4795"
           transform="translate(0,5.352571)" /></flowRegion><flowPara
         id="flowPara3808"
         style="font-style:normal;font-variant:normal;font-weight:normal;font-stretch:normal;font-size:13px;line-height:150%;font-family:'Open Sans';-inkscape-font-specification:'Open Sans'">Programs from other desktop environments can be used with Xubuntu, it is designed to be flexible, and to allow the user choices. However, bringing in programs from GNOME or KDE introduces dependencies, which can slow down the Xubuntu experience, which has become known for being stable and speedy.</flowPara><flowPara
         style="font-style:normal;font-variant:normal;font-weight:normal;font-stretch:normal;font-size:13px;line-height:150%;font-family:'Open Sans';-inkscape-font-specification:'Open Sans'"
         id="flowPara3828"> </flowPara><flowPara
         style="font-style:normal;font-variant:normal;font-weight:normal;font-stretch:normal;font-size:13px;line-height:150%;font-family:'Open Sans';-inkscape-font-specification:'Open Sans'"
         id="flowPara3826">While a lot of software is available from the Software Center, sometimes you might want to venture outside the usual. In this case, you can add more software sources, called repositories. Some software also offers downloadable “.deb” files for Ubuntu on their websites, these can almost always be used for Xubuntu too!</flowPara></flowRoot>  </g>
</svg>
