<?xml version="1.0" encoding="UTF-8" standalone="no"?>
<!-- Created with Inkscape (http://www.inkscape.org/) -->

<svg
   xmlns:i="http://ns.adobe.com/AdobeIllustrator/10.0/"
   xmlns:osb="http://www.openswatchbook.org/uri/2009/osb"
   xmlns:dc="http://purl.org/dc/elements/1.1/"
   xmlns:cc="http://creativecommons.org/ns#"
   xmlns:rdf="http://www.w3.org/1999/02/22-rdf-syntax-ns#"
   xmlns:svg="http://www.w3.org/2000/svg"
   xmlns="http://www.w3.org/2000/svg"
   xmlns:xlink="http://www.w3.org/1999/xlink"
   xmlns:sodipodi="http://sodipodi.sourceforge.net/DTD/sodipodi-0.dtd"
   xmlns:inkscape="http://www.inkscape.org/namespaces/inkscape"
   width="1052.3622"
   height="744.09448"
   id="svg2985"
   version="1.1"
   inkscape:version="0.91 r"
   sodipodi:docname="xubuntu_flyer_A4_page_2_new.svg"
   inkscape:export-filename="/home/knome/xubuntu_flyer_draft.png"
   inkscape:export-xdpi="90.042519"
   inkscape:export-ydpi="90.042519">
  <defs
     id="defs2987">
    <linearGradient
       id="Titles_and_links"
       osb:paint="solid"
       gradientTransform="matrix(1.449879,0,0,1.1346417,2634.4534,467.95749)">
      <stop
         style="stop-color:#0044aa;stop-opacity:1;"
         offset="0"
         id="stop4485" />
    </linearGradient>
    <linearGradient
       gradientTransform="translate(40.865086,-11.027847)"
       id="Paragraph_text"
       osb:paint="solid">
      <stop
         style="stop-color:#333333;stop-opacity:1;"
         offset="0"
         id="stop4491" />
    </linearGradient>
    <linearGradient
       gradientTransform="matrix(1.2000429,0,0,1.2423032,184.78281,-560.0594)"
       id="Asides"
       osb:paint="solid">
      <stop
         style="stop-color:#666666;stop-opacity:1;"
         offset="0"
         id="stop4559" />
    </linearGradient>
  </defs>
  <sodipodi:namedview
     inkscape:document-units="mm"
     pagecolor="#ffffff"
     bordercolor="#666666"
     borderopacity="1.0"
     inkscape:pageopacity="1"
     inkscape:pageshadow="2"
     inkscape:zoom="0.86057727"
     inkscape:cx="564.21373"
     inkscape:cy="255.29045"
     inkscape:current-layer="layer4"
     id="namedview2989"
     showgrid="false"
     showguides="false"
     inkscape:guide-bbox="true"
     units="mm"
     inkscape:window-width="1367"
     inkscape:window-height="1139"
     inkscape:window-x="1991"
     inkscape:window-y="0"
     inkscape:window-maximized="0"
     inkscape:snap-global="true"
     inkscape:object-nodes="true"
     showborder="true"
     fit-margin-top="10"
     fit-margin-left="10"
     fit-margin-right="10"
     fit-margin-bottom="10">
    <inkscape:grid
       type="xygrid"
       id="grid2994"
       empspacing="1"
       visible="true"
       enabled="true"
       snapvisiblegridlinesonly="true"
       units="mm"
       spacingx="99mm"
       spacingy="210mm"
       empcolor="#ff0000"
       empopacity="0.47058824"
       originx="9.9993952mm"
       originy="230.58867mm" />
    <inkscape:grid
       type="xygrid"
       id="grid2996"
       empspacing="1"
       visible="true"
       enabled="true"
       snapvisiblegridlinesonly="true"
       color="#00ffff"
       opacity="0.1254902"
       dotted="false"
       units="mm"
       spacingx="277mm"
       spacingy="190mm"
       originx="19.999395mm"
       originy="240.58867mm"
       empcolor="#ffa000"
       empopacity="0.47058824" />
    <inkscape:grid
       type="xygrid"
       id="grid3055"
       empspacing="5"
       visible="true"
       enabled="true"
       snapvisiblegridlinesonly="true"
       units="mm"
       originx="19.999395mm"
       spacingx="3.55mm"
       spacingy="3.8mm"
       originy="240.58867mm"
       dotted="true"
       color="#00d5ff"
       opacity="0.1254902"
       empcolor="#0058ff"
       empopacity="0.25098039" />
  </sodipodi:namedview>
  <metadata
     id="metadata2991">
    <rdf:RDF>
      <cc:Work
         rdf:about="">
        <dc:format>image/svg+xml</dc:format>
        <dc:type
           rdf:resource="http://purl.org/dc/dcmitype/StillImage" />
        <dc:title />
      </cc:Work>
    </rdf:RDF>
  </metadata>
  <g
     inkscape:groupmode="layer"
     id="layer2"
     inkscape:label="Text frames"
     style="display:none"
     sodipodi:insensitive="true">
    <rect
       style="display:inline;opacity:0.1;fill:url(#Titles_and_links);fill-opacity:1;stroke:none;stroke-width:4;stroke-linecap:round;stroke-linejoin:round;stroke-miterlimit:4;stroke-dasharray:none;stroke-dashoffset:0;stroke-opacity:1"
       id="rect3452"
       width="294.09448"
       height="687.40155"
       x="28.346457"
       y="28.346443" />
    <rect
       style="display:inline;opacity:0.1;fill:url(#Titles_and_links);fill-opacity:1;stroke:none;stroke-width:4;stroke-linecap:round;stroke-linejoin:round;stroke-miterlimit:4;stroke-dasharray:none;stroke-dashoffset:0;stroke-opacity:1"
       id="rect3471"
       width="294.09448"
       height="496.06299"
       x="729.92126"
       y="28.346455" />
    <rect
       style="display:inline;opacity:0.1;fill:url(#Titles_and_links);fill-opacity:1;stroke:none;stroke-width:4;stroke-linecap:round;stroke-linejoin:round;stroke-miterlimit:4;stroke-dasharray:none;stroke-dashoffset:0;stroke-opacity:1"
       id="rect3452-6"
       width="294.09448"
       height="616.53546"
       x="382.01181"
       y="28.346453" />
    <rect
       y="644.88184"
       x="382.01181"
       height="70.866142"
       width="187.79527"
       id="rect3632"
       style="display:inline;opacity:0.05;fill:url(#Titles_and_links);fill-opacity:1;stroke:none;stroke-width:4;stroke-linecap:round;stroke-linejoin:round;stroke-miterlimit:4;stroke-dasharray:none;stroke-dashoffset:0;stroke-opacity:1" />
    <rect
       style="opacity:0.05;fill:url(#Titles_and_links);fill-opacity:1;stroke:none;stroke-width:4;stroke-linecap:round;stroke-linejoin:round;stroke-miterlimit:4;stroke-dasharray:none;stroke-dashoffset:0;stroke-opacity:1"
       id="rect4451"
       width="216.14174"
       height="92.125984"
       x="807.87402"
       y="524.40942" />
    <rect
       y="616.5354"
       x="729.92126"
       height="99.212601"
       width="216.14174"
       id="rect4471"
       style="opacity:0.05;fill:url(#Titles_and_links);fill-opacity:1;stroke:none;stroke-width:4;stroke-linecap:round;stroke-linejoin:round;stroke-miterlimit:4;stroke-dasharray:none;stroke-dashoffset:0;stroke-opacity:1" />
  </g>
  <g
     inkscape:groupmode="layer"
     id="layer4"
     inkscape:label="Content"
     style="display:inline">
    <flowRoot
       xml:space="preserve"
       style="color:#000000;font-style:normal;font-variant:normal;font-weight:normal;font-stretch:normal;font-size:12px;line-height:125%;font-family:'Open Sans';-inkscape-font-specification:'Open Sans';text-align:start;letter-spacing:0px;word-spacing:0px;writing-mode:lr-tb;text-anchor:start;display:inline;overflow:visible;visibility:visible;fill:url(#Paragraph_text);fill-opacity:1;fill-rule:nonzero;stroke:none;stroke-width:1px;stroke-linecap:butt;stroke-linejoin:miter;stroke-opacity:1;marker:none;enable-background:accumulate"
       id="flowRoot3585"
       transform="translate(7.5340271e-4,-7.5149452)"><flowRegion
         id="flowRegion3587"><use
           x="0"
           y="0"
           xlink:href="#rect3452"
           id="use3589"
           width="100%"
           height="100%" /></flowRegion><flowPara
         id="flowPara3591"
         style="font-size:18px;line-height:150%;fill:url(#Titles_and_links)">What can I do with Xubuntu?</flowPara><flowPara
         style="font-size:13px;line-height:75%;fill:url(#Paragraph_text)"
         id="flowPara3597" /><flowPara
         style="font-size:13px;line-height:150%;fill:url(#Paragraph_text)"
         id="flowPara3599">Xubuntu comes preinstalled with applications for the most common tasks performed by a desktop system.</flowPara><flowPara
         style="font-size:13px;line-height:150%;fill:url(#Paragraph_text)"
         id="flowPara3601" /><flowPara
         style="font-size:13px;line-height:150%;fill:url(#Paragraph_text)"
         id="flowPara3603">The applications and settings shipped by default are carefully selected, resulting in a seamless and stable system. Some of the default applications include:</flowPara><flowPara
         style="font-size:13px;line-height:150%;fill:url(#Paragraph_text)"
         id="flowPara3605" /><flowPara
         style="font-size:13px;line-height:150%;fill:url(#Paragraph_text)"
         id="flowPara3607">Firefox® for web browsing, Thunderbird® for email and Pidgin for instant messaging.</flowPara><flowPara
         style="font-size:13px;line-height:150%;fill:url(#Paragraph_text)"
         id="flowPara3609" /><flowPara
         style="font-size:13px;line-height:150%;fill:url(#Paragraph_text)"
         id="flowPara3611">LibreOffice Writer for word processing and  LibreOffice Calc for spreadsheets.</flowPara><flowPara
         style="font-size:13px;line-height:150%;fill:url(#Paragraph_text)"
         id="flowPara3613" /><flowPara
         style="font-size:13px;line-height:150%;fill:url(#Paragraph_text)"
         id="flowPara3615">Customizability is one of the strengths of Xubuntu. In addition to the deciding which applications to use, you can easily control many more aspects of the operating system and make it look and work as you like by using the Settings Manager shipped with Xubuntu. This flexibility also allows users to customize what services are loaded on startup and more so your session can be crafted to meet your requirements and make the most out of your hardware.</flowPara><flowPara
         style="font-size:13px;line-height:150%;fill:url(#Paragraph_text)"
         id="flowPara3617" /><flowPara
         style="font-size:13px;line-height:150%;fill:url(#Paragraph_text)"
         id="flowPara3619">Finally, Xubuntu partners with a project to develop and maintain a clean, elegant theme that evolves with each release to give users a fresh, modern look that they have come to expect from today’s operating systems.</flowPara><flowPara
         style="font-size:13px;line-height:150%;fill:url(#Paragraph_text)"
         id="flowPara3593" /><flowPara
         style="font-size:13px;line-height:150%;fill:url(#Paragraph_text)"
         id="flowPara3595" /></flowRoot>    <flowRoot
       xml:space="preserve"
       style="color:#000000;font-style:normal;font-variant:normal;font-weight:normal;font-stretch:normal;font-size:12px;line-height:125%;font-family:'Open Sans';-inkscape-font-specification:'Open Sans';text-align:start;letter-spacing:0px;word-spacing:0px;writing-mode:lr-tb;text-anchor:start;display:inline;overflow:visible;visibility:visible;fill:url(#Paragraph_text);fill-opacity:1;fill-rule:nonzero;stroke:none;stroke-width:1px;stroke-linecap:butt;stroke-linejoin:miter;stroke-opacity:1;marker:none;enable-background:accumulate"
       id="flowRoot3585-8"
       transform="translate(672.29501,-97.991504)"><flowRegion
         id="flowRegion3587-3"><use
           x="0"
           y="0"
           xlink:href="#rect3452-6"
           id="use3589-7"
           width="100%"
           height="100%"
           transform="translate(-672.34675,90.475891)" /></flowRegion><flowPara
         id="flowPara3591-2"
         style="font-size:18px;line-height:150%;fill:url(#Titles_and_links)">In the Ubuntu ecosystem</flowPara><flowPara
         style="font-size:13px;line-height:75%;fill:url(#Paragraph_text)"
         id="flowPara3597-3" /><flowPara
         style="font-size:13px;line-height:150%;fill:url(#Paragraph_text)"
         id="flowPara3595-3">Xubuntu is an officially recognized flavor of Ubuntu, featuring the Xfce Desktop Environment instead of Unity, and with a different selection of default applications and configuration. Xubuntu benefits from the broad hardware support in Ubuntu – most devices should “just work” when plugging them in.</flowPara><flowPara
         style="font-size:13px;line-height:150%;fill:url(#Paragraph_text)"
         id="flowPara4116" /><flowPara
         style="font-size:13px;line-height:150%;fill:url(#Paragraph_text)"
         id="flowPara4118">The Xubuntu desktop covers both ends of the usability spectrum: the default settings are carefully selected to produce unified and simple experience for the novice while allowing a full range of customizations for the advanced user.</flowPara><flowPara
         style="font-size:13px;line-height:150%;fill:url(#Paragraph_text)"
         id="flowPara4120" /><flowPara
         style="font-size:18px;line-height:150%;fill:url(#Titles_and_links)"
         id="flowPara4122">What is Xfce?</flowPara><flowPara
         style="font-size:13px;line-height:75%;fill:url(#Paragraph_text)"
         id="flowPara4124" /><flowPara
         style="font-size:13px;line-height:150%;fill:url(#Paragraph_text)"
         id="flowPara4126">Xfce stands for “XForms Common Environment” and been polished by seventeen years of development. Xfce uses the Xfwm window manager, and has spawned several of its own projects, including: Xfce terminal (terminal emulator), Xfburn (CD and DVD burning program), Orage (calendar), Parole (media player) and Thunar (file manager).</flowPara><flowPara
         style="font-size:13px;line-height:150%;fill:url(#Paragraph_text)"
         id="flowPara4128" /><flowPara
         style="font-size:13px;line-height:150%;fill:url(#Paragraph_text)"
         id="flowPara4130">You can learn more about Xfce and their projects on the Xfce website at <flowSpan
   style="fill:url(#Titles_and_links)"
   id="flowSpan4136">xfce.org</flowSpan>.</flowPara></flowRoot>    <flowRoot
       xml:space="preserve"
       style="color:#000000;font-size:14px;line-height:125%;text-align:center;letter-spacing:0px;word-spacing:0px;text-anchor:middle;display:inline;overflow:visible;visibility:visible;fill:url(#Asides);fill-opacity:1;fill-rule:nonzero;stroke:none;stroke-width:1px;marker:none;enable-background:accumulate"
       id="flowRoot4527"
       transform="translate(-28.427643,-601.19078)"><flowRegion
         id="flowRegion4529"><use
           x="0"
           y="0"
           xlink:href="#rect3632"
           id="use4531"
           width="100%"
           height="100%"
           transform="translate(28.386719,608.86291)" /></flowRegion><flowPara
         style="font-style:italic;font-variant:normal;font-weight:600;font-stretch:normal;font-size:10.5px;line-height:150%;font-family:'Open Sans';-inkscape-font-specification:'Open Sans Semi-Bold Italic';text-align:start;text-anchor:start;fill:url(#Asides)"
         id="flowPara4570">Lightweight and fast!</flowPara><flowPara
         style="font-style:normal;font-variant:normal;font-weight:normal;font-stretch:normal;font-size:10.5px;line-height:150%;font-family:'Open Sans';-inkscape-font-specification:'Open Sans';text-align:start;text-anchor:start;fill:url(#Asides)"
         id="flowPara4221">The Xfce mascot is a mouse, which also inspired the Xubuntu logo.</flowPara></flowRoot>    <g
       transform="matrix(0.13932373,0,0,0.13932373,580.51838,603.35916)"
       id="g4213"
       style="display:inline">
      <path
         inkscape:connector-curvature="0"
         inkscape:export-ydpi="1026.8827"
         inkscape:export-xdpi="1026.8827"
         inkscape:export-filename="/home/knome/Stuff/xubuntu-mouse-draft-2.png"
         style="fill:#000000;fill-opacity:1;fill-rule:evenodd;stroke:none"
         id="path4215"
         d="m 686.01129,438.94339 c -3.353,-2.77349 -29.64674,38.71236 -23.83256,43.01749 3.49603,2.61546 25.33033,-41.53853 23.83256,-43.01749 z" />
      <path
         inkscape:connector-curvature="0"
         inkscape:export-ydpi="1026.8827"
         inkscape:export-xdpi="1026.8827"
         inkscape:export-filename="/home/knome/Stuff/xubuntu-mouse-draft-2.png"
         style="fill:#000000;fill-opacity:1;fill-rule:evenodd;stroke:none"
         id="path4217"
         d="m 655.78463,433.1306 c -1.65949,-1.92678 -10.46548,42.78039 -6.39371,44.75985 3.49601,2.61546 9.58499,-42.43418 6.39371,-44.75985 z" />
      <path
         inkscape:connector-curvature="0"
         id="path4219"
         d="m 37.625,384.15853 c -3.443355,1.88538 27.552632,22.09367 85.46875,45.9375 57.91987,23.84382 137.92965,84.27698 131.65625,94.03125 -18.81237,26.49691 -29.90817,58.18792 -22.25,112.46875 1.38111,9.55483 -28.31634,26.14558 -26.15625,40.5625 1.80637,10.9698 33.19295,-10.87512 36.625,-6.5625 2.0999,7.74098 -16.79186,46.91895 -9.15625,49.71875 5.58462,1.6596 54.67873,-46.58659 57.53125,-45.78125 80.96219,24.47603 186.3041,5.99395 188.34375,5.21875 -0.19196,-0.42524 75.80178,35.72642 82.40625,31.40625 16.65983,-18.04093 -31.57326,-43.46801 -23.53125,-53.625 3.52614,-5.31744 58.74796,19.9643 61.46875,13.0625 3.95898,-11.94824 -25.64187,-37.03634 -30.09375,-44.46875 -3.87242,-6.85285 -4.71239,-17.9194 5.21875,-24.84375 9.9349,-6.92434 111.50996,-45.77552 107.25,-75.84375 -7.36468,-54.63458 -128.82052,-58.18257 -130.78125,-62.78125 -0.92191,-2.1601 5.3446,-78.12685 -30.09375,-64.09375 -21.81925,8.12105 -4.00496,56.52301 -2.59375,62.78125 1.30204,5.7615 -9.70773,5.15389 -11.78125,2.625 -4.6287,-5.65237 -19.9116,-56.10291 -37.9375,-47.09375 -25.28137,13.939 -1.48853,57.43256 -6.53125,58.84375 -9.36668,5.23466 -8.83606,18.02087 -16.34375,28.4375 -12.38092,17.74363 -105.021,-8.31111 -134.96875,-10.125 -21.92462,-1.29455 -42.8956,16.69428 -44.875,14.40625 -26.69638,-26.73399 -81.9285,-73.2869 -142.4375,-88.75 C 90.129469,410.48114 39.649614,383.81985 37.625,384.15853 Z m 529.46875,102.21875 c 5.78951,-10e-6 10.46875,5.34579 10.46875,11.9375 2e-5,6.59167 -4.67924,11.9375 -10.46875,11.9375 -5.78954,0 -10.5,-5.34583 -10.5,-11.9375 10e-6,-6.59171 4.71046,-11.9375 10.5,-11.9375 z m -23.53125,7.25 c 4.45553,19.23387 11.41036,25.36339 32.28125,24.75 -26.56462,24.35939 -42.70923,-17.37781 -32.28125,-24.75 z M 601,543.90853 c 1.08692,0.0412 1.92367,0.28894 2.46875,0.8125 10.46545,3.79336 -44.97502,23.75615 -45.34375,20.9375 -0.57648,-2.01216 32.36808,-22.14821 42.875,-21.75 z m 5.625,12.78125 c 0.57282,-0.0444 1.07711,0.032 1.5,0.25 9.87845,9.8145 -31.27532,31.57642 -30.8125,30.8125 -3.31635,-2.00393 20.72016,-30.39586 29.3125,-31.0625 z"
         style="fill:#000000;fill-opacity:1;fill-rule:evenodd;stroke:none" />
    </g>
    <g
       style="display:inline;overflow:visible"
       id="g5412"
       transform="matrix(0.58810618,0,0,0.58810618,972.82524,628.53542)">
      <g
         i:rgbTrio="#4F008000FFFF"
         i:dimmedPercent="50"
         i:layer="yes"
         id="Layer_1">
        <g
           id="g5382">
          <path
             id="path5384"
             d="m 51.986,57.297 c -1.797,0.025 0.34,0.926 2.686,1.287 0.648,-0.506 1.236,-1.018 1.76,-1.516 -1.461,0.358 -2.948,0.366 -4.446,0.229"
             i:knockout="Off"
             inkscape:connector-curvature="0"
             style="fill:#d70751" />
          <path
             id="path5386"
             d="m 61.631,54.893 c 1.07,-1.477 1.85,-3.094 2.125,-4.766 -0.24,1.192 -0.887,2.221 -1.496,3.307 -3.359,2.115 -0.316,-1.256 -0.002,-2.537 -3.612,4.546 -0.496,2.726 -0.627,3.996"
             i:knockout="Off"
             inkscape:connector-curvature="0"
             style="fill:#d70751" />
          <path
             id="path5388"
             d="m 65.191,45.629 c 0.217,-3.236 -0.637,-2.213 -0.924,-0.978 0.335,0.174 0.6,2.281 0.924,0.978"
             i:knockout="Off"
             inkscape:connector-curvature="0"
             style="fill:#d70751" />
          <path
             id="path5390"
             d="m 45.172,1.399 c 0.959,0.172 2.072,0.304 1.916,0.533 1.049,-0.23 1.287,-0.442 -1.916,-0.533"
             i:knockout="Off"
             inkscape:connector-curvature="0"
             style="fill:#d70751" />
          <path
             id="path5392"
             d="M 47.088,1.932 46.41,2.072 47.041,2.016 47.088,1.932"
             i:knockout="Off"
             inkscape:connector-curvature="0"
             style="fill:#d70751" />
          <path
             id="path5394"
             d="m 76.992,46.856 c 0.107,2.906 -0.85,4.316 -1.713,6.812 l -1.553,0.776 c -1.271,2.468 0.123,1.567 -0.787,3.53 -1.984,1.764 -6.021,5.52 -7.313,5.863 -0.943,-0.021 0.639,-1.113 0.846,-1.541 -2.656,1.824 -2.131,2.738 -6.193,3.846 L 60.16,65.878 C 50.142,70.591 36.226,61.251 36.409,48.507 c -0.107,0.809 -0.304,0.607 -0.526,0.934 -0.517,-6.557 3.028,-13.143 9.007,-15.832 5.848,-2.895 12.704,-1.707 16.893,2.197 -2.301,-3.014 -6.881,-6.209 -12.309,-5.91 -5.317,0.084 -10.291,3.463 -11.951,7.131 -2.724,1.715 -3.04,6.611 -4.227,7.507 -1.597,11.737 3.004,16.808 10.787,22.773 1.225,0.826 0.345,0.951 0.511,1.58 -2.586,-1.211 -4.954,-3.039 -6.901,-5.277 1.033,1.512 2.148,2.982 3.589,4.137 -2.438,-0.826 -5.695,-5.908 -6.646,-6.115 4.203,7.525 17.052,13.197 23.78,10.383 -3.113,0.115 -7.068,0.064 -10.566,-1.229 -1.469,-0.756 -3.467,-2.322 -3.11,-2.615 9.182,3.43 18.667,2.598 26.612,-3.771 2.021,-1.574 4.229,-4.252 4.867,-4.289 -0.961,1.445 0.164,0.695 -0.574,1.971 2.014,-3.248 -0.875,-1.322 2.082,-5.609 l 1.092,1.504 c -0.406,-2.696 3.348,-5.97 2.967,-10.234 0.861,-1.304 0.961,1.403 0.047,4.403 1.268,-3.328 0.334,-3.863 0.66,-6.609 0.352,0.923 0.814,1.904 1.051,2.878 -0.826,-3.216 0.848,-5.416 1.262,-7.285 -0.408,-0.181 -1.275,1.422 -1.473,-2.377 0.029,-1.65 0.459,-0.865 0.625,-1.271 -0.324,-0.186 -1.174,-1.451 -1.691,-3.877 0.375,-0.57 1.002,1.478 1.512,1.562 -0.328,-1.929 -0.893,-3.4 -0.916,-4.88 -1.49,-3.114 -0.527,0.415 -1.736,-1.337 -1.586,-4.947 1.316,-1.148 1.512,-3.396 2.404,3.483 3.775,8.881 4.404,11.117 -0.48,-2.726 -1.256,-5.367 -2.203,-7.922 0.73,0.307 -1.176,-5.609 0.949,-1.691 C 83.519,18.706 76.074,10.902 69.225,7.24 70.063,8.007 71.121,8.97 70.741,9.121 67.335,7.093 67.934,6.935 67.446,6.078 64.671,4.949 64.489,6.169 62.651,6.08 57.421,3.306 56.413,3.601 51.6,1.863 l 0.219,1.023 c -3.465,-1.154 -4.037,0.438 -7.782,0.004 -0.228,-0.178 1.2,-0.644 2.375,-0.815 -3.35,0.442 -3.193,-0.66 -6.471,0.122 0.808,-0.567 1.662,-0.942 2.524,-1.424 -2.732,0.166 -6.522,1.59 -5.352,0.295 -4.456,1.988 -12.37,4.779 -16.811,8.943 l -0.14,-0.933 c -2.035,2.443 -8.874,7.296 -9.419,10.46 l -0.544,0.127 c -1.059,1.793 -1.744,3.825 -2.584,5.67 -1.385,2.36 -2.03,0.908 -1.833,1.278 -2.724,5.523 -4.077,10.164 -5.246,13.97 0.833,1.245 0.02,7.495 0.335,12.497 -1.368,24.704 17.338,48.69 37.785,54.228 2.997,1.072 7.454,1.031 11.245,1.141 -4.473,-1.279 -5.051,-0.678 -9.408,-2.197 -3.143,-1.48 -3.832,-3.17 -6.058,-5.102 l 0.881,1.557 c -4.366,-1.545 -2.539,-1.912 -6.091,-3.037 l 0.941,-1.229 C 28.751,98.334 26.418,96.056 25.78,94.795 l -1.548,0.061 c -1.86,-2.295 -2.851,-3.949 -2.779,-5.23 l -0.5,0.891 c -0.567,-0.973 -6.843,-8.607 -3.587,-6.83 -0.605,-0.553 -1.409,-0.9 -2.281,-2.484 l 0.663,-0.758 c -1.567,-2.016 -2.884,-4.6 -2.784,-5.461 0.836,1.129 1.416,1.34 1.99,1.533 -3.957,-9.818 -4.179,-0.541 -7.176,-9.994 L 8.412,66.472 C 7.926,65.74 7.631,64.945 7.24,64.165 l 0.276,-2.75 C 4.667,58.121 6.719,47.409 7.13,41.534 7.415,39.145 9.508,36.602 11.1,32.614 l -0.97,-0.167 c 1.854,-3.234 10.586,-12.988 14.63,-12.486 1.959,-2.461 -0.389,-0.009 -0.772,-0.629 4.303,-4.453 5.656,-3.146 8.56,-3.947 3.132,-1.859 -2.688,0.725 -1.203,-0.709 5.414,-1.383 3.837,-3.144 10.9,-3.846 0.745,0.424 -1.729,0.655 -2.35,1.205 4.511,-2.207 14.275,-1.705 20.617,1.225 7.359,3.439 15.627,13.605 15.953,23.17 l 0.371,0.1 c -0.188,3.802 0.582,8.199 -0.752,12.238 l 0.908,-1.912"
             i:knockout="Off"
             inkscape:connector-curvature="0"
             style="fill:#d70751" />
          <path
             id="path5396"
             d="m 32.372,59.764 -0.252,1.26 c 1.181,1.604 2.118,3.342 3.626,4.596 -1.085,-2.118 -1.891,-2.993 -3.374,-5.856"
             i:knockout="Off"
             inkscape:connector-curvature="0"
             style="fill:#d70751" />
          <path
             id="path5398"
             d="m 35.164,59.654 c -0.625,-0.691 -0.995,-1.523 -1.409,-2.352 0.396,1.457 1.207,2.709 1.962,3.982 l -0.553,-1.63"
             i:knockout="Off"
             inkscape:connector-curvature="0"
             style="fill:#d70751" />
          <path
             id="path5400"
             d="m 84.568,48.916 -0.264,0.662 c -0.484,3.438 -1.529,6.84 -3.131,9.994 1.77,-3.328 2.915,-6.968 3.395,-10.656"
             i:knockout="Off"
             inkscape:connector-curvature="0"
             style="fill:#d70751" />
          <path
             id="path5402"
             d="M 45.527,0.537 C 46.742,0.092 48.514,0.293 49.803,0 48.123,0.141 46.451,0.225 44.8,0.438 l 0.727,0.099"
             i:knockout="Off"
             inkscape:connector-curvature="0"
             style="fill:#d70751" />
          <path
             id="path5404"
             d="m 2.872,23.219 c 0.28,2.592 -1.95,3.598 0.494,1.889 1.31,-2.951 -0.512,-0.815 -0.494,-1.889"
             i:knockout="Off"
             inkscape:connector-curvature="0"
             style="fill:#d70751" />
          <path
             id="path5406"
             d="M 0,35.215 C 0.563,33.487 0.665,32.449 0.88,31.449 -0.676,33.438 0.164,33.862 0,35.215"
             i:knockout="Off"
             inkscape:connector-curvature="0"
             style="fill:#d70751" />
        </g>
      </g>
    </g>
    <g
       style="display:inline"
       id="g4231"
       transform="matrix(0.22500045,0,0,0.22500045,729.92127,536.40942)">
      <path
         id="path4223"
         d="m 283.465,141.734 c 0,78.273 -63.457,141.73 -141.734,141.73 C 63.454,283.464 0,220.008 0,141.734 0,63.455 63.453,0 141.73,0 220.007,0 283.465,63.455 283.465,141.734 Z"
         inkscape:connector-curvature="0"
         style="fill:#dd4814" />
      <path
         id="path4225"
         d="m 45.356,122.812 c -10.453,0 -18.923,8.47 -18.923,18.923 0,10.449 8.47,18.92 18.923,18.92 10.449,0 18.92,-8.471 18.92,-18.92 0,-10.454 -8.47,-18.923 -18.92,-18.923 z m 135.107,86.002 c -9.051,5.225 -12.149,16.793 -6.926,25.84 5.226,9.051 16.793,12.151 25.844,6.926 9.048,-5.224 12.148,-16.792 6.923,-25.842 -5.224,-9.047 -16.793,-12.148 -25.841,-6.924 z M 86.458,141.732 c 0,-18.701 9.293,-35.219 23.504,-45.221 L 96.128,73.338 c -16.56,11.064 -28.878,27.978 -33.995,47.788 5.977,4.872 9.796,12.291 9.796,20.608 0,8.315 -3.819,15.734 -9.797,20.605 5.116,19.812 17.435,36.726 33.995,47.789 l 13.835,-23.175 c -14.211,-10 -23.504,-26.517 -23.504,-45.221 z m 55.275,-55.275 c 28.877,0 52.564,22.141 55.047,50.373 l 26.968,-0.394 c -1.327,-20.844 -10.432,-39.562 -24.425,-53.319 -7.194,2.718 -15.505,2.306 -22.688,-1.842 -7.192,-4.152 -11.705,-11.156 -12.941,-18.757 -6.992,-1.935 -14.351,-2.99 -21.96,-2.99 -13.086,0 -25.449,3.072 -36.431,8.512 l 13.146,23.56 c 7.077,-3.293 14.963,-5.143 23.284,-5.143 z m 0,110.551 c -8.322,0 -16.207,-1.85 -23.285,-5.143 L 105.3,215.427 c 10.983,5.438 23.347,8.511 36.433,8.511 7.609,0 14.968,-1.055 21.961,-2.99 1.236,-7.601 5.75,-14.605 12.943,-18.76 7.183,-4.146 15.494,-4.558 22.688,-1.839 13.992,-13.758 23.097,-32.476 24.422,-53.32 l -26.968,-0.394 c -2.481,28.236 -26.169,50.373 -55.046,50.373 z M 180.46,74.649 c 9.05,5.227 20.619,2.126 25.842,-6.921 5.226,-9.051 2.128,-20.619 -6.923,-25.845 -9.049,-5.224 -20.617,-2.124 -25.843,6.927 -5.224,9.047 -2.124,20.616 6.924,25.839 z"
         inkscape:connector-curvature="0"
         style="fill:#ffffff" />
    </g>
    <flowRoot
       xml:space="preserve"
       id="flowRoot4270"
       style="color:#000000;font-style:normal;font-variant:normal;font-weight:normal;font-stretch:normal;font-size:12px;line-height:125%;font-family:'Open Sans';-inkscape-font-specification:'Open Sans';text-align:start;letter-spacing:0px;word-spacing:0px;writing-mode:lr-tb;text-anchor:start;display:inline;overflow:visible;visibility:visible;fill:#000000;fill-opacity:1;fill-rule:nonzero;stroke:none;stroke-width:1px;stroke-linecap:butt;stroke-linejoin:miter;stroke-opacity:1;marker:none;enable-background:accumulate"
       transform="translate(-6.1035156e-4,-7.418254)"><flowRegion
         id="flowRegion4272"><rect
           id="rect4274"
           width="294.09448"
           height="496.06296"
           x="729.92126"
           y="28.346455" /></flowRegion><flowPara
         id="flowPara4276"
         style="font-size:18px;line-height:150%;fill:url(#Titles_and_links)">Software in Xubuntu</flowPara><flowPara
         id="flowPara4282"
         style="font-size:13px;line-height:75%;fill:url(#Paragraph_text)" /><flowPara
         id="flowPara4284"
         style="font-size:13px;line-height:150%;fill:url(#Paragraph_text)">Like Ubuntu, Xubuntu uses the Software Center to search for and install new software, such as new games, productivity tools, themes, fonts and other accessories to customize your experience. Software updates are automatically handled by the Software Updater.</flowPara><flowPara
         id="flowPara4290"
         style="font-size:13px;line-height:150%;fill:url(#Paragraph_text)" /><flowPara
         id="flowPara4292"
         style="font-size:13px;line-height:150%;fill:url(#Paragraph_text)">Programs from other desktop environments can be used with Xubuntu, it is designed to be flexible, and to allow the user choices. However, bringing in programs from GNOME or KDE introduces dependencies, which can slow down the Xubuntu experience, which has become known for being stable and speedy.</flowPara><flowPara
         id="flowPara4294"
         style="font-size:13px;line-height:150%;fill:url(#Paragraph_text)" /><flowPara
         style="font-size:13px;line-height:150%;fill:url(#Paragraph_text)"
         id="flowPara4387">While a lot of software is available from the Software Center, sometimes you might want to venture outside the usual. In this case, you can add more software sources, called repositories. Some software also offers downloadable “.deb” files for Ubuntu on their websites, these can almost always be used for Xubuntu too!</flowPara></flowRoot>    <flowRoot
       xml:space="preserve"
       id="flowRoot4453"
       style="color:#000000;font-style:normal;font-variant:normal;font-weight:normal;font-stretch:normal;font-size:12px;line-height:125%;font-family:'Open Sans';-inkscape-font-specification:'Open Sans';text-align:start;letter-spacing:0px;word-spacing:0px;writing-mode:lr-tb;text-anchor:start;display:inline;overflow:visible;visibility:visible;fill:#000000;fill-opacity:1;fill-rule:nonzero;stroke:none;stroke-width:1px;stroke-linecap:butt;stroke-linejoin:miter;stroke-opacity:1;marker:none;enable-background:accumulate"
       transform="translate(-0.09326172,-14.904378)"><flowRegion
         id="flowRegion4455"><rect
           id="rect4457"
           width="216.14172"
           height="77.952759"
           x="807.87402"
           y="546.92914" /></flowRegion><flowPara
         id="flowPara4459"
         style="font-style:italic;font-variant:normal;font-weight:600;font-stretch:normal;font-size:10.5px;line-height:150%;font-family:'Open Sans';-inkscape-font-specification:'Open Sans Semi-Bold Italic';fill:url(#Asides)">What does the name Ubuntu mean?</flowPara><flowPara
         style="font-size:10.5px;line-height:150%;fill:url(#Asides)"
         id="flowPara4467">Ubuntu is an african term that can be roughly translated to &quot;humanity towards others&quot;.</flowPara></flowRoot>    <flowRoot
       xml:space="preserve"
       style="color:#000000;font-style:normal;font-variant:normal;font-weight:normal;font-stretch:normal;font-size:12px;line-height:125%;font-family:'Open Sans';-inkscape-font-specification:'Open Sans';text-align:start;letter-spacing:0px;word-spacing:0px;writing-mode:lr-tb;text-anchor:start;display:inline;overflow:visible;visibility:visible;fill:#000000;fill-opacity:1;fill-rule:nonzero;stroke:none;stroke-width:1px;stroke-linecap:butt;stroke-linejoin:miter;stroke-opacity:1;marker:none;enable-background:accumulate"
       id="flowRoot4485"
       transform="translate(0,7.6160944)"><flowRegion
         id="flowRegion4487"><use
           x="0"
           y="0"
           xlink:href="#rect4471"
           id="use4489"
           width="100%"
           height="100%" /></flowRegion><flowPara
         style="font-style:italic;font-variant:normal;font-weight:600;font-stretch:normal;font-size:10.5px;line-height:150%;font-family:'Open Sans';-inkscape-font-specification:'Open Sans Semi-Bold Italic';fill:url(#Asides)"
         id="flowPara4491">Ubuntu and Debian</flowPara><flowPara
         style="font-size:10.5px;line-height:150%;fill:url(#Asides)"
         id="flowPara4497">Ubuntu is based on Debian, a free operating system started in 1993. Ubuntu was first released in 2004, followed by a first Xubuntu release in 2006.</flowPara></flowRoot>  </g>
</svg>
