<?xml version="1.0" encoding="UTF-8" standalone="no"?>
<!-- Created with Inkscape (http://www.inkscape.org/) -->

<svg
   xmlns:dc="http://purl.org/dc/elements/1.1/"
   xmlns:cc="http://creativecommons.org/ns#"
   xmlns:rdf="http://www.w3.org/1999/02/22-rdf-syntax-ns#"
   xmlns:svg="http://www.w3.org/2000/svg"
   xmlns="http://www.w3.org/2000/svg"
   xmlns:sodipodi="http://sodipodi.sourceforge.net/DTD/sodipodi-0.dtd"
   xmlns:inkscape="http://www.inkscape.org/namespaces/inkscape"
   width="270.37332"
   height="88"
   id="svg3564"
   version="1.1"
   inkscape:version="0.48.2 r9819"
   sodipodi:docname="logo-lightbg-small.svg">
  <defs
     id="defs3566" />
  <sodipodi:namedview
     id="base"
     pagecolor="#ffffff"
     bordercolor="#666666"
     borderopacity="1.0"
     inkscape:pageopacity="0.0"
     inkscape:pageshadow="2"
     inkscape:zoom="1"
     inkscape:cx="151.98504"
     inkscape:cy="47.500062"
     inkscape:document-units="px"
     inkscape:current-layer="layer1"
     showgrid="false"
     fit-margin-top="20"
     fit-margin-left="20"
     fit-margin-right="20"
     fit-margin-bottom="20"
     inkscape:window-width="873"
     inkscape:window-height="444"
     inkscape:window-x="2406"
     inkscape:window-y="283"
     inkscape:window-maximized="0" />
  <metadata
     id="metadata3569">
    <rdf:RDF>
      <cc:Work
         rdf:about="">
        <dc:format>image/svg+xml</dc:format>
        <dc:type
           rdf:resource="http://purl.org/dc/dcmitype/StillImage" />
        <dc:title />
      </cc:Work>
    </rdf:RDF>
  </metadata>
  <g
     inkscape:label="Layer 1"
     inkscape:groupmode="layer"
     id="layer1"
     transform="translate(-223.01496,-491.86225)">
    <g
       transform="matrix(0.87272505,0,0,0.87272505,173.19696,342.77183)"
       style="display:inline"
       id="g3419">
      <g
         transform="translate(-84.285713,-441.64783)"
         id="g3156">
        <path
           inkscape:export-ydpi="88.292778"
           inkscape:export-xdpi="88.292778"
           inkscape:export-filename="/ssh/nebula/public_html/temp/xubuntu/web_improvements/wp-content/themes/xubuntu-wp/images/xubuntu-logo.png"
           inkscape:connector-curvature="0"
           d="m 187.63909,689.65059 c -0.45671,-0.91338 -1.01719,-1.93054 -1.68144,-3.05151 -0.6643,-1.12096 -1.39085,-2.26268 -2.17965,-3.42517 -0.78885,-1.20398 -1.59843,-2.38722 -2.42876,-3.54971 -0.83036,-1.16247 -1.63994,-2.26267 -2.42875,-3.30061 -0.78883,1.03794 -1.59843,2.1589 -2.42874,3.36288 -0.83036,1.1625 -1.63994,2.34573 -2.42877,3.54973 -0.7473,1.16247 -1.4531,2.3042 -2.11737,3.42515 -0.66428,1.12097 -1.22475,2.11737 -1.68144,2.98924 l -5.97846,0 c 1.4531,-2.82317 3.17606,-5.68785 5.16888,-8.59405 2.03432,-2.9477 4.0479,-5.75011 6.04074,-8.40722 l -10.71142,-15.3821 6.53895,0 7.72219,11.33419 7.78446,-11.33419 6.16529,0 -10.46232,15.00845 c 1.99281,2.69863 4.02714,5.5633 6.10302,8.59405 2.11734,2.98924 3.90258,5.91619 5.35571,8.78087 l -6.35212,0"
           style="font-size:49.49238586px;font-style:normal;font-weight:normal;fill:#333333;fill-opacity:1;stroke:none;display:inline;font-family:ubuntubeta;-inkscape-font-specification:ubuntubeta"
           id="path3552" />
        <path
           inkscape:export-ydpi="88.292778"
           inkscape:export-xdpi="88.292778"
           inkscape:export-filename="/ssh/nebula/public_html/temp/xubuntu/web_improvements/wp-content/themes/xubuntu-wp/images/xubuntu-logo.png"
           inkscape:connector-curvature="0"
           d="m 223.67649,688.71645 c -1.32858,0.33214 -3.09304,0.68503 -5.29343,1.05869 -2.15892,0.37365 -4.6707,0.56048 -7.53536,0.56048 -2.49105,0 -4.58765,-0.35289 -6.28984,-1.05868 -1.70221,-0.74731 -3.07228,-1.78524 -4.11021,-3.11379 -1.03792,-1.32854 -1.78522,-2.88544 -2.24191,-4.67067 -0.45669,-1.82676 -0.68504,-3.84033 -0.68504,-6.04075 l 0,-18.18451 5.79164,0 0,16.939 c -2e-5,3.94413 0.62275,6.7673 1.86827,8.46949 1.2455,1.7022 3.34211,2.55331 6.28985,2.5533 0.62274,10e-6 1.26624,-0.0207 1.93055,-0.0623 0.66424,-0.0415 1.287,-0.083 1.86827,-0.12454 0.58121,-0.083 1.10018,-0.14531 1.55689,-0.18683 0.49818,-0.083 0.85108,-0.16607 1.05868,-0.24911 l 0,-27.33902 5.79164,0 0,31.44922"
           style="font-size:49.49238586px;font-style:normal;font-weight:normal;fill:#333333;fill-opacity:1;stroke:none;display:inline;font-family:ubuntubeta;-inkscape-font-specification:ubuntubeta"
           id="path3554" />
        <path
           inkscape:export-ydpi="88.292778"
           inkscape:export-xdpi="88.292778"
           inkscape:export-filename="/ssh/nebula/public_html/temp/xubuntu/web_improvements/wp-content/themes/xubuntu-wp/images/xubuntu-logo.png"
           inkscape:connector-curvature="0"
           d="m 235.29792,658.69956 c 0.70578,-0.45665 1.76447,-0.93409 3.17606,-1.43234 1.45308,-0.49817 3.11377,-0.74727 4.98205,-0.7473 2.32494,3e-5 4.38004,0.41521 6.1653,1.24552 1.82673,0.83036 3.36286,1.99284 4.6084,3.48743 1.24548,1.49465 2.17963,3.27988 2.8024,5.35571 0.66425,2.07588 0.99639,4.35931 0.99641,6.85033 -2e-5,2.61559 -0.39444,4.98206 -1.18323,7.09943 -0.74734,2.07586 -1.82678,3.84033 -3.23834,5.29343 -1.41161,1.4531 -3.11381,2.57406 -5.1066,3.36289 -1.99285,0.78882 -4.23477,1.18324 -6.72578,1.18324 -2.69863,0 -5.08586,-0.18684 -7.16169,-0.56049 -2.07588,-0.37365 -3.77808,-0.74731 -5.10662,-1.12096 l 0,-46.39539 5.79164,-0.99641 0,17.37491 m 0,25.90669 c 0.58122,0.16608 1.39081,0.33215 2.42874,0.49821 1.07944,0.12456 2.40799,0.18684 3.98566,0.18683 3.11376,10e-6 5.60478,-1.01717 7.47307,-3.05151 1.86825,-2.07584 2.80239,-5.0028 2.80241,-8.78087 -2e-5,-1.66067 -0.16609,-3.21756 -0.4982,-4.67068 -0.33217,-1.45308 -0.87189,-2.69859 -1.61917,-3.73655 -0.74733,-1.07941 -1.72298,-1.90975 -2.92696,-2.49102 -1.1625,-0.62273 -2.57408,-0.93411 -4.23473,-0.93413 -1.57768,2e-5 -3.03079,0.26988 -4.35931,0.80958 -1.32857,0.53975 -2.34573,1.10023 -3.05151,1.68144 l 0,20.4887"
           style="font-size:49.49238586px;font-style:normal;font-weight:normal;fill:#333333;fill-opacity:1;stroke:none;display:inline;font-family:ubuntubeta;-inkscape-font-specification:ubuntubeta"
           id="path3556" />
        <path
           inkscape:export-ydpi="88.292778"
           inkscape:export-xdpi="88.292778"
           inkscape:export-filename="/ssh/nebula/public_html/temp/xubuntu/web_improvements/wp-content/themes/xubuntu-wp/images/xubuntu-logo.png"
           inkscape:connector-curvature="0"
           d="m 289.24734,688.71645 c -1.32858,0.33214 -3.09305,0.68503 -5.29344,1.05869 -2.15891,0.37365 -4.6707,0.56048 -7.53535,0.56048 -2.49105,0 -4.58766,-0.35289 -6.28984,-1.05868 -1.70222,-0.74731 -3.07228,-1.78524 -4.1102,-3.11379 -1.03794,-1.32854 -1.78524,-2.88544 -2.24192,-4.67067 -0.4567,-1.82676 -0.68504,-3.84033 -0.68504,-6.04075 l 0,-18.18451 5.79164,0 0,16.939 c -1e-5,3.94413 0.62275,6.7673 1.86826,8.46949 1.24551,1.7022 3.34212,2.55331 6.28985,2.5533 0.62274,10e-6 1.26626,-0.0207 1.93055,-0.0623 0.66426,-0.0415 1.28701,-0.083 1.86827,-0.12454 0.58122,-0.083 1.10018,-0.14531 1.5569,-0.18683 0.49818,-0.083 0.85107,-0.16607 1.05868,-0.24911 l 0,-27.33902 5.79164,0 0,31.44922"
           style="font-size:49.49238586px;font-style:normal;font-weight:normal;fill:#333333;fill-opacity:1;stroke:none;display:inline;font-family:ubuntubeta;-inkscape-font-specification:ubuntubeta"
           id="path3558" />
        <path
           inkscape:export-ydpi="88.292778"
           inkscape:export-xdpi="88.292778"
           inkscape:export-filename="/ssh/nebula/public_html/temp/xubuntu/web_improvements/wp-content/themes/xubuntu-wp/images/xubuntu-logo.png"
           inkscape:connector-curvature="0"
           d="m 294.31033,658.20136 c 1.32853,-0.33211 3.09302,-0.685 5.29342,-1.05868 2.2004,-0.37363 4.73294,-0.56045 7.59764,-0.56049 2.57404,4e-5 4.71218,0.37369 6.4144,1.12096 1.70218,0.70583 3.05148,1.72299 4.04792,3.05151 1.0379,1.28707 1.76445,2.84395 2.17966,4.67069 0.41513,1.82677 0.62272,3.84034 0.62275,6.04074 l 0,18.1845 -5.79164,0 0,-16.93899 c -3e-5,-1.99281 -0.14533,-3.695 -0.43594,-5.10661 -0.24912,-1.41156 -0.68505,-2.55328 -1.30779,-3.42516 -0.62278,-0.87184 -1.45312,-1.4946 -2.49102,-1.86827 -1.03794,-0.41515 -2.32498,-0.62273 -3.86109,-0.62276 -0.62278,3e-5 -1.26629,0.0208 -1.93054,0.0622 -0.66429,0.0415 -1.30782,0.10382 -1.93056,0.18682 -0.58125,0.0415 -1.12097,0.10382 -1.61916,0.18683 -0.4567,0.083 -0.78883,0.14534 -0.99641,0.18682 l 0,27.33904 -5.79164,0 0,-31.44923"
           style="font-size:49.49238586px;font-style:normal;font-weight:normal;fill:#333333;fill-opacity:1;stroke:none;display:inline;font-family:ubuntubeta;-inkscape-font-specification:ubuntubeta"
           id="path3560" />
        <path
           inkscape:export-ydpi="88.292778"
           inkscape:export-xdpi="88.292778"
           inkscape:export-filename="/ssh/nebula/public_html/temp/xubuntu/web_improvements/wp-content/themes/xubuntu-wp/images/xubuntu-logo.png"
           inkscape:connector-curvature="0"
           d="m 331.32075,657.26722 12.26831,0 0,4.85751 -12.26831,0 0,14.94617 c -2e-5,1.61918 0.12457,2.96848 0.37366,4.04792 0.24909,1.03793 0.62274,1.86828 1.12096,2.49103 0.49819,0.58124 1.12095,0.99641 1.86826,1.24551 0.7473,0.2491 1.61916,0.37366 2.61559,0.37365 1.7437,10e-6 3.13452,-0.18682 4.17247,-0.56047 1.07942,-0.41517 1.82673,-0.7058 2.24193,-0.87187 l 1.12095,4.79523 c -0.58126,0.29062 -1.59842,0.64352 -3.05151,1.05869 -1.45311,0.45668 -3.11379,0.68503 -4.98205,0.68503 -2.20042,0 -4.02717,-0.26986 -5.48026,-0.80958 -1.41159,-0.58124 -2.55331,-1.43234 -3.42516,-2.55331 -0.87187,-1.12096 -1.49463,-2.49102 -1.86827,-4.11019 -0.33214,-1.66068 -0.49821,-3.57047 -0.49821,-5.72937 l 0,-28.89592 5.79164,-0.99641 0,10.02638"
           style="font-size:49.49238586px;font-style:normal;font-weight:normal;fill:#333333;fill-opacity:1;stroke:none;display:inline;font-family:ubuntubeta;-inkscape-font-specification:ubuntubeta"
           id="path3562" />
        <path
           inkscape:export-ydpi="88.292778"
           inkscape:export-xdpi="88.292778"
           inkscape:export-filename="/ssh/nebula/public_html/temp/xubuntu/web_improvements/wp-content/themes/xubuntu-wp/images/xubuntu-logo.png"
           inkscape:connector-curvature="0"
           d="m 375.2866,688.71645 c -1.32858,0.33214 -3.09305,0.68503 -5.29343,1.05869 -2.15892,0.37365 -4.6707,0.56048 -7.53537,0.56048 -2.49104,0 -4.58765,-0.35289 -6.28983,-1.05868 -1.70221,-0.74731 -3.07228,-1.78524 -4.1102,-3.11379 -1.03794,-1.32854 -1.78525,-2.88544 -2.24193,-4.67067 -0.45668,-1.82676 -0.68504,-3.84033 -0.68502,-6.04075 l 0,-18.18451 5.79163,0 0,16.939 c -1e-5,3.94413 0.62275,6.7673 1.86827,8.46949 1.2455,1.7022 3.34211,2.55331 6.28984,2.5533 0.62274,10e-6 1.26625,-0.0207 1.93056,-0.0623 0.66425,-0.0415 1.287,-0.083 1.86826,-0.12454 0.58122,-0.083 1.10019,-0.14531 1.5569,-0.18683 0.49818,-0.083 0.85107,-0.16607 1.05869,-0.24911 l 0,-27.33902 5.79163,0 0,31.44922"
           style="font-size:49.49238586px;font-style:normal;font-weight:normal;fill:#333333;fill-opacity:1;stroke:none;display:inline;font-family:ubuntubeta;-inkscape-font-specification:ubuntubeta"
           id="path3564" />
      </g>
      <g
         transform="translate(0,67.49893)"
         id="g3411">
        <path
           transform="matrix(2.6557059,0,0,2.6557059,-498.88457,32.96933)"
           d="m 317.375,43.625 c 0,4.69442 -3.80558,8.5 -8.5,8.5 -4.69442,0 -8.5,-3.80558 -8.5,-8.5 0,-4.69442 3.80558,-8.5 8.5,-8.5 4.69442,0 8.5,3.80558 8.5,8.5 z"
           sodipodi:ry="8.5"
           sodipodi:rx="8.5"
           sodipodi:cy="43.625"
           sodipodi:cx="308.875"
           id="path3394"
           style="fill:#0044aa;fill-opacity:1;stroke:none"
           sodipodi:type="arc" />
        <path
           id="path3396"
           d="m 327.875,134.46875 c -0.0423,0.006 -0.0906,0.0246 -0.15625,0.0625 -0.13134,0.0759 -0.1966,0.1638 -0.25,0.25 -0.88876,1.49705 -0.87935,3.31535 -1.21875,4.75 a 0.46686966,0.4668906 0 0 0 0,0.0625 c -0.16213,1.59267 -0.81704,3.41886 -0.28125,5.25 a 0.46686966,0.4668906 0 0 0 0.0625,0.0625 0.46686966,0.4668906 0 0 0 0,0.0625 c 0.14776,0.25836 0.37698,0.47375 0.65625,0.53125 0.27929,0.0566 0.4987,-0.0874 0.6875,-0.21875 0.33755,-0.23497 0.52915,-0.59675 0.59375,-1 l 0.0625,0 0,-0.125 c 0.70119,-2.76466 1.22026,-5.68852 1.03125,-8.59375 a 0.46686966,0.4668906 0 0 0 0,-0.0625 c -0.0431,-0.25816 -0.15611,-0.46746 -0.3125,-0.65625 -0.15596,-0.18778 -0.33562,-0.3976 -0.71875,-0.375 a 0.46686966,0.4668906 0 0 0 -0.0625,0 c -0.0215,0.002 -0.0514,-0.006 -0.0937,0 z m 6.75,1.65625 c -1.5253,0.68255 -2.13598,2.36499 -2.9375,3.40625 a 0.40558247,0.40560067 0 0 0 0,0.0625 c -1.00346,1.77839 -2.42049,3.66582 -2.5625,5.96875 0,0.56455 0.38922,0.99525 0.84375,1.09375 0.42785,0.0923 0.9526,-0.10605 1.21875,-0.53125 0.0205,-0.0226 -0.0164,-0.0379 0,-0.0625 1.90001,-2.61075 3.30708,-5.69397 4.46875,-8.65625 0.11697,-0.2832 0.13954,-0.55768 0,-0.84375 -0.13955,-0.28689 -0.54346,-0.4826 -0.90625,-0.4375 a 0.40558247,0.40560067 0 0 0 -0.0625,0 l -0.0625,0 z m -17.84375,1 c -0.0984,-0.002 -0.18593,0.0138 -0.28125,0.0312 -0.18879,0.0351 -0.45574,0.172 -0.65625,0.25 -0.70917,0.26904 -1.11195,0.8835 -1.28125,1.59375 -0.17239,0.72667 -0.11493,1.54778 0,2.375 0.11491,0.82558 0.25835,1.66237 0.4375,2.3125 0.15401,0.56249 0.29055,0.84451 0.34375,1.03125 l 0,0.125 c 0,0.0615 -0.0214,0.0757 -0.0625,0.125 -0.0226,0.0123 0.0226,0.0625 0,0.0625 -0.0511,0.039 -0.15515,0.0625 -0.21875,0.0625 -0.12529,0.008 -0.18301,-0.0297 -0.3125,-0.0625 -0.0883,-0.0205 -0.2142,-0.083 -0.1875,-0.0625 -0.0411,-0.0246 -0.0983,-0.0194 -0.125,-0.0625 0,0.0164 0.0247,-0.0112 0,-0.0625 -0.0288,-0.0534 -0.0799,-0.1556 -0.125,-0.25 -0.10056,-0.21384 -0.1746,-0.46686 -0.3125,-0.78125 -0.27518,-0.62611 -0.63767,-1.40388 -1.03125,-2.125 -0.39503,-0.724 -0.82848,-1.39063 -1.34375,-1.84375 -0.25753,-0.22635 -0.59989,-0.4241 -0.90625,-0.5 -0.2957,-0.0739 -0.66301,-0.0269 -0.96875,0.125 -0.79005,0.43834 -1.23264,1.15762 -1.40625,1.90625 -0.17446,0.76012 -0.0647,1.612 0.0625,2.375 0.12928,0.76135 0.30842,1.422 0.4375,1.9375 0.0554,0.21732 0.13785,0.39123 0.15625,0.5 0,0.10774 -0.067,0.42659 -0.0937,0.53125 -0.13338,0.46194 -0.43675,1.21875 -0.4375,1.21875 0,0 -6.14642,16.33219 7.0625,15.1875 0.10876,-0.008 0.3349,-0.0625 0.4375,-0.0625 2.59402,-0.52227 5.06806,-1.30733 7.25,-2.1875 0.42867,-0.20542 0.96231,-0.39158 1.59375,-0.6875 1.26283,-0.59164 2.85072,-1.35043 4.375,-2.1875 1.52489,-0.83769 2.95002,-1.73715 4.03125,-2.6875 1.08309,-0.95179 1.89529,-1.99265 1.75,-3.03125 -0.22984,-1.67435 -1.3638,-2.94503 -2.84375,-3.90625 -1.48549,-0.96472 -3.34044,-1.63926 -5.1875,-2.125 -1.84625,-0.48554 -3.63045,-0.88073 -5,-1.09375 -0.68456,-0.1067 -1.31654,-0.1136 -1.71875,-0.1875 -0.11901,-0.0205 -0.21695,-0.042 -0.28125,-0.0625 -0.0347,-0.004 -0.0297,-0.042 -0.0625,-0.0625 -0.0411,-0.0246 -0.1003,-0.0194 -0.125,-0.0625 -0.0226,-0.041 0,-0.0778 0,-0.125 0,-0.0184 -1.9e-4,-0.0379 0,-0.0625 l 0,-1.03125 c -0.0226,-0.84426 -0.0754,-1.96079 -0.25,-3 -0.17649,-1.04352 -0.45708,-2.04441 -1.03125,-2.71875 -0.34126,-0.4012 -0.81976,-0.6465 -1.40625,-0.6875 -0.0882,-0.0102 -0.18285,-0.0294 -0.28125,-0.0312 z"
           style="fill:#ffffff;fill-opacity:1;stroke:none"
           inkscape:connector-curvature="0" />
      </g>
    </g>
  </g>
</svg>
