<?xml version="1.0" encoding="UTF-8" standalone="no"?>
<!-- Created with Inkscape (http://www.inkscape.org/) -->

<svg
   xmlns:dc="http://purl.org/dc/elements/1.1/"
   xmlns:cc="http://creativecommons.org/ns#"
   xmlns:rdf="http://www.w3.org/1999/02/22-rdf-syntax-ns#"
   xmlns:svg="http://www.w3.org/2000/svg"
   xmlns="http://www.w3.org/2000/svg"
   xmlns:sodipodi="http://sodipodi.sourceforge.net/DTD/sodipodi-0.dtd"
   xmlns:inkscape="http://www.inkscape.org/namespaces/inkscape"
   width="270.37781"
   height="88"
   id="svg3467"
   version="1.1"
   inkscape:version="0.48.2 r9819"
   sodipodi:docname="logo-darkbg-small.svg">
  <defs
     id="defs3469" />
  <sodipodi:namedview
     id="base"
     pagecolor="#ffffff"
     bordercolor="#666666"
     borderopacity="1.0"
     inkscape:pageopacity="0.0"
     inkscape:pageshadow="2"
     inkscape:zoom="0.35"
     inkscape:cx="151.98504"
     inkscape:cy="47.499536"
     inkscape:document-units="px"
     inkscape:current-layer="layer1"
     showgrid="false"
     fit-margin-top="20"
     fit-margin-left="20"
     fit-margin-right="20"
     fit-margin-bottom="20"
     inkscape:window-width="955"
     inkscape:window-height="658"
     inkscape:window-x="2284"
     inkscape:window-y="195"
     inkscape:window-maximized="0" />
  <metadata
     id="metadata3472">
    <rdf:RDF>
      <cc:Work
         rdf:about="">
        <dc:format>image/svg+xml</dc:format>
        <dc:type
           rdf:resource="http://purl.org/dc/dcmitype/StillImage" />
        <dc:title />
      </cc:Work>
    </rdf:RDF>
  </metadata>
  <g
     inkscape:label="Layer 1"
     inkscape:groupmode="layer"
     id="layer1"
     transform="translate(-223.01496,-491.86172)">
    <g
       transform="matrix(0.87274207,0,0,0.87274207,173.1956,454.04168)"
       style="display:inline"
       id="g3432">
      <g
         transform="translate(-84.285713,-441.64783)"
         id="g3200">
        <path
           id="path2826"
           style="font-size:49.49238586px;font-style:normal;font-weight:normal;fill:#ffffff;fill-opacity:1;stroke:none;display:inline;font-family:ubuntubeta;-inkscape-font-specification:ubuntubeta"
           d="m 187.63909,562.15059 c -0.45671,-0.91338 -1.01719,-1.93054 -1.68144,-3.05151 -0.6643,-1.12096 -1.39085,-2.26268 -2.17964,-3.42517 -0.78886,-1.20398 -1.59844,-2.38722 -2.42877,-3.54971 -0.83036,-1.16247 -1.63994,-2.26267 -2.42875,-3.30061 -0.78883,1.03794 -1.59842,2.1589 -2.42874,3.36288 -0.83036,1.1625 -1.63994,2.34573 -2.42876,3.54973 -0.74731,1.16247 -1.45311,2.3042 -2.11738,3.42515 -0.66427,1.12097 -1.22475,2.11738 -1.68143,2.98924 l -5.97847,0 c 1.4531,-2.82316 3.17606,-5.68784 5.16889,-8.59405 2.03432,-2.9477 4.04789,-5.75011 6.04073,-8.40722 l -10.71142,-15.38209 6.53895,0 7.72219,11.33418 7.78446,-11.33418 6.16529,0 -10.46231,15.00844 c 1.9928,2.69863 4.02713,5.5633 6.10301,8.59405 2.11734,2.98924 3.90258,5.91619 5.35572,8.78087 l -6.35213,0"
           inkscape:connector-curvature="0"
           inkscape:export-filename="/ssh/nebula/public_html/temp/xubuntu/web_improvements/wp-content/themes/xubuntu-wp/images/xubuntu-logo.png"
           inkscape:export-xdpi="88.292778"
           inkscape:export-ydpi="88.292778" />
        <path
           id="path2828"
           style="font-size:49.49238586px;font-style:normal;font-weight:normal;fill:#ffffff;fill-opacity:1;stroke:none;display:inline;font-family:ubuntubeta;-inkscape-font-specification:ubuntubeta"
           d="m 223.6765,561.21645 c -1.32858,0.33214 -3.09305,0.68503 -5.29344,1.05869 -2.15892,0.37365 -4.6707,0.56048 -7.53536,0.56048 -2.49105,0 -4.58765,-0.35289 -6.28984,-1.05868 -1.70221,-0.74731 -3.07228,-1.78524 -4.1102,-3.11379 -1.03793,-1.32854 -1.78523,-2.88544 -2.24192,-4.67067 -0.45669,-1.82675 -0.68504,-3.84033 -0.68504,-6.04075 l 0,-18.1845 5.79165,0 0,16.93899 c -2e-5,3.94413 0.62275,6.7673 1.86826,8.46949 1.2455,1.70221 3.34212,2.55331 6.28985,2.5533 0.62274,10e-6 1.26625,-0.0207 1.93055,-0.0623 0.66425,-0.0415 1.287,-0.083 1.86827,-0.12454 0.58121,-0.083 1.10018,-0.1453 1.55689,-0.18683 0.49819,-0.083 0.85108,-0.16606 1.05868,-0.24911 l 0,-27.33902 5.79165,0 0,31.44922"
           inkscape:connector-curvature="0"
           inkscape:export-filename="/ssh/nebula/public_html/temp/xubuntu/web_improvements/wp-content/themes/xubuntu-wp/images/xubuntu-logo.png"
           inkscape:export-xdpi="88.292778"
           inkscape:export-ydpi="88.292778" />
        <path
           id="path2830"
           style="font-size:49.49238586px;font-style:normal;font-weight:normal;fill:#ffffff;fill-opacity:1;stroke:none;display:inline;font-family:ubuntubeta;-inkscape-font-specification:ubuntubeta"
           d="m 235.29792,531.19957 c 0.70578,-0.45666 1.76447,-0.9341 3.17606,-1.43234 1.45308,-0.49818 3.11377,-0.74728 4.98206,-0.74731 2.32493,3e-5 4.38003,0.41521 6.16529,1.24552 1.82673,0.83036 3.36286,1.99284 4.6084,3.48744 1.24548,1.49464 2.17963,3.27987 2.8024,5.3557 0.66425,2.07588 0.99639,4.35932 0.99641,6.85033 -2e-5,2.61559 -0.39444,4.98207 -1.18322,7.09943 -0.74735,2.07587 -1.82678,3.84033 -3.23835,5.29343 -1.41161,1.4531 -3.11381,2.57406 -5.1066,3.36289 -1.99285,0.78883 -4.23476,1.18324 -6.72578,1.18324 -2.69863,0 -5.08586,-0.18683 -7.16169,-0.56049 -2.07588,-0.37365 -3.77808,-0.74731 -5.10662,-1.12096 l 0,-46.39539 5.79164,-0.99641 0,17.37492 m 0,25.90668 c 0.58123,0.16608 1.39081,0.33215 2.42875,0.49821 1.07943,0.12456 2.40798,0.18684 3.98566,0.18683 3.11375,10e-6 5.60477,-1.01716 7.47307,-3.05151 1.86824,-2.07584 2.80238,-5.0028 2.8024,-8.78087 -2e-5,-1.66067 -0.16609,-3.21756 -0.4982,-4.67068 -0.33217,-1.45308 -0.87188,-2.69859 -1.61917,-3.73655 -0.74733,-1.07941 -1.72298,-1.90975 -2.92696,-2.49102 -1.1625,-0.62273 -2.57407,-0.93411 -4.23473,-0.93413 -1.57768,2e-5 -3.03078,0.26988 -4.35931,0.80958 -1.32857,0.53975 -2.34573,1.10023 -3.05151,1.68145 l 0,20.48869"
           inkscape:connector-curvature="0"
           inkscape:export-filename="/ssh/nebula/public_html/temp/xubuntu/web_improvements/wp-content/themes/xubuntu-wp/images/xubuntu-logo.png"
           inkscape:export-xdpi="88.292778"
           inkscape:export-ydpi="88.292778" />
        <path
           id="path2832"
           style="font-size:49.49238586px;font-style:normal;font-weight:normal;fill:#ffffff;fill-opacity:1;stroke:none;display:inline;font-family:ubuntubeta;-inkscape-font-specification:ubuntubeta"
           d="m 289.24734,561.21645 c -1.32858,0.33214 -3.09305,0.68503 -5.29343,1.05869 -2.15892,0.37365 -4.67071,0.56048 -7.53536,0.56048 -2.49104,0 -4.58766,-0.35289 -6.28984,-1.05868 -1.70222,-0.74731 -3.07228,-1.78524 -4.1102,-3.11379 -1.03794,-1.32854 -1.78524,-2.88544 -2.24192,-4.67067 -0.4567,-1.82675 -0.68503,-3.84033 -0.68503,-6.04075 l 0,-18.1845 5.79163,0 0,16.93899 c -1e-5,3.94413 0.62275,6.7673 1.86827,8.46949 1.24551,1.70221 3.34211,2.55331 6.28984,2.5533 0.62274,10e-6 1.26626,-0.0207 1.93055,-0.0623 0.66426,-0.0415 1.28701,-0.083 1.86827,-0.12454 0.58122,-0.083 1.10018,-0.1453 1.5569,-0.18683 0.49818,-0.083 0.85108,-0.16606 1.05869,-0.24911 l 0,-27.33902 5.79163,0 0,31.44922"
           inkscape:connector-curvature="0"
           inkscape:export-filename="/ssh/nebula/public_html/temp/xubuntu/web_improvements/wp-content/themes/xubuntu-wp/images/xubuntu-logo.png"
           inkscape:export-xdpi="88.292778"
           inkscape:export-ydpi="88.292778" />
        <path
           id="path2834"
           style="font-size:49.49238586px;font-style:normal;font-weight:normal;fill:#ffffff;fill-opacity:1;stroke:none;display:inline;font-family:ubuntubeta;-inkscape-font-specification:ubuntubeta"
           d="m 294.31033,530.70136 c 1.32853,-0.3321 3.09302,-0.685 5.29343,-1.05868 2.20039,-0.37363 4.73293,-0.56045 7.59763,-0.56049 2.57404,4e-5 4.71218,0.3737 6.41441,1.12096 1.70217,0.70583 3.05147,1.72299 4.04791,3.05151 1.0379,1.28707 1.76445,2.84396 2.17966,4.67069 0.41513,1.82677 0.62272,3.84034 0.62275,6.04074 l 0,18.1845 -5.79164,0 0,-16.93898 c -3e-5,-1.99282 -0.14533,-3.69501 -0.43593,-5.10662 -0.24913,-1.41156 -0.68506,-2.55328 -1.3078,-3.42516 -0.62277,-0.87184 -1.45311,-1.49459 -2.49101,-1.86827 -1.03795,-0.41515 -2.32499,-0.62273 -3.8611,-0.62276 -0.62277,3e-5 -1.26629,0.0208 -1.93054,0.0622 -0.66429,0.0415 -1.30782,0.10382 -1.93056,0.18682 -0.58125,0.0415 -1.12097,0.10382 -1.61916,0.18683 -0.4567,0.083 -0.78883,0.14534 -0.99641,0.18682 l 0,27.33904 -5.79164,0 0,-31.44923"
           inkscape:connector-curvature="0"
           inkscape:export-filename="/ssh/nebula/public_html/temp/xubuntu/web_improvements/wp-content/themes/xubuntu-wp/images/xubuntu-logo.png"
           inkscape:export-xdpi="88.292778"
           inkscape:export-ydpi="88.292778" />
        <path
           id="path2836"
           style="font-size:49.49238586px;font-style:normal;font-weight:normal;fill:#ffffff;fill-opacity:1;stroke:none;display:inline;font-family:ubuntubeta;-inkscape-font-specification:ubuntubeta"
           d="m 331.32076,529.76723 12.26831,0 0,4.8575 -12.26831,0 0,14.94617 c -2e-5,1.61918 0.12456,2.96848 0.37365,4.04792 0.24909,1.03793 0.62274,1.86828 1.12096,2.49103 0.49819,0.58124 1.12095,0.99641 1.86827,1.24551 0.74729,0.2491 1.61915,0.37366 2.61558,0.37365 1.7437,10e-6 3.13453,-0.18682 4.17247,-0.56047 1.07942,-0.41517 1.82674,-0.70579 2.24193,-0.87187 l 1.12095,4.79523 c -0.58126,0.29063 -1.59842,0.64352 -3.05151,1.05869 -1.4531,0.45669 -3.11379,0.68503 -4.98205,0.68503 -2.20041,0 -4.02717,-0.26986 -5.48025,-0.80958 -1.4116,-0.58124 -2.55331,-1.43234 -3.42517,-2.55331 -0.87186,-1.12096 -1.49462,-2.49101 -1.86827,-4.11019 -0.33213,-1.66067 -0.49821,-3.57047 -0.49821,-5.72937 l 0,-28.89592 5.79165,-0.9964 0,10.02638"
           inkscape:connector-curvature="0"
           inkscape:export-filename="/ssh/nebula/public_html/temp/xubuntu/web_improvements/wp-content/themes/xubuntu-wp/images/xubuntu-logo.png"
           inkscape:export-xdpi="88.292778"
           inkscape:export-ydpi="88.292778" />
        <path
           id="path2838"
           style="font-size:49.49238586px;font-style:normal;font-weight:normal;fill:#ffffff;fill-opacity:1;stroke:none;display:inline;font-family:ubuntubeta;-inkscape-font-specification:ubuntubeta"
           d="m 375.2866,561.21645 c -1.32858,0.33214 -3.09304,0.68503 -5.29343,1.05869 -2.15892,0.37365 -4.6707,0.56048 -7.53536,0.56048 -2.49105,0 -4.58765,-0.35289 -6.28984,-1.05868 -1.70221,-0.74731 -3.07228,-1.78524 -4.1102,-3.11379 -1.03793,-1.32854 -1.78525,-2.88544 -2.24193,-4.67067 -0.45668,-1.82675 -0.68504,-3.84033 -0.68502,-6.04075 l 0,-18.1845 5.79163,0 0,16.93899 c -1e-5,3.94413 0.62275,6.7673 1.86827,8.46949 1.2455,1.70221 3.34211,2.55331 6.28985,2.5533 0.62274,10e-6 1.26624,-0.0207 1.93055,-0.0623 0.66425,-0.0415 1.287,-0.083 1.86826,-0.12454 0.58122,-0.083 1.10019,-0.1453 1.5569,-0.18683 0.49818,-0.083 0.85107,-0.16606 1.05869,-0.24911 l 0,-27.33902 5.79163,0 0,31.44922"
           inkscape:connector-curvature="0"
           inkscape:export-filename="/ssh/nebula/public_html/temp/xubuntu/web_improvements/wp-content/themes/xubuntu-wp/images/xubuntu-logo.png"
           inkscape:export-xdpi="88.292778"
           inkscape:export-ydpi="88.292778" />
      </g>
      <g
         id="g3415">
        <path
           sodipodi:type="arc"
           style="fill:#0044aa;fill-opacity:1;stroke:none"
           id="path3391"
           sodipodi:cx="308.875"
           sodipodi:cy="43.625"
           sodipodi:rx="8.5"
           sodipodi:ry="8.5"
           d="m 317.375,43.625 c 0,4.69442 -3.80558,8.5 -8.5,8.5 -4.69442,0 -8.5,-3.80558 -8.5,-8.5 0,-4.69442 3.80558,-8.5 8.5,-8.5 4.69442,0 8.5,3.80558 8.5,8.5 z"
           transform="matrix(2.6557059,0,0,2.6557059,-498.88457,-27.030667)" />
        <path
           inkscape:connector-curvature="0"
           style="fill:#ffffff;fill-opacity:1;stroke:none"
           d="m 327.875,74.46875 c -0.0423,0.0059 -0.0906,0.02455 -0.15625,0.0625 -0.13134,0.07593 -0.1966,0.1638 -0.25,0.25 -0.88876,1.49705 -0.87935,3.31535 -1.21875,4.75 a 0.46686966,0.4668906 0 0 0 0,0.0625 c -0.16213,1.59267 -0.81704,3.41886 -0.28125,5.25 a 0.46686966,0.4668906 0 0 0 0.0625,0.0625 0.46686966,0.4668906 0 0 0 0,0.0625 c 0.14776,0.25836 0.37698,0.47375 0.65625,0.53125 0.27929,0.05664 0.4987,-0.08741 0.6875,-0.21875 0.33755,-0.23497 0.52915,-0.59675 0.59375,-1 l 0.0625,0 0,-0.125 c 0.70119,-2.76466 1.22026,-5.68852 1.03125,-8.59375 a 0.46686966,0.4668906 0 0 0 0,-0.0625 c -0.0431,-0.25816 -0.15611,-0.46746 -0.3125,-0.65625 -0.15596,-0.18778 -0.33562,-0.3976 -0.71875,-0.375 a 0.46686966,0.4668906 0 0 0 -0.0625,0 c -0.0215,0.002 -0.0514,-0.0059 -0.0937,0 z m 6.75,1.65625 c -1.5253,0.68255 -2.13598,2.36499 -2.9375,3.40625 a 0.40558247,0.40560067 0 0 0 0,0.0625 c -1.00346,1.77839 -2.42049,3.66582 -2.5625,5.96875 0,0.56455 0.38922,0.99525 0.84375,1.09375 0.42785,0.09235 0.9526,-0.10605 1.21875,-0.53125 0.0205,-0.0226 -0.0164,-0.0379 0,-0.0625 1.90001,-2.61075 3.30708,-5.69397 4.46875,-8.65625 0.11697,-0.2832 0.13954,-0.55768 0,-0.84375 -0.13955,-0.28689 -0.54346,-0.4826 -0.90625,-0.4375 a 0.40558247,0.40560067 0 0 0 -0.0625,0 l -0.0625,0 z m -17.84375,1 c -0.0984,-0.0018 -0.18593,0.0138 -0.28125,0.03125 -0.18879,0.03509 -0.45574,0.172 -0.65625,0.25 -0.70917,0.26904 -1.11195,0.8835 -1.28125,1.59375 -0.17239,0.72667 -0.11493,1.54778 0,2.375 0.11491,0.82558 0.25835,1.66237 0.4375,2.3125 0.15401,0.56249 0.29055,0.84451 0.34375,1.03125 l 0,0.125 c 0,0.06153 -0.0214,0.0757 -0.0625,0.125 -0.0226,0.0123 0.0226,0.0625 0,0.0625 -0.0511,0.039 -0.15515,0.0625 -0.21875,0.0625 -0.12529,0.0082 -0.18301,-0.0297 -0.3125,-0.0625 -0.0883,-0.0205 -0.2142,-0.083 -0.1875,-0.0625 -0.0411,-0.0246 -0.0983,-0.0194 -0.125,-0.0625 0,0.0164 0.0247,-0.0112 0,-0.0625 -0.0288,-0.05336 -0.0799,-0.1556 -0.125,-0.25 -0.10056,-0.21384 -0.1746,-0.46686 -0.3125,-0.78125 -0.27518,-0.62611 -0.63767,-1.40388 -1.03125,-2.125 -0.39503,-0.724 -0.82848,-1.39063 -1.34375,-1.84375 -0.25753,-0.22635 -0.59989,-0.4241 -0.90625,-0.5 -0.2957,-0.07388 -0.66301,-0.02686 -0.96875,0.125 -0.79005,0.43834 -1.23264,1.15762 -1.40625,1.90625 -0.17446,0.76012 -0.0647,1.612 0.0625,2.375 0.12928,0.76135 0.30842,1.422 0.4375,1.9375 0.0554,0.21732 0.13785,0.39123 0.15625,0.5 0,0.10774 -0.067,0.42659 -0.0937,0.53125 -0.13338,0.46194 -0.43675,1.21875 -0.4375,1.21875 0,0 -6.14642,16.33219 7.0625,15.1875 0.10876,-0.008 0.3349,-0.0625 0.4375,-0.0625 2.59402,-0.52227 5.06806,-1.30733 7.25,-2.1875 0.42867,-0.20542 0.96231,-0.39158 1.59375,-0.6875 1.26283,-0.59164 2.85072,-1.35043 4.375,-2.1875 1.52489,-0.83769 2.95002,-1.73715 4.03125,-2.6875 1.08309,-0.95179 1.89529,-1.99265 1.75,-3.03125 -0.22984,-1.67435 -1.3638,-2.94503 -2.84375,-3.90625 -1.48549,-0.96472 -3.34044,-1.63926 -5.1875,-2.125 -1.84625,-0.48554 -3.63045,-0.88073 -5,-1.09375 -0.68456,-0.1067 -1.31654,-0.1136 -1.71875,-0.1875 -0.11901,-0.0205 -0.21695,-0.042 -0.28125,-0.0625 -0.0347,-0.0041 -0.0297,-0.042 -0.0625,-0.0625 -0.0411,-0.0246 -0.1003,-0.0194 -0.125,-0.0625 -0.0226,-0.04103 0,-0.0778 0,-0.125 0,-0.0184 -1.9e-4,-0.0379 0,-0.0625 l 0,-1.03125 c -0.0226,-0.84426 -0.0754,-1.96079 -0.25,-3 -0.17649,-1.04352 -0.45708,-2.04441 -1.03125,-2.71875 -0.34126,-0.4012 -0.81976,-0.6465 -1.40625,-0.6875 C 316.97435,77.146 316.8797,77.1268 316.7813,77.125 z"
           id="path8557" />
      </g>
    </g>
  </g>
</svg>
