<?xml version="1.0" encoding="UTF-8" standalone="no"?>
<!-- Created with Inkscape (http://www.inkscape.org/) -->

<svg
   xmlns:dc="http://purl.org/dc/elements/1.1/"
   xmlns:cc="http://creativecommons.org/ns#"
   xmlns:rdf="http://www.w3.org/1999/02/22-rdf-syntax-ns#"
   xmlns:svg="http://www.w3.org/2000/svg"
   xmlns="http://www.w3.org/2000/svg"
   xmlns:xlink="http://www.w3.org/1999/xlink"
   xmlns:sodipodi="http://sodipodi.sourceforge.net/DTD/sodipodi-0.dtd"
   xmlns:inkscape="http://www.inkscape.org/namespaces/inkscape"
   width="1920"
   height="1200"
   id="svg2"
   sodipodi:version="0.32"
   inkscape:version="0.48.3.1 r9886"
   version="1.0"
   sodipodi:docname="simple.svg"
   inkscape:output_extension="org.inkscape.output.svg.inkscape"
   inkscape:export-xdpi="90"
   inkscape:export-ydpi="90"
   inkscape:export-filename="/ssh/nebula/public_html/temp/xubuntu/quantal_wall/xubuntu-quantal.png">
  <sodipodi:namedview
     id="base"
     pagecolor="#252525"
     bordercolor="#272727"
     borderopacity="1"
     gridtolerance="10000"
     guidetolerance="10"
     objecttolerance="10"
     inkscape:pageopacity="0"
     inkscape:pageshadow="2"
     inkscape:zoom="1"
     inkscape:cx="1661.1887"
     inkscape:cy="373.14347"
     inkscape:document-units="px"
     inkscape:current-layer="layer1"
     showgrid="false"
     inkscape:window-width="1912"
     inkscape:window-height="1124"
     inkscape:window-x="1920"
     inkscape:window-y="25"
     showguides="true"
     inkscape:guide-bbox="true"
     inkscape:window-maximized="0" />
  <defs
     id="defs4">
    <linearGradient
       id="linearGradient3822">
      <stop
         id="stop3824"
         offset="0"
         style="stop-color:#44ffc2;stop-opacity:0;" />
      <stop
         style="stop-color:#44ffc2;stop-opacity:0;"
         offset="0.45540383"
         id="stop3830" />
      <stop
         id="stop3826"
         offset="1"
         style="stop-color:#44ffc2;stop-opacity:0.609375;" />
    </linearGradient>
    <linearGradient
       id="linearGradient59947">
      <stop
         style="stop-color:#0e3d8b;stop-opacity:0.0625;"
         offset="0"
         id="stop59949" />
      <stop
         style="stop-color:#000000;stop-opacity:0;"
         offset="1"
         id="stop59951" />
    </linearGradient>
    <linearGradient
       id="linearGradient8317">
      <stop
         style="stop-color:#000000;stop-opacity:0;"
         offset="0"
         id="stop8319" />
      <stop
         style="stop-color:#0a1626;stop-opacity:1;"
         offset="1"
         id="stop8321" />
    </linearGradient>
    <inkscape:perspective
       sodipodi:type="inkscape:persp3d"
       inkscape:vp_x="0 : 720 : 1"
       inkscape:vp_y="0 : 1000 : 0"
       inkscape:vp_z="1920 : 720 : 1"
       inkscape:persp3d-origin="960 : 480 : 1"
       id="perspective103" />
    <linearGradient
       id="linearGradient4684">
      <stop
         style="stop-color:#14315d;stop-opacity:0.11965812;"
         offset="0"
         id="stop4686" />
      <stop
         id="stop4692"
         offset="0.5"
         style="stop-color:#183b6f;stop-opacity:0.84615386;" />
      <stop
         style="stop-color:#0a192f;stop-opacity:1;"
         offset="1"
         id="stop4688" />
    </linearGradient>
    <linearGradient
       id="linearGradient3312">
      <stop
         style="stop-color:#1295dc;stop-opacity:0.72500002;"
         offset="0"
         id="stop3314" />
      <stop
         id="stop3316"
         offset="0.5013541"
         style="stop-color:#317da8;stop-opacity:0.36078432;" />
      <stop
         style="stop-color:#424242;stop-opacity:0;"
         offset="1"
         id="stop3318" />
    </linearGradient>
    <linearGradient
       id="linearGradient24059">
      <stop
         id="stop24061"
         offset="0"
         style="stop-color:#2257bb;stop-opacity:0.05490196;" />
      <stop
         style="stop-color:#0f2e63;stop-opacity:0.90833336;"
         offset="0.5"
         id="stop3275" />
      <stop
         id="stop24063"
         offset="1"
         style="stop-color:#000e1d;stop-opacity:0.94166666;" />
    </linearGradient>
    <linearGradient
       id="linearGradient23918">
      <stop
         id="stop23920"
         offset="0"
         style="stop-color:#227cfb;stop-opacity:1;" />
      <stop
         id="stop23922"
         offset="1"
         style="stop-color:#1d375e;stop-opacity:0;" />
    </linearGradient>
    <radialGradient
       inkscape:collect="always"
       xlink:href="#linearGradient8317"
       id="radialGradient8323"
       cx="639.06641"
       cy="693.73016"
       fx="639.06641"
       fy="693.73016"
       r="650"
       gradientTransform="matrix(2.2830854,-0.00615382,0.00416981,1.5470106,-739.16668,-485.9068)"
       gradientUnits="userSpaceOnUse" />
    <filter
       inkscape:collect="always"
       id="filter8327"
       x="-0.36"
       width="1.72"
       y="-0.36"
       height="1.72">
      <feGaussianBlur
         inkscape:collect="always"
         stdDeviation="127.27922"
         id="feGaussianBlur8329" />
    </filter>
    <filter
       inkscape:collect="always"
       id="filter59939">
      <feGaussianBlur
         inkscape:collect="always"
         stdDeviation="33.509544"
         id="feGaussianBlur59941" />
    </filter>
    <radialGradient
       inkscape:collect="always"
       xlink:href="#linearGradient59947"
       id="radialGradient59953"
       cx="960"
       cy="600"
       fx="960"
       fy="600"
       r="960"
       gradientTransform="matrix(2.325,0,0,1.441763,-1272,-265.0578)"
       gradientUnits="userSpaceOnUse" />
    <filter
       inkscape:collect="always"
       id="filter59955">
      <feGaussianBlur
         inkscape:collect="always"
         stdDeviation="40.211453"
         id="feGaussianBlur59957" />
    </filter>
    <radialGradient
       inkscape:collect="always"
       xlink:href="#linearGradient3822"
       id="radialGradient3828"
       gradientUnits="userSpaceOnUse"
       gradientTransform="matrix(1.8069298,0,0,1.3093538,-750.87993,-450.06651)"
       cx="971.88873"
       cy="979.414"
       fx="971.88873"
       fy="979.414"
       r="960" />
    <filter
       inkscape:collect="always"
       id="filter3832"
       x="-0.0975"
       width="1.195"
       y="-0.156"
       height="1.312">
      <feGaussianBlur
         inkscape:collect="always"
         stdDeviation="78"
         id="feGaussianBlur3834" />
    </filter>
  </defs>
  <metadata
     id="metadata7">
    <rdf:RDF>
      <cc:Work
         rdf:about="">
        <dc:format>image/svg+xml</dc:format>
        <dc:type
           rdf:resource="http://purl.org/dc/dcmitype/StillImage" />
        <dc:title></dc:title>
      </cc:Work>
    </rdf:RDF>
  </metadata>
  <g
     inkscape:groupmode="layer"
     id="layer1"
     inkscape:label="Sky">
    <rect
       style="fill:#19355c;fill-opacity:1;fill-rule:nonzero;stroke:none"
       id="rect7446"
       width="1920"
       height="1200"
       x="0"
       y="0" />
    <path
       inkscape:connector-curvature="0"
       id="path59919"
       d="m 254.7043,264.25333 c -0.4189,3.1267 -0.7214,6.3074 -0.875,9.5 0.829,-2.979 1.1729,-6.1304 0.875,-9.5 z m -0.875,9.5 c -7.8242,28.1158 -59.8525,39.9348 -43.6875,56.1875 -38.453,29.5345 -34.4023,92.6103 -70.3125,125.0313 -23.3879,42.4761 65.5482,78.92211 5.3125,106.81249 -46.860099,-9.0585 2.4638,36.94246 -20.3125,53.4375 6.6218,23.73577 -16.4173,40.2589 -32.187499,57.0625 -13.0439,13.89864 -21.1189,28.00508 -3.3438,46.53125 C 125.9988,669.43491 198.84,742.3677 134.173,763.37837 75.655801,779.83602 63.768701,898.04489 17.329301,898.69087 c -15.6394003,-23.18569 -68.9959,-79.81115 -77.0313,-50.125 51.4211997,40.79826 -52.746301,89.70391 23.2188,104.3125 58.2119,5.41726 22.6691,41.98875 59.3125,62.37503 10.4839,32.8767 -20.1348003,34.0632 -40.9375,36.125 9.1142997,9.8674 -8.789,10.6325 -4.8438,0.5312 -13.1962,1.6957 -19.5926,5.1054 -1.6562,21.4375 -36.4867,-24.7542 -23.2761,10.8482 -15,27.1563 -28.4923,8.2229 -45.9194,-79.0514 -62.531201,-16.1875 -8.9892,18.2609 -3.5953,126.3201 21.718701,56.0937 21.4643,-7.0864 0.015,44.4805 36.6875,24.8438 -6.7826,33.883 1.3451,63.0474 9.8125,58.7187 -0.119,33.5446 59.0994,-59.6466 5.7813,-53 13.205,-32.6104 36.7696997,-35.7188 58,-25.8437 0.3902,-0.1681 0.7375,-0.329 1.1562,-0.5 1.2482,0.946 2.2473,1.834 3.0625,2.6562 35.4773,19.6324 61.7939,73.6164 16.6563,80.8125 -14.7727,-17.9087 -39.1515,-41.1265 -16.9688,-5.1875 -3.4553,2.4444 -5.8266,4.8304 -7.3438,7.125 3.5451,2.8377 1.4069,4.8313 -2.125,5.7188 -1.7242,20.5587 59.4304,33.4586 5.7188,32.7187 -23.9605003,-5.2654 -125.9972,7.9516 -89.75,17.3438 91.0584,-11.0757 32.8728,82.4739 16.5312,130.75 -59.859301,33.3826 -4.4703,-87.1819 -33.5312,-34.4688 -18.6871,-37.6626 -52.106901,-79.9778 -88.312501,-36.875 -23.787,-17.435 -12.7615,-129.0488 -50.2501,-84.8125 -17.7173,65.6859 81.43,116.7279 33.0001,182.0625 -10.7091,-29.0326 -56.8397,-54.5917 -82.0001,-49.1562 5.119,3.8837 -6.43,5.4493 -8.4063,3.5937 -8.8351,6.3971 -11.5855,20.2738 -2.5,44.4688 2.6511,27.0584 61.9439,26.1594 14.4376,50.75 -30.1758,13.4799 32.816,1.75 -3.0938,24.9687 -18.2263,66.6668 56.8851,-87.0507 98.0626,-21.7187 4.5339,24.3905 -22.3184,95.1233 23.75,49.2812 27.2801,-42.269 123.091201,-27.6661 72.125001,29.1875 47.4559,-4.1062 69.34769971,17.5497 40.5937,55.5938 20.4494997,-29.8222 83.1713,-17.3704 36.0312997,8.6562 -3.8023,-0.4976 -7.40729999,-0.6131 -10.8125,-0.4062 -3.2274,5.7932 -9.1255997,5.4626 -13.3124997,2.75 -16.2967,6.0541 -24.63,20.6851 -21.4687,33.0312 4.1203,0.9665 3.6052,2.6095 1.5,4.0313 4.1892,8.4962 14.6359,15.1552 32.6561997,15.8125 33.8251003,30.1605 -79.1320997,40.9783 -52.4999997,-13.875 -11.2099,-12.3276 -36.574,43.0588 -67.593801,17.7812 -0.9858,0.2281 -1.9995,0.3827 -3,0.5313 1.1466,4.3646 -14.4001,5.6643 -11.75,0.1562 -42.5258,-4.4959 -94.4441,-57.21 -131.7188,2.3125 -52.5209,54.2109 51.7697,138.3725 59,50.8438 2.2597,-4.5614 4.6402,-8.2269 7.1251,-11.125 -7.1931,0.5529 -17.4321,-2.5374 -1.4687,-8.0313 3.0496,1.4796 4.895,2.7259 5.875,3.7813 39.5025,-30.8296 102.340901,103.9857 152.687401,45.0312 40.0667997,-3.3527 57.5340997,-29.6745 86.4376,-14.125 -12.4378,20.7237 -8.392,27.3198 15.8124,7.1563 10.1922,-44.5243 72.587899,-45.745 47.624999,-0.6563 0.9448,0.804 1.9071,1.58 2.9063,2.3438 0.2514,-0.4049 0.5267,-0.8266 0.8125,-1.25 7.4971,3.4177 10.9676,6.6059 11.9688,9.25 37.9463,19.4956 91.4324,14.5444 58.625,-35.875 73.3132,-31.8508 123.6848,81.4875 198.2812,37.9687 11.2196,-8.5112 22.5253,-16.4177 34.0312,-23.4375 -0.013,-1.7949 1.6862,-4.2594 6.3126,-7.4375 1.1511,0.7175 2.0805,1.4128 2.9062,2.0625 39.9434,-22.4655 82.606,-33.7381 132.5938,-23.0625 47.7687,3.6989 96.5477,15.4299 137.1249,41.4688 0.2544,-0.2411 0.4719,-0.4673 0.75,-0.7188 6.3175,2.15 8.0665,4.408 7.5312,6.2813 3.9893,2.8394 7.8895,5.82 11.6875,8.9687 -32.2448,-91.9151 94.2328,33.3759 113.7813,-34.8125 19.4277,-26.7867 73.2763,-58.2189 17.4062,-24.4687 -28.5862,-4.6861 -82.4455,8.2743 -72.1875,-5.25 -31.4516,-39.6781 -129.1613,14.0297 -131.125,-39.7813 58.1375,-11.3468 116.8188,-26.0092 167.9063,-57.4375 -78.1775,11.0161 -158.4972,71.3055 -236.9376,28.375 -50.4807,-23.3371 -190.0957,-51.9656 -151.3436,-108.2187 35.7259,46.7613 165.3889,62.4895 150.9999,-9.4688 -47.2351,55.4472 -160.1073,30.3363 -155.2499,-52.7187 18.0948,-9.9106 43.6142,28.7496 75.4375,6.8125 24.339,22.7825 -10.4008,-43.5862 34.9062,-30.0938 70.4283,9.3665 -22.1203,-121.2509 52.1249,-100.1875 7.7363,31.1822 66.582,98.1331 41.3126,27.0313 -18.0984,-45.8661 -136.6548,-73.6874 -112.6562,-109.6563 57.4677,9.6859 109.5164,65.1478 163.7187,63.9688 -21.6079,-17.5577 -43.0482,-35.911 -64.7188,-54.5625 -2.006,0.1519 -3.7705,-0.867 -4.5,-3.875 -11.7912,-10.1541 -23.6497,-20.3667 -35.6874,-30.625 -2.5966,0.051 -5.0275,-1.2496 -5.5312,-4.7188 -16.26,-13.803 -32.847,-27.628 -49.9063,-41.2812 -44.6383,-28.5707 -137.5946,-20.6661 -93.6563,-99.1875 15.0392,-42.7415 59.0654,-30.9629 68.9688,-26.4688 16.8486,-30.9886 32.1808,64.131 26.8438,81.875 42.0002,56.3391 47.7809,-26.9813 46.3437,-50.5312 11.0019,29.7612 20.6166,29.709 25.4374,18.4375 0.8404,-0.4929 1.4122,-1.1307 0.5625,-1.4063 7.5983,-20.8535 0.6787,-72.4866 -37.9686,-60.6562 -39.593,-23.5463 2.8072,-81.11707 17.2187,-48.3125 26.0717,16.3192 45.4084,-13.5098 46.1874,-2 -0.2773,-31.02523 5.6726,-27.4555 30.5313,-18.3125 -50.0712,28.3301 7.5023,22.2368 26.5937,28.8437 -29.4194,18.9178 54.7122,85.8918 20.3125,18.9688 -26.0368,-34.382 -1.4609,-83.41966 15.0313,-98.53128 -22.5954,-21.71315 -120.7122,-44.80283 -41.375,-62.0625 -0.5427,-48.74791 118.9108,-34.65483 104.3437,-95.09375 -43.7016,8.33437 -80.6219,91.46419 -140.375,45.90625 -42.4181,-31.06153 18.5575,-58.55369 -17.9375,-85.59375 17.677,-33.18468 39.7452,-63.59348 67.4688,-14 27.9318,24.14745 -25.0444,-56.76081 -13.3125,-78.6875 -6.0225,-50.37226 -95.0356,-68.09455 -89.4063,-112.34375 34.3103,6.86966 41.0806,-67.58179 41.1563,-72.84379 -47.202,2.48 -116.3295,-58.9863 -127.5,18 -23.1386,-2.0166 -41.7489,-62.1213 -7.7187,-30.7187 37.9537,-34.2595 -13.9775,-95.8597 -27.0625,-31.5938 -15.0658,41.5782 -99.7164,44.2108 -67.9375,-13.4375 9.3158,8.2092 18.0623,-0.5278 26.0625,-8.9687 -1.9356,-2.6888 -2.9192,-7.3862 -1.9062,-14.8438 7.5423,0.4423 12.3071,1.9081 15.0624,3.8125 4.7142,-1.5319 9.0441,1.5054 12.9688,14.1563 2.3584,-84.9402 -88.8532,-2.2385 -81.5312,-14.4375 34.8131,-23.8237 24.6088,-130.7907 -10.4376,-109.9063 1.0373,43.4881 -58.9726,27.0275 -78.5624,17.7188 -4.8831,-10.1437 -6.1948,-21.5297 -5.6563,-32.7188 z m 351.1874,746.68757 c 0.01,0.6418 -0.011,1.2031 0,1.875 0.047,-0.7378 0.037,-1.3312 0,-1.875 z M 353.2356,326.25333 c 0.3634,0.01 0.7614,0.04 1.1874,0.094 5.5458,19.4444 -12.4531,-0.3962 -1.1874,-0.094 z m -20.8438,28.4688 c 8.0916,25.2823 -13.3888,9.0949 0,0 z m 12.4375,8.0937 c 9.3111,13.8356 -17.8617,6.0329 0,0 z m -43.3125,11.9375 c 2.5052,4.7612 -4.4639,-0.2092 0,0 z m -0.5938,6.875 c 14.7952,4.0816 -15.1597,9.6423 0,0 z m -97.4374,6.4688 c 18.6955,28.7812 -33.5932,10.9137 0,0 z m 257.0312,28.3125 c 10.8001,1.5945 -5.8264,7.5362 0,0 z m 17.3438,2.2187 c 21.7516,10.8285 -15.8576,6.1186 0,0 z m -38.125,46.75 c 20.9156,20.8968 -24.5733,19.2923 0,0 z m 8.0624,18.125 c 0.6342,-0.032 1.657,0.6432 3.1563,2.5938 -2.8131,6.748 -5.4212,-2.4811 -3.1563,-2.5938 z m 20.0313,8.9688 c 0.1932,0 0.4373,0.015 0.7187,0.062 2.8068,4.1519 -3.6167,-0.1376 -0.7187,-0.062 z m -60.1875,2.3125 c 0.3757,0.056 0.9124,0.2533 1.6562,0.625 1.0717,5.0677 -4.2862,-1.0183 -1.6562,-0.625 z m -209.5,1.9687 c 2.7758,-0.2001 0.2822,8.4802 -2.8125,1.8438 1.2605,-1.2912 2.1719,-1.7976 2.8125,-1.8438 z m 244,3.5 c 6.4827,0.2987 -3.9986,2.8655 0,0 z m 19.4688,10.3438 c 46.008,20.42921 -24.7536,32.68585 0,0 z m 89.7812,14.74999 c 12.4728,6.79715 -22.2014,12.65126 0,0 z m -10.7188,3.1875 c 5.4354,12.43682 -17.9366,15.26618 0,0 z m -267.4374,2.59375 c 6.1071,0.63559 -3.0357,2.87859 0,0 z m -48.125,3.9375 c 6.5942,2.64682 -5.857,6.61872 0,0 z m 295.0624,7.8125 c 12.7991,2.00223 -1.8258,8.83292 0,0 z m -300.0624,3.5625 c 7.6107,0.39871 -0.4617,16.12234 -7.9688,2.71875 3.6273,-2.0865 6.2124,-2.81076 7.9688,-2.71875 z m 330.8124,18.5625 c 8.8018,1.97645 -8.2895,3.75416 0,0 z m -36.3124,0.46875 c 10.0978,0.73534 -5.539,8.23091 0,0 z m -311.1563,0.5 c 6.1288,-0.23752 -2.9917,11.295 -6.9375,2.4375 3.2883,-1.70407 5.5232,-2.38269 6.9375,-2.4375 z m 102.25,0.0625 c 14.2333,25.53083 -28.7829,3.98566 0,0 z m 184.9687,0.125 c 16.2736,13.37816 -11.902,6.33444 0,0 z m -171.1562,2.03125 c 8.3602,8.60875 -11.5479,0.48555 0,0 z m 215.5,10.09375 c 23.408,3.46616 -14.9605,17.93757 0,0 z m -200.9375,6.40625 c 17.3458,28.29232 -31.7421,2.51738 0,0 z m 166.5313,1.0625 c 0.8242,0.002 2.2958,0.49756 4.6874,1.78125 5.5917,12.9371 -9.1386,-1.79312 -4.6874,-1.78125 z m -305.6563,3.28125 c 0.8633,-0.0212 1.7807,-0.008 2.7813,0.0312 7.8481,29.03665 -29.5432,0.62462 -2.7813,-0.0312 z m 288.4687,3.5625 c 0.4572,52.10396 -29.7973,33.47577 0,0 z m -183,3.75 c 22.1621,12.38844 -19.943,14.44809 0,0 z m 194.4376,3.65625 c 7.1911,0.87317 -6.2059,4.81485 0,0 z m 101.4686,3.78125 c 16.9366,49.75822 -57.0787,2.5227 0,0 z m -57.5936,1.03125 c 20.9201,18.77825 -19.9309,18.56511 0,0 z m -220.375,2.25 c 36.2895,48.00392 -36.3289,54.14009 0,0 z m 237.2812,10.15625 c 3.2689,2.56736 -4.7936,0.56085 0,0 z m -33.8125,1.34375 c 24.4234,9.01696 18.5756,18.91768 8.2813,25.9375 -0.28,1.02011 -0.5996,2.02503 -1,2.96875 -4.7014,1.43721 -8.1102,2.5047 -10.9376,3.4375 -8.2429,3.58136 -12.7927,4.2205 0,0 3.7286,-1.61998 8.1219,-3.80431 11.9376,-6.40625 2.5178,-9.17517 0.1126,-20.91921 -8.2813,-25.9375 z m 110.3124,8 c 1.8092,0.13052 -2.6529,6.39987 -3.2187,1.71875 1.7128,-1.29855 2.7122,-1.7553 3.2187,-1.71875 z m -66.25,7.375 c 18.5934,10.11659 -3.8547,12.51881 0,0 z m -123.5311,7.125 c 8.4786,1.87301 -6.5139,8.37232 0,0 z m 49.5937,3.5625 c 14.0049,3.77245 -7.3081,10.27131 0,0 z m -96.8125,4.65625 c 35.1446,18.54697 -25.7719,40.75748 0,0 z m 207.9374,2.0625 c 37.9272,12.20279 -36.1455,3.58641 0,0 z m -124.0312,2.0625 c 12.1196,8.9214 -13.8223,5.71472 0,0 z m 74.7813,3.90625 c 0.3549,0.0711 0.5144,0.73157 0.125,2.46875 -4.1077,2.44404 -1.1896,-2.68215 -0.125,-2.46875 z m -344.5625,9.84375 c 10.2591,2.62384 -8.2825,7.58283 0,0 z m 341.9688,6.1875 c 1.4433,-0.0212 2.9856,0.0698 4.6562,0.3125 47.5231,22.95223 -16.9872,133.21258 -18.2188,43.6875 -4.947,-15.09207 -8.0877,-43.68248 13.5626,-44 z m 50.4999,5.125 c 9.5268,0.1043 -5.8748,16.2399 -2.25,0.21875 0.8697,-0.14971 1.6148,-0.2257 2.25,-0.21875 z m -131.5937,0.78125 c 8.0734,2.87177 -9.3433,6.55246 0,0 z m 153.6874,3.34375 c 5.9631,-0.0961 5.0681,19.36312 -2.9687,1.40625 1.1313,-0.97791 2.1169,-1.39252 2.9687,-1.40625 z m -531.156199,7.5625 c 5.2657,5.31227 -8.2785,1.52145 0,0 z m 22.093799,1.90625 c 8.4163,-0.64635 -10.2581,14.27432 -3.5312,0.75 1.5088,-0.44875 2.6605,-0.68314 3.5312,-0.75 z m 470.6561,1.0625 c 23.2034,8.72585 5.6364,30.02209 0,0 z m 28.1876,7.3125 c 0.3126,10e-4 0.7589,0.0959 1.4062,0.3125 1.4268,4.03322 -3.5945,-0.32229 -1.4062,-0.3125 z m -138.9999,0.625 c 39.8138,-0.11446 47.7881,58.74072 38.4687,86.4375 5.6008,3.6674 1.53,5.86323 -2.6563,6.1875 -6.9328,12.58569 -19.162,12.48096 -33.9687,-17.40625 0.5281,-24.85955 8.647,-52.62882 -6.75,-74.90625 1.6843,-0.19666 3.3234,-0.30795 4.9063,-0.3125 z m 35.8124,92.625 c 0.9981,-1.81174 1.8864,-3.89951 2.6563,-6.1875 -0.5279,-0.3457 -1.1039,-0.69056 -1.8125,-1.0625 -10.8801,5.41055 -5.8077,7.63451 -0.8438,7.25 z M 175.8606,702.40962 c 0.768,0.0178 1.6585,0.10743 2.7187,0.28125 5.2314,15.16821 -14.2397,-0.54903 -2.7187,-0.28125 z m 386.625,14.59375 c -10.5599,15.01712 18.1971,0.69232 0,0 z m -352.1563,3.84375 c 1.0441,-0.45923 0.5613,4.56831 -0.9687,1.375 0.41,-0.85689 0.7278,-1.26902 0.9687,-1.375 z m 286.6563,2.09375 c -25.4082,15.08971 25.5443,15.6732 0,0 z m 33.4062,9.5625 c 1.8094,0.0598 -3.2496,3.49693 -1.25,0.21875 0.5788,-0.15833 0.9915,-0.22729 1.25,-0.21875 z m -243.25,1.84375 c 25.5651,21.37675 -5.7696,41.6252 0,0 z m -92.0938,22 c 7.6368,5.28367 -8.7707,3.86614 0,0 z m 61.625,4.71875 c 18.9728,3.9366 -8.1664,12.28342 0,0 z m -53.3124,0.9375 c 8.9075,29.08603 -12.6168,10.25782 0,0 z m 141.2812,5.625 c 19.0067,7.05499 -5.1564,15.93695 0,0 z m -112.625,1.25 c 14.0258,6.05365 -8.7963,3.69325 0,0 z m -47.5,2.75 c 4.4022,3.99886 -6.6406,0.88211 0,0 z m -62.4062,0.625 c 4.0956,-0.14201 5.981,1.08582 -4.375,2.3125 l -4.5313,3.5625 c -1.5067,-4.23292 4.8106,-5.73299 8.9063,-5.875 z m 36.8124,5.21875 c 9.1009,12.28488 -19.0407,4.90701 0,0 z m 142.5313,3.90625 c 32.1601,18.12596 -22.503,32.7272 0,0 z m 97.4687,8.25 c 16.5042,15.54525 -16.2802,8.78237 0,0 z m -28.125,1.125 c 20.6344,26.3988 -10.2774,58.97823 0,0 z m -246.2812,0.46875 c 0.278,63.54489 -58.649299,29.1615 -5.125,3.875 l 5.125,-3.875 z m 89,1.5 c 13.3115,62.97006 -66.6213,30.93675 0,0 z m 372.8749,1.53125 c 10.3116,2.97464 -3.7493,7.41183 0,0 z m -328.6874,0.4375 c 39.9241,18.82266 -18.2212,39.69188 -9.625,15.125 -2.087,-0.45488 -4.4248,-2.50699 0.3125,-3.8125 0.3393,0.38283 0.6134,0.71204 0.8438,1.03125 1.6486,-3.39256 4.3666,-7.46587 8.4687,-12.34375 z m -90.5,1.1875 c 16.2406,50.89263 -77.891099,43.14198 -16.4063,8.625 0.4651,-0.3182 0.9607,-0.60813 1.4376,-0.90625 0.7317,-0.98357 2.121,-2.21619 4.4062,-3.75 0.5687,0.15893 1.0831,0.3089 1.5625,0.46875 3.0044,-1.47686 6.0638,-2.84766 9,-4.4375 z m -9,4.4375 c -2.0417,1.0036 -4.0436,2.07762 -5.9687,3.28125 -4.959,6.66569 20.537,1.57683 5.9687,-3.28125 z m 86.25,-2.125 c 0.3383,0.056 0.837,0.39694 1.5313,1.1875 -1.4715,3.6174 -2.9973,-1.43024 -1.5313,-1.1875 z m 303.5625,0.25 c 1.7945,0.044 4.3197,0.46828 7.7812,1.40625 3.3966,16.16222 -20.3426,-1.71397 -7.7812,-1.40625 z m -75.75,3.96875 c 14.5234,3.25485 -6.188,13.25157 0,0 z m -72.9375,6.21875 c 20.68,27.12257 -22.4192,32.73553 0,0 z m 173.9999,1.09375 c 47.5288,49.64937 -81.436,17.11577 -7.8437,0.84375 l 7.8437,-0.84375 z m -41.3124,0.21875 c 23.1879,10.11953 -19.9633,1.87231 0,0 z m -249.1875,4.625 c 7.5403,10.15634 -17.199,1.1431 0,0 z m 234.0313,1.125 c 8.2119,3.88515 -6.5232,3.86725 0,0 z m 31.8437,4.4375 c -14.1957,15.66384 20.7086,2.42925 0,0 z m -318.1563,5.125 c 8.0098,13.05557 -6.6225,8.93391 0,0 z m -65.6874,2.03125 c 7.0607,20.73461 -15.5077,1.47978 0,0 z m 92.375,0.5625 c 4.5302,4.75463 -7.3509,1.01134 0,0 z m 90.5,0.9375 c 7.3181,20.16797 -7.8749,24.81094 0,0 z m -75.6876,5.15625 c 52.7455,12.35839 17.6378,53.26102 0,0 z m 39.4063,7.1875 c 14.4224,5.08567 -7.863,12.38065 0,0 z m -10.9687,0.125 c 0.2748,-0.0197 0.6029,-0.0151 1,0 3.647,4.13529 -5.1234,0.29535 -1,0 z m 85.0624,4.03125 c 27.9919,24.24024 -33.9445,5.94449 0,0 z m -269.7812,0.53125 c 6.3226,2.34169 -6.636,2.53204 0,0 z m 98.375,1.75 c 51.071,0.13481 -55.1199,54.38157 -21.2188,1.875 8.9786,-1.32227 15.9356,-1.88895 21.2188,-1.875 z m -51.0312,4.71875 c 31.9822,47.4466 -58.1492,15.53392 0,0 z m 243.6874,3.59375 c 5.7196,2.36696 -4.0032,2.72427 0,0 z m -273.875,0.53125 c 28.2157,59.32897 -79.547599,62.93637 -28.2812,12.59375 10.6274,2.9018 31.8492,6.1605 28.2812,-12.59375 z m 119.7188,4.5625 c 15.6075,0.83353 -3.8039,22.99997 0,0 z m -285.343799,0.125 c 6.1618,0.0466 -2.5744,3.60182 0,0 z m 348.812599,6.53125 c 10.2062,6.05639 -8.4957,8.78157 0,0 z m 76.125,6.96875 c 17.8176,37.77431 -6.5964,37.29918 0,0 z m -322.624999,2.875 c 10.2916,13.78894 -18.4698,5.73918 0,0 z m 127.999999,4.46875 c 9.4881,21.53522 -23.2584,13.22437 0,0 z m 86.7812,2 c 2.466,0.0424 -2.606,3.64814 -1.5625,0.21875 0.6996,-0.1709 1.2102,-0.2248 1.5625,-0.21875 z m 64,2.75 c 7.7573,3.73801 -6.5435,6.66179 0,0 z m -200,3.78125 c 0.735,0.0196 1.6194,0.10959 2.6562,0.28125 7.2539,14.71994 -13.6814,-0.57513 -2.6562,-0.28125 z m -93.031199,1.5625 c 13.9919,22.56919 -26.2321,3.95548 0,0 z m 63.781199,0 c -19.868599,10.66855 19.4821,8.33179 0,0 z m 142.4375,2.71875 c 9.7047,12.4734 -11.0996,5.33208 0,0 z m -31.3125,1.03125 c 30.5945,43.17076 -56.211,14.38289 0,0 z m -248.187499,1.90625 c 46.2019,16.92461 -45.4504,14.388 -2.25,0.53125 l 2.25,-0.53125 z m 298.593699,1.375 c 13.2031,7.80449 -10.7677,7.80953 0,0 z m -212.812399,2.65625 c 65.341199,21.32659 -34.2195,39.8675 0,0 z m 224.968699,2.5625 c 62.9506,40.04776 -41.856,44.56816 0,0 z m -127.9063,1.09375 c 17.0081,16.09833 -9.195,12.60164 0,0 z m -18.6562,2.21875 c 0.6585,-0.005 1.3284,0.0154 2.0312,0.0312 1.8613,41.30474 -43.5191,0.29548 -2.0312,-0.0312 z m 282.75,1.9375 c 5.8947,5.98957 9.3674,11.56551 11.125,16.53125 -0.192,-2.80359 0.094,-6.48374 1.1875,-11.28125 17.8228,9.96991 4.535,24.24337 0.062,16.3125 0.8993,6.60732 -1.3842,11.76186 -4.7812,14.84375 9.8484,3.77153 -11.5772,12.16708 -7.6563,3.21875 -8.3412,0.0758 -15.1955,-11.13597 0.062,-39.625 z m -0.062,39.625 c 2.6167,-0.0238 5.381,-1.15455 7.6563,-3.21875 -1.149,-0.44 -2.7218,-0.81481 -4.8126,-1.09375 -1.4469,1.75536 -2.3428,3.16938 -2.8437,4.3125 z m -222.6563,-39.5625 c 0.4008,-0.0244 0.8749,-0.0157 1.4063,0.0625 0.5225,11.12217 -7.4182,0.30385 -1.4063,-0.0625 z m 169.2813,0.4375 c 39.6744,35.80188 -15.1427,47.42861 0,0 z m -200.9375,5.59375 c 0.5118,-0.004 1.1774,0.0867 2.0312,0.28125 2.6638,7.84848 -6.9783,-0.24151 -2.0312,-0.28125 z m -17,1.34375 c 1.561,-0.20448 -1.3118,5.01906 -1.875,1.1875 0.9148,-0.80319 1.5148,-1.14031 1.875,-1.1875 z m -169.187499,1.90625 c 106.5577,29.19683 -77.3446,33.94579 0,0 z m 203.999999,6.25 c 13.6287,1.17378 -7.3248,9.0602 0,0 z m 71.1875,1.03125 c 5.7841,6.20563 -8.1597,0.0394 0,0 z m -103.4375,0.65625 c 9.0932,5.37391 -10.9498,1.93925 0,0 z m 50.1875,2.375 c 25.998,16.93767 30.5878,76.76753 -6.1875,32.375 -7.2195,-8.73716 -12.258,-32.75509 6.1875,-32.375 z m -151.468799,6.125 c 20.8006,0.0123 -10.5613,30.52033 -12.3437,2.125 5.339,-1.50348 9.3722,-2.12676 12.3437,-2.125 z m 111.281299,11.0625 c 1.5189,0.18209 -3.0392,4.42465 -1.0625,0.21875 0.5017,-0.1756 0.8455,-0.24476 1.0625,-0.21875 z m 105.25,5.03125 c -24.5111,46.96022 28.694,16.623 23.2813,10.9375 3.6951,3.46651 6.6343,6.74325 8.9687,9.8125 0.097,-0.0931 0.1823,-0.18752 0.2813,-0.28125 10.5365,9.18378 10.2841,15.22974 6.6874,18.09375 -2.3965,33.28688 -112.3494,20.35188 -41.6874,-36.71875 l 2.4687,-1.84375 z m 39.2187,38.5625 c 0.3547,-4.92608 -1.6767,-10.85472 -6.9687,-17.8125 -18.097,17.38986 0.2606,23.15419 6.9687,17.8125 z m -122.4374,-38.5 c 6.8064,11.39483 -5.5396,23.66812 0,0 z m 300.4374,3.5 c 8.2838,16.6861 -14.2582,0.31238 0,0 z m -324.125,0.90625 c 4.2926,-0.61803 -3.2618,10.67325 -3.7187,1.78125 1.7282,-1.13427 2.9238,-1.6668 3.7187,-1.78125 z m 206.9688,1.375 c 4.2882,0.97993 -4.2085,2.61744 0,0 z m 301.9374,6.6875 c 16.8023,0.22065 -9.5132,14.10041 0,0 z m -630.218599,0.25 c 2.0932,-0.0775 4.5683,0.0413 7.4374,0.375 12.2204,43.91603 -38.8357,0.78769 -7.4374,-0.375 z m 195.906199,4.53125 c 15.7237,10.54485 -12.909,25.36081 0.2188,3.1875 l -0.2188,-3.1875 z m -220.781199,0.0937 c 1.5866,0.0516 3.8312,0.60074 6.875,1.875 2.6853,22.23658 -17.9816,-2.23622 -6.875,-1.875 z m 53,0.3125 c 1.2811,-0.0105 -2.3622,4.78518 -1.7813,0.9375 0.9334,-0.68006 1.4856,-0.93508 1.7813,-0.9375 z m 381.593699,0.0625 c 0.901,0.0196 2.281,0.26297 4.2813,0.8125 6.6466,9.68111 -10.5883,-0.94971 -4.2813,-0.8125 z m -76.4375,0.0937 c 14.9661,20.90581 -13.8876,27.37871 0,0 z m 269.3749,0.59375 c 22.8679,3.49241 0.7284,28.48239 0,0 z m -233.4061,2.4375 c 14.9184,4.18604 -18.0468,11.22419 0,0 z m 144.75,1.21875 c 25.0913,3.73761 6.966,15.81911 0,0 z m -29,1.53125 c 81.796,29.86723 -24.7055,15.45672 0,0 z m -84.25,2.71875 c -0.895,58.65728 -56.8687,24.21008 0,0 z m -358.656299,1.46875 c 6.2526,24.72063 -14.9893,6.89839 0,0 z m 178.656299,0.625 c -23.7998,15.18769 24.6628,9.28808 0,0 z m -188.374999,0.96875 c 0.4015,-8.7e-4 0.8976,0.0202 1.4687,0.0625 4.4295,4.37997 -7.4925,-0.0494 -1.4687,-0.0625 z m -4.1876,0.84375 c 2.7859,0.51035 -3.2442,0.14231 0,0 z m 48.562599,3.53125 c 3.4538,0.76842 -2.9955,1.06088 0,0 z m -44.374999,1.78125 c 3.1987,0.22832 -3.6305,6.02045 -2.0313,0.28125 0.9204,-0.24489 1.5743,-0.31387 2.0313,-0.28125 z m 28.968699,2.375 c 1.6228,-0.30501 2.2433,8.76442 -1.5313,3 0.5352,-2.08465 1.0769,-2.9146 1.5313,-3 z m -9.281299,1.625 c 0.3294,-0.0524 0.824999,-0.024 1.531299,0.0937 1.9624,4.02467 -3.836399,0.27304 -1.531299,-0.0937 z m 560.124999,0.40625 c 19.7603,7.46789 -10.2743,5.96991 0,0 z m -567.593699,2 c 6.268,1.75581 -5.7528,3.95905 0,0 z m 423.312499,0.25 c 10.6366,-0.2173 -6.8111,7.11648 0,0 z m -442.062499,3.96875 c 1.0141,0.12032 -1.8296,4.00473 -1.4063,0.65625 0.7325,-0.50781 1.1723,-0.68402 1.4063,-0.65625 z m -10.625,0.28125 c 6.4522,-0.1815 0.015,12.59588 -6.6875,2.62498 3.0159,-1.86251 5.1985,-2.5831 6.6875,-2.62498 z m 429.281299,6.74998 c 12.1904,5.6715 -10.7972,5.63 0,0 z m -371.0626,0.375 c 3.6491,0.013 -4.3586,4.1105 -0.9062,0.062 0.3536,-0.039 0.663,-0.063 0.9062,-0.062 z m 37.4688,1.75 c 2.06,0.048 -2.1957,8.1507 -2.5625,1.5313 1.2732,-1.1269 2.0871,-1.5425 2.5625,-1.5313 z m 306,0.094 c 35.7451,34.6333 -48.2428,27.5177 0,0 z m -553.031199,3.9688 -0.4376,0.3437 0.4376,-0.3437 z m 601.312399,1.1562 c 10.4734,10.4449 -12.454,26.4154 0,0 z m -446.718699,5.375 c 0.3889,0 0.8442,0.026 1.4063,0.094 5.184,7.0772 -7.2404,-0.071 -1.4063,-0.094 z m 48.843699,2.3438 c 4.4149,-0.3988 -5.8194,7.9767 -1.875,0.4375 0.8021,-0.2563 1.4183,-0.3963 1.875,-0.4375 z m 371.6563,3.8437 c 21.8977,6.0671 2.8337,30.0714 0,0 z m -411.937499,1.125 c 2.1019,-0.084 -1.3088,7.4606 -2.4375,1.5313 1.1671,-1.0918 1.9524,-1.512 2.4375,-1.5313 z m -33.8125,4.7188 c 5.9401,7.9622 -11.5352,5.7973 0,0 z m 20.125,9.0625 c 3.2753,-0.022 7.1019,0.4215 11.5625,1.4375 -10.8585,63.1962 -50.2108,-1.1821 -11.5625,-1.4375 z m 41.374999,23.8437 c 5.9802,0.4897 -4.231799,4.1392 0,0 z m -89.531299,8.0313 c 21.014,27.5455 -26.4935,19.7144 0,0 z m 111.999999,5.625 c 5.4093,5.1389 -6.2084,3.6599 0,0 z m 77.9688,2.9062 c 11.6924,1.5249 -11.681,4.9579 0,0 z m 31.125,0.8438 c 2.857,9.4585 -12.7914,0.2177 0,0 z m 287.8438,0.3125 c 0.3967,0.01 0.8705,0.041 1.4374,0.094 4.6486,4.4394 -7.3886,-0.1914 -1.4374,-0.094 z m -390.4376,0.6562 c 0.4724,-0.025 1.1069,0.063 1.9688,0.3125 -0.034,5.5794 -5.2752,-0.1346 -1.9688,-0.3125 z m -151.843699,14.75 c 2.1866,-0.048 4.7036,0.027 7.5937,0.2188 42.1581,47.9154 -52.0539,0.7595 -7.5937,-0.2188 z m -51.875,3.9063 c 43.2015,0.1629 1.2951,68.7772 -9.8125,0.9375 3.6709,-0.6584 6.9324,-0.9484 9.8125,-0.9375 z m 78.2812997,1.0312 c 22.7053003,2.4113 -9.6334,14.9814 0,0 z m 16.1250003,4.3438 c 31.5823,25.2832 -24.8578003,25.3039 0,0 z m 54,7.8125 c 0.4391,-0.01 0.9606,0.01 1.5937,0.062 5.7148,6.1232 -8.1805,0.021 -1.5937,-0.062 z m -6.3438,6.6562 c 19.752,-0.223 -0.078,16.0468 -4.5,0.2813 1.6849,-0.1759 3.1832,-0.2664 4.5,-0.2813 z m 462.031199,5.8438 c 9.4709,8.1306 -14.9292,4.9125 0,0 z m -319.6562,0.3437 c 1.2917,-0.121 1.9001,7.7454 -1.1875,2.4375 0.4005,-1.7529 0.8258,-2.4036 1.1875,-2.4375 z m 34.6875,0.375 c 0.9036,-0.011 2.0543,0.082 3.5313,0.3125 3.507,9.6595 -12.266,-0.2051 -3.5313,-0.3125 z m -88.6563,0.2188 c 8.6593,0.019 -3.3795,14.8935 -9.625,2.875 4.5288,-2.0908 7.6268,-2.8794 9.625,-2.875 z m -62.687399,1.125 c 0.6811,-0.017 1.4193,0 2.2187,0.031 10.725299,21.7239 -23.3356,0.4939 -2.2187,-0.031 z m 121.843699,2.8125 c 2.4631,0.038 0.1904,1.5291 -1.0937,1.75 15.2628,4.729 -2.1413,13.6018 -0.9063,-0.2813 0.068,0.019 0.1206,0.044 0.1875,0.062 -0.062,-0.2507 0.1443,-0.719 0.8438,-1.5 0.3839,-0.033 0.7026,-0.035 0.9687,-0.031 z m 94.8437,3.2812 c 3.9412,1.6374 -3.737,1.77 0,0 z m -46.9062,2.0938 c 1.3171,0.2734 -3.156,5.7948 -1.9688,0.8437 1.0629,-0.6888 1.6649,-0.9069 1.9688,-0.8437 z m -130.2812,0.9687 c 50.5268,1.4454 24.1056,53.4962 0,0 z m 152.9687,0.125 c 0.9767,10e-4 2.3829,0.1596 4.3125,0.5313 2.7072,6.9564 -11.1495,-0.5411 -4.3125,-0.5313 z m 243.4375,1.5938 c 6.0693,4.4414 -7.4153,5.9603 0,0 z m -225.1875,1.3125 c 6.4378,1.6929 -5.8752,3.4217 0,0 z m -326.093699,0.5 c 8.276,11.9013 -11.2357,1.7425 0,0 z m 200.031199,6.3125 c 12.313,27.6764 -9.7967,9.7611 0,0 z m 28.0312,1.0312 c 10.7358,0.097 -3.1329,17.892 -2.5,0.2188 0.9459,-0.1668 1.7843,-0.2252 2.5,-0.2188 z m -13.4062,7.125 c 10.4506,1.2421 -3.6166,7.1367 0,0 z m -92.5625,0.8438 c 39.0801,19.3043 156.7745,35.2817 120.0313,95.8437 -6.1608,-29.5768 -31.2852,-27.5347 -52.4376,-16 5.6908,4.7545 -3.6709,6.8275 -9.125,5.75 -12.1923,8.6967 -21.4959,19.7977 -22.2187,27.9063 -19.3569,-2.8487 -40.057999,-17.4062 -50.562499,-34.3125 -3.4236,1.6399 -10.0149,1.3959 -4.7188,-5.125 0.797,0.1427 1.4923,0.2787 2.125,0.4375 -8.4324,-17.0334 -5.9129,-35.5199 18.687599,-46.4688 1.7085,-9.4579 -1.7288,-18.6237 -1.7813,-28.0312 z m 58.4687,85.5937 c 2.9043,-2.0715 5.9671,-4.0279 9.125,-5.75 -1.0984,-0.9177 -2.7358,-1.9482 -5.0937,-3.0625 -10.223,5.0857 -8.3741,7.9546 -4.0313,8.8125 z m 154.5938,-79.5 c 5.1987,-0.2645 -1.581,7.4216 -3,0.6563 1.2827,-0.4281 2.2573,-0.6185 3,-0.6563 z m -59.4375,0.5 c 5.7159,-0.3738 1.4303,10.3595 -1.2813,0.2188 0.4734,-0.1333 0.9002,-0.1939 1.2813,-0.2188 z m -22.125,2.9063 c 28.2779,40.8249 122.736,46.3273 115.25,99.625 -51.7363,-6.1839 -100.5648,-50.947 -115.25,-99.625 z m 111.3125,1.3437 c 8.0845,0.32 -12.7754,17.7732 -2.0312,0.1875 0.814,-0.1463 1.4922,-0.2088 2.0312,-0.1875 z m -138.4062,2.125 c 38.8358,11.8083 -15.4874,23.9884 0,0 z m 106.8437,0.6563 c 2.0337,-0.078 0.3737,2.3127 -1.0625,3.125 0.9438,-0.549 3.1785,-0.8419 7.4375,-0.5938 5.1334,8.6261 -11.1217,2.7365 -7.4375,0.5938 -1.0772,0.6092 -2.0287,0.3394 -1.2188,-2.5313 1.03,-0.3911 1.7729,-0.5742 2.2813,-0.5937 z m -22.25,10.5 c 3.151,1.6669 -4.0459,1.0152 0,0 z m 152.9063,20.4375 c 3.3877,-0.2268 -1.4194,8.6719 -2.8126,1.2187 1.2619,-0.8304 2.1852,-1.1767 2.8126,-1.2187 z m -258.625,2.2187 c -55.7501,9.0095 17.0491,50.438 0,0 z m -59.75,3.2188 c -26.295199,13.856 26.8799,9.6372 0,0 z m -8.0938,29.1875 c -15.0986,20.6673 24.6187,3.6797 0,0 z m 160.625,7.375 c 22.3329,-0.9774 -43.1324,33.9528 -18.7812,3.8125 9.1355,-2.525 15.1267,-3.6526 18.7812,-3.8125 z m 200.0625,1.4687 c 0.3874,-0.1096 0.1172,3.2536 -0.375,0.75 0.1654,-0.5092 0.2856,-0.7247 0.375,-0.75 z m -273.9687,1.2813 c 6.6364,24.8602 -28.0689,0.411 0,0 z m -27.75,7.3437 c 9.0508,3.7188 -7.6987,5.2814 0,0 z m 122.0937,14.5 c 45.0418,-1.621 61.2709,59.0642 42.5625,82.0313 51.1185,2.8083 -16.8683,51.295 -5.2812,4.8125 -9.1115,6.0049 -23.1476,5.6739 -42.4063,-6.2188 -67.3775,-3.7962 -61.0064,-75.5491 1.9687,-80.4062 1.0704,-0.1051 2.1166,-0.1814 3.1563,-0.2188 z m -259.531299,12.75 c 21.7473,22.9243 -41.2966003,10.0553 0,0 z m 79.343799,2.4063 c 16.6907,-0.7471 -20.408199,22.4724 -7.0312,1.0625 2.993,-0.6666 5.3046,-0.9853 7.0312,-1.0625 z m 321.3125,2.4375 c 2.7627,0.2449 -3.0531,4.9325 -1.75,0.2187 0.7908,-0.1861 1.3553,-0.2537 1.75,-0.2187 z m -288.5625,0.75 c 75.2041,18.5658 -41.3023,33.8197 0,0 z m 253.3125,0.5 c 4.5094,4.1428 -5.4419,0.9394 0,0 z m -232.2187,0.1562 c 3.2162,0.1666 -3.6803,4.5534 -0.7813,0.031 0.3102,-0.03 0.5668,-0.042 0.7813,-0.031 z m -85.656299,4.0625 c 36.996799,0.4931 -15.8117,27.5327 -3.875,0.031 1.3855,-0.042 2.6816,-0.047 3.875,-0.031 z m 130.062499,0.9063 c 33.1151,42.9413 -72.8727,38.1561 -10.4062,10.7187 l 6.0312,-4.5625 4.375,-6.1562 z m -64.9062,1.0625 c -25.2962,14.1737 23.974,9.957 0,0 z m 274.0937,0.6875 c 70.4583,11.824 -54.32,82.0635 -9.375,7 l 4.125,-4.2813 5.25,-2.7187 z m 57.3437,5.2812 c 1.596,0.1231 2.3773,8.5023 -1.7187,3.4375 0.5618,-2.5949 1.1868,-3.4785 1.7187,-3.4375 z m -377.1874,3.375 c 8.7393,12.3106 -24.341599,10.7226 0,0 z m -23.593799,11.1563 c 26.388699,-0.3915 -3.9153,34.6136 -10.0938,1.375 4.0329,-0.9128 7.3639,-1.3345 10.0938,-1.375 z m -43.1875,2 c 0.9363,-0.091 2.0362,0.082 3.3125,0.625 -8.2134,13.3532 -9.8668,0.011 -3.3125,-0.625 z m 83.187499,3.4375 c 20.0861,0.2044 5.5647,27.5637 -2.0625,0.062 0.7213,-0.053 1.4146,-0.069 2.0625,-0.062 z m -119.6561993,1.4375 c 6.8161,6.6659 -24.6369997,3.5383 0,0 z m 10.1874003,1.125 c 7.5263,6.4338 -8.1610003,2.374 0,0 z m 12.0313,2.1562 c -20.0190003,47.6461 34.3466,22.2364 33.3437,20.1875 56.042899,-5.2471 -38.7708,87.2947 18.6563,41.3125 21.5193,-36.4307 87.727299,-54.9564 59.343699,3.9375 45.6979,-2.2221 121.1131,-81.1959 144.9063,1.75 -3.3367,22.1929 -45.9032,55.5776 -60.2813,82.125 8.7168,4.7234 2.4733,7.5888 -3.4374,7.8438 -3.5552,11.1531 -0.1226,20.5711 16.3124,26.6562 17.4757,-43.4175 119.1379,3.7638 107.9063,19.0625 -59.3014,37.2987 -136.8088,3.8822 -200.2187,-20.0937 -65.297999,7.9148 -78.753199,-81.3577 -108.187599,-113.0313 -18.4511,-4.0501 -49.8756,30.2875 -31.1562003,-19.75 4.5693,-17.795 11.0563003,-35.6023 22.8125003,-50 z M 217.1111,1479.097 c 0.8076,-2.5338 1.9786,-5.1503 3.4374,-7.8438 -0.7195,-0.3899 -1.505,-0.804 -2.4374,-1.2187 -13.2107,6.6156 -7.3151,9.3348 -1,9.0625 z m 257.6874,-154.8438 c 0.2659,0 0.5832,0.019 0.9688,0.062 3.6897,3.9865 -4.9563,-0.1082 -0.9688,-0.062 z m -477.7499993,2.25 c 8.9796,6.7279 -6.4956,5.7611 0,0 z m 231.9999993,4.6563 c 38.069,5.6611 -26.2322,9.8551 0,0 z m 281.7813,0.25 c 0.6219,-0.05 1.7836,0.3754 3.6875,1.5937 0.8815,7.7662 -6.3825,-1.3772 -3.6875,-1.5937 z m -361.0625,1.2187 c 9.2138,0.6382 -6.8214,8.5232 0,0 z m -33.3125,0.25 c 5.6467,-0.1152 -2.8949,2.7322 0,0 z m 342.4687,3.125 c 1.3394,0 3.6749,0.3612 7.4063,1.25 7.5196,8.9069 -14.639,-1.2704 -7.4063,-1.25 z m -15.6874,2.5313 c 2.0243,-0.016 4.4211,0.1837 7.25,0.6562 -2.3677,29.9392 -31.137,-0.4621 -7.25,-0.6562 z m -578.9063,3.0625 c 1.5107,0.013 3.2697,0.1449 5.3125,0.4375 5.9993,27.7908 -27.9737,-0.6322 -5.3125,-0.4375 z m 629.625,7.5 c 99.4869,28.6946 -33.0366,175.6259 -69.8437,78.875 -37.8524,-75.5365 103.1702,-86.7799 57.25,-1.0938 35.4505,43.7594 2.3278,-66.1671 12.5937,-77.7812 z m 26.125,0.4375 c 10.7353,5.558 -10.0239,0.7676 0,0 z m -477.812499,1.6875 c -18.9643,14.6557 22.394,7.3956 0,0 z m 380.968799,0.1562 c 6.0934,28.0491 -31.7716,0.4856 0,0 z m -427.0312993,7.875 c 7.2125,1.6196 -4.6526,3.8771 0,0 z m 53.2813003,0.031 c -24.8783,16.2305 26.4477,18.7443 0,0 z m -157.031301,1.5313 c 19.402601,10.8639 -15.5951,1.0895 0,0 z m 335.0937,9.25 c -31.0048,17.7117 31.377,14.7746 0,0 z m 76.5,3.1562 c 72.829,7.9788 -47.9015,102.7559 -14.1874,19.25 2.5084,-8.1989 8.2116,-13.466 14.1874,-19.25 z m 166.8438,1.6563 c -47.7546,13.9558 14.952,39.0947 0,0 z m -566.249999,0.3125 c 12.8727,7.2427 -4.4121,27.4058 0,0 z m -54.906201,15.6875 c 0.5088,-0.1785 2.1161,0.6601 5.5624,3.4375 1.3189,6.7125 -7.0889,-2.9022 -5.5624,-3.4375 z m 303.4687,2.9687 c -21.8556,15.8388 23.3259,11.4706 0,0 z m -287.1875,2.25 c 42.467601,9.4925 9.9878,50.037 0,0 z m 478.4062,1.5 c 31.4133,15.5742 -20.3362,111.6102 -9.9374,78.75 -40.4602,-10.6736 -7.9336,-62.4218 9.9374,-78.75 z m 88.75,3.3438 c -22.6231,16.9436 24.827,9.6741 0,0 z m -692.6563,1.0625 c 1.7869,0.1092 4.1753,0.7665 7.3125,2.1562 -2.4577,22.427 -19.8211,-2.9209 -7.3125,-2.1562 z m 561.4376,1.9687 c -31.2242,20.5774 24.3353,25.7242 0,0 z m -267.406299,1.3125 c 15.276,3.5021 -13.4257,10.1901 0,0 z m 498.781299,2.125 c 15.0579,4.9438 -14.7889,8.4409 0,0 z m -461.906299,0.062 c -0.5519,0.022 -1.1618,0.062 -1.8124,0.125 -10.0165,17.0646 18.9235,-0.8101 1.8124,-0.125 z M 409.1735,1408.94 c 7.8744,34.2149 -5.4393,17.454 0,0 z m -646.5001,3 c 3.431,0.132 -3.3172,10.6202 -4.1874,1.9375 2.0751,-1.4336 3.3957,-1.968 4.1874,-1.9375 z m 102.2189,0.6562 c 12.8821,18.3579 -23.5697,13.8393 0,0 z m 639.125,6.5313 c -20.662,15.7562 24.5227,6.9475 0,0 z m -742.7813,4 c 23.8812,3.0915 1.2618,15.234 0,0 z m 399.7501,2.75 c -25.0563,15.9815 24.2574,8.3435 0,0 z m 116.1874,0.4062 c 6.2022,17.2601 -22.4203,10.4868 0,0 z m -495.3125,2.0938 c 14.2675,0.069 -1.5608,13.9443 -3.2813,0.1875 1.2316,-0.1304 2.3301,-0.1921 3.2813,-0.1875 z m 245.250101,1.3125 c 21.0491,1.5276 -1.8075,17.7135 0,0 z m -27.65630029,3.6875 c 21.58070029,6.5637 -17.29289971,13.765 0,0 z m -96.90629971,0.9062 c 0.3267,0.033 0.7784,0.1785 1.375,0.5 -0.013,4.918 -3.6618,-0.7319 -1.375,-0.5 z m -13.875001,0.1563 c 4.6369,-0.4198 -3.4405,12.7151 -4,1.875 1.8604,-1.245 3.1414,-1.7973 4,-1.875 z m 557.1563,6.7187 c -12.4375,25.0587 28.9223,-0.1297 0,0 z m -284.125,0.1563 c -1.1937,-0.037 -2.792,0.1211 -4.9063,0.5 -11.0084,17.0216 16.4451,-0.1428 4.9063,-0.5 z m -316.0937,1.8125 c 51.5246,16.4597 -15.992,36.1964 0,0 z m 71.593701,2.0312 c 12.31,22.8764 -17.250601,28.2886 0,0 z m 254.874999,2.7188 c -18.9084,22.2489 28.9547,11.02 0,0 z m -391.4064,1.5312 c 49.2143,16.4041 -49.109,15.8205 0,0 z m 249.250101,2.125 c 1.0879,-0.022 2.5304,0.2329 4.4063,0.875 -2.1346,12.8687 -12.0209,-0.7189 -4.4063,-0.875 z m 16.6563,1.7813 c 42.1258,17.3678 25.08,81.8173 -14.4687,35.3125 -3.937,-13.1786 2.0989,-28.9001 14.4687,-35.3125 z m -114.5937,6.1562 c 36.4631,15.9352 -9.4111,30.2788 0,0 z m -102.250001,1.5625 c 4.8743,3.0989 -6.3723,1.8322 0,0 z m 436.125,3.6875 c 18.4449,4.7126 -15.5102,5.3793 0,0 z m 171.2187,0.1875 c 46.1433,2.482 -17.0321,44.125 0,0 z m -426.062499,4 c 13.7258,23.1425 -12.5200003,11.6115 0,0 z m 190.562499,2.8438 c -20.6502,18.2772 24.9021,7.6355 0,0 z m -307.6875,0.2187 c 0.2593,0.026 0.6317,0.1489 1.1562,0.375 0.9488,3.3779 -2.9715,-0.5543 -1.1562,-0.375 z m 400.0625,1.25 c 0.8324,-0.032 2.0432,0.048 3.6875,0.3125 14.316,12.2431 -11.7341,0 -3.6875,-0.3125 z m -18.7187,1.625 c 4.6724,10.3888 -13.3216,0.6726 0,0 z m -304.999999,4.3438 c 6.137,-0.1189 -3.9756,4.0918 0,0 z m -131.125001,4.875 c 21.769,10.7767 -25.5834,13.0036 0,0 z m 25.2812,3.9062 c 64.062301,-1.0532 -55.1728,66.2766 -6.8438,7.6563 l 3.6563,-7.5625 c 1.1106,-0.052 2.1706,-0.077 3.1875,-0.094 z m 0.5938,1.9063 c -23.8487,15.1977 24.7208,9.2777 0,0 z m 86.406201,27.7812 c 14.9808,-0.3429 17.0379,13.5858 -5.0625,0.625 1.8136,-0.3861 3.5128,-0.5895 5.0625,-0.625 z m 196.968799,1.9063 c 48.7924,24.691 -51.789599,8.5169 -11.25,0.8125 l 11.25,-0.8125 z m -182.219299,20.1252 c 17.5107,4.8336 -12.1563,17.4255 0,0 z m 350.999999,3.4375 c 69.5786,1.3438 -14.0025,105.7033 -22.9375,32.3437 -80.6643,-17.3714 0.6719,-17.6563 22.9375,-32.3437 z m -228.343799,5.8125 c 1.9676,0.1109 -3.1229,3.3879 -1.3124,0.1875 0.61,-0.1409 1.0314,-0.2034 1.3124,-0.1875 z m -55.3437,9.0937 c 40.3985,6.9637 -23.2353,24.408 0,0 z m -70.5313,1.7813 c 8.716,0.4659 -14.9968,18.4024 -11.9374,3.0937 6.1936,-2.3762 9.9261,-3.2013 11.9374,-3.0937 z m 24.8438,1.3125 c 49.6117,10.2201 -53.908,5.9267 0,0 z m 144.093799,4.5312 c 40.3043,1.9008 9.1006,19.6967 -7.9376,4.4063 l 7.9376,-4.4063 z m -46.156299,3.6563 c 22.662499,0.8555 -6.1119,64.6832 -5,75.9375 4.0974,-1.8207 8.2545,-4.6004 12.4375,-8.5625 -8.7906,10.4535 -12.0878,12.1017 -12.4375,8.5625 -46.7467,20.7718 -83.3435003,-86.8657 -5.2187,-73.5 l 0.625,-0.2188 c 3.9135,-1.6273 7.0692,-2.314 9.5937,-2.2187 z m 448.656299,8.4375 c 9.7277,11.354 -10.0752,4.4371 0,0 z m -421.3438,5 c 1.3945,10.447 -12.4598,7.0467 0,0 z m -43.906199,13.2187 c -25.3051,12.8992 21.2754,11.2593 0,0 z m 135.968699,54.875 c 29.3357,38.7083 -37.0084,32.451 0,0 z m -190.031299,7.4688 c 42.4053,50.4421 -69.8275,9.1814 0,0 z m -236.187501,22.6562 c 23.2548,-0.3607 50.7378,43.4608 9.9062,25.625 2.9098,22.0346 -49.0319,68.5767 -25.0938,23.5625 -57.0335,-5.8611 -25.5632,-40.1568 9.4063,-48.0937 1.8658,-0.7297 3.8105,-1.0632 5.7813,-1.0938 z m 325.0313,9.25 c 5.5826,6.3046 -9.201199,-0.2817 0,0 z m -334.1876,4.8438 c -20.0187,10.6933 16.5576,8.968 0,0 z m 323.781401,3.375 c 4.5854,-0.024 -4.1636,14.8318 -7.4063,4.4062 3.787,-3.2206 6.1223,-4.3994 7.4063,-4.4062 z m -164.25,4.875 c 11.6178,9.7249 -12.6846,19.3999 0,0 z m 11.6562,6.8125 c 5.3932,4.2842 -5.6648,1.6396 0,0 z m -56.343801,3.1875 c 9.6035,6.875 -9.3072,2.6955 0,0 z m -26.4374,1.875 c 30.2412,-0.9904 -14.1338,55.1745 -14.75,3.25 6.1832,-2.1519 11.0361,-3.1284 14.75,-3.25 z m 254.0312,0.5625 c 2.1693,-0.028 4.7752,0.072 7.9062,0.3437 28.5485,31.0378 -40.446399,0.07 -7.9062,-0.3437 z m -115.2499993,0.7187 c 1.527,-0.1076 4.8947,0.6485 11.0312,2.9688 1.4699,8.879 -16.4849,-2.5843 -11.0312,-2.9688 z m -94.5311997,0.031 c 24.5588,8.0037 -26.210301,1.6671 0,0 z m 298.218699,2.3438 c 35.8661,9.5202 108.0213,-9.1839 106.9687,47.5 -33.2911,-20.7543 -70.9157,-32.6645 -106.9687,-47.5 z m -53.5937,4.5625 c 31.3335,34.6062 -43.4451,20.28 0,0 z m 171.125,5.7812 c 42.0383,34.1568 -21.4701,55.977 0,0 z m -427.9376,3.875 c 50.236401,4.6991 -25.0559,37.8953 0,0 z m 163.812601,4.2188 c 40.649,18.4132 -32.17,10.8119 0,0 z m -58.6876003,1.6875 c 0.2659,-0.049 0.7926,0.069 1.6876,0.5 0.8411,3.2529 -2.8394,-0.2875 -1.6876,-0.5 z m -247.9063007,6.4062 c 6.2651,0.5495 -4.987,3.7729 0,0 z m 1024.25,2.5625 c 6.5232,-0.5127 -9.2636,9.8519 -6.1875,1.5938 2.999,-1.0282 4.9795,-1.4988 6.1875,-1.5938 z m -884.8124,15.0313 c 12.2946,1.4405 -3.2898,12.999 0,0 z m 36.531301,13.4687 c 0.5664,0 1.1994,0.011 1.875,0.031 13.8698,8.1214 -19.4335,-0.09 -1.875,-0.031 z"
       style="opacity:0.2;fill:#0c1830;fill-opacity:1;filter:url(#filter59939)"
       transform="matrix(0.81329203,0,0,0.81329203,-28.120784,170.31637)" />
    <path
       transform="matrix(1.0116279,0,0,1.0116279,358.97763,-315.61957)"
       d="m 1117.2287,577.74603 a 424.26407,424.26407 0 1 1 -848.52811,0 424.26407,424.26407 0 1 1 848.52811,0 z"
       sodipodi:ry="424.26407"
       sodipodi:rx="424.26407"
       sodipodi:cy="577.74603"
       sodipodi:cx="692.96466"
       id="path8331"
       style="opacity:0.75000000000000000;fill:#2691f2;fill-opacity:1;fill-rule:nonzero;stroke:none;filter:url(#filter8327)"
       sodipodi:type="arc" />
    <path
       style="opacity:0.15;fill:#000000;filter:url(#filter59955)"
       d="m 1598.7043,-215.74667 c -0.4189,3.1267 -0.7214,6.3074 -0.875,9.5 0.829,-2.979 1.1729,-6.1304 0.875,-9.5 z m -0.875,9.5 c -7.8242,28.1158 -59.8525,39.9348 -43.6875,56.1875 -38.453,29.5345 -34.4023,92.610297 -70.3125,125.031297 -23.3879,42.4761 65.5482,78.92211 5.3125,106.812493 -46.8601,-9.058503 2.4638,36.94246 -20.3125,53.4375 6.6218,23.73577 -16.4173,40.2589 -32.1875,57.0625 -13.0439,13.89864 -21.1189,28.00508 -3.3438,46.53125 36.7008,-49.38096 109.542,23.55183 44.875,44.5625 -58.5172,16.45765 -70.4043,134.66652 -116.8437,135.3125 -15.6394,-23.18569 -68.9959,-79.81115 -77.0313,-50.125 51.4212,40.79826 -52.7463,89.70391 23.2188,104.3125 58.2119,5.41726 22.6691,41.98875 59.3125,62.375 10.4839,32.87677 -20.1348,34.06319 -40.9375,36.125 9.1143,9.86743 -8.789,10.63255 -4.8438,0.53125 -13.1962,1.6957 -19.5926,5.10539 -1.6562,21.4375 -36.4867,-24.75418 -23.2761,10.84817 -15,27.15625 -28.4923,8.22295 -45.9194,-79.05132 -62.5312,-16.1875 -8.9892,18.26091 -3.5953,126.32011 21.7187,56.09375 21.4643,-7.08645 0.015,44.48047 36.6875,24.84375 -6.7826,33.88307 1.3451,63.0474 9.8125,58.71875 -0.119,33.54457 59.0994,-59.64661 5.7813,-53 13.205,-32.61041 36.7697,-35.71878 58,-25.84375 0.3902,-0.16805 0.7375,-0.32892 1.1562,-0.5 1.2482,0.94603 2.2473,1.83404 3.0625,2.65625 35.4773,19.63234 61.7939,73.61636 16.6563,80.8125 -14.7727,-17.90868 -39.1515,-41.12656 -16.9688,-5.1875 -3.4553,2.44438 -5.8266,4.8304 -7.3438,7.125 3.5451,2.83769 1.4069,4.83129 -2.125,5.71875 -1.7242,20.55873 59.4304,33.45861 5.7188,32.71875 -23.9605,-5.26545 -125.9972,7.95158 -89.75,17.34375 91.0584,-11.07567 32.8728,82.47396 16.5312,130.74999 -59.8593,33.38264 -4.4703,-87.18185 -33.5312,-34.46874 -18.6871,-37.66263 -52.1069,-79.9778 -88.3125,-36.875 -23.787,-17.435 -12.7615,-129.04884 -50.2501,-84.8125 -17.7173,65.68586 81.43,116.72784 33.0001,182.06249 -10.7091,-29.03263 -56.8397,-54.59172 -82.0001,-49.15624 5.119,3.88374 -6.43,5.4493 -8.4063,3.59375 -8.8351,6.39712 -11.5855,20.2738 -2.5,44.46874 2.6511,27.05844 61.9439,26.15944 14.4376,50.75004 -30.1758,13.4799 32.816,1.75 -3.0938,24.9687 -18.2263,66.6668 56.8851,-87.05066 98.0626,-21.7187 4.5339,24.3905 -22.3184,95.1233 23.75,49.2812 27.2801,-42.269 123.0912,-27.6661 72.125,29.1875 47.4559,-4.1062 69.3477,17.5497 40.5937,55.5938 20.4495,-29.8222 83.1713,-17.3704 36.0313,8.6562 -3.8023,-0.4976 -7.4073,-0.6131 -10.8125,-0.4062 -3.2274,5.7932 -9.1256,5.4626 -13.3125,2.75 -16.2967,6.0541 -24.63,20.6851 -21.4687,33.0312 4.1203,0.9665 3.6052,2.6095 1.5,4.0313 4.1892,8.4962 14.6359,15.1552 32.6562,15.8125 33.8251,30.1605 -79.1321,40.9783 -52.5,-13.875 -11.2099,-12.3276 -36.574,43.0588 -67.5938,17.7812 -0.9858,0.2281 -1.9995,0.3827 -3,0.5313 1.1466,4.3646 -14.4001,5.6643 -11.75,0.1562 -42.5258,-4.4959 -94.4441,-57.21 -131.7188,2.3125 -52.5209,54.2109 51.7697,138.3725 59,50.8438 2.2597,-4.5614 4.6402,-8.2269 7.1251,-11.125 -7.1931,0.5529 -17.4321,-2.5374 -1.4687,-8.0313 3.0496,1.4796 4.895,2.7259 5.875,3.7813 39.5025,-30.8296 102.3409,103.9857 152.6874,45.0312 40.0668,-3.3527 57.5341,-29.6745 86.4376,-14.125 -12.4378,20.7237 -8.392,27.3198 15.8124,7.1563 10.1922,-44.5243 72.5879,-45.745 47.625,-0.6563 0.9448,0.804 1.9071,1.58 2.9063,2.3438 0.2514,-0.4049 0.5267,-0.8266 0.8125,-1.25 7.4971,3.4177 10.9676,6.6059 11.9688,9.25 37.9463,19.4956 91.4324,14.5444 58.625,-35.875 73.3132,-31.8508 123.6848,81.4875 198.2812,37.9687 11.2196,-8.5112 22.5253,-16.4177 34.0312,-23.4375 -0.013,-1.7949 1.6862,-4.2594 6.3126,-7.4375 1.1511,0.7175 2.0805,1.4128 2.9062,2.0625 39.9434,-22.4655 82.606,-33.7381 132.5938,-23.0625 47.7687,3.6989 96.5477,15.4299 137.1249,41.4688 0.2544,-0.2411 0.4719,-0.4673 0.75,-0.7188 6.3175,2.15 8.0665,4.408 7.5312,6.2813 3.9893,2.8394 7.8895,5.82 11.6875,8.9687 -32.2448,-91.9151 94.2328,33.3759 113.7813,-34.8125 19.4277,-26.7867 73.2763,-58.2189 17.4062,-24.4687 -28.5862,-4.6861 -82.4455,8.2743 -72.1875,-5.25 -31.4516,-39.6781 -129.1613,14.0297 -131.125,-39.7813 58.1375,-11.3468 116.8188,-26.0092 167.9063,-57.4375 -78.1775,11.0161 -158.4972,71.3055 -236.9376,28.375 -50.4807,-23.3371 -190.0957,-51.9656 -151.3436,-108.2187 35.7259,46.7613 165.3889,62.4895 150.9999,-9.4688 -47.2351,55.4472 -160.1073,30.3363 -155.2499,-52.7187 18.0948,-9.9106 43.6142,28.7496 75.4375,6.8125 24.339,22.7825 -10.4008,-43.58624 34.9062,-30.0938 70.4283,9.3665 -22.1203,-121.25087 52.1249,-100.18748 7.7363,31.18221 66.582,98.13308 41.3126,27.03125 -18.0984,-45.86611 -136.6548,-73.68732 -112.6562,-109.65625 57.4677,9.68591 109.5164,65.14775 163.7187,63.96875 -21.6079,-17.55762 -43.0482,-35.91097 -64.7188,-54.5625 -2.006,0.15197 -3.7705,-0.867 -4.5,-3.875 -11.7912,-10.15402 -23.6497,-20.36667 -35.6874,-30.625 -2.5966,0.0508 -5.0275,-1.24955 -5.5312,-4.71875 -16.26,-13.80297 -32.847,-27.62799 -49.9063,-41.28125 -44.6383,-28.5707 -137.5946,-20.66608 -93.6563,-99.1875 15.0392,-42.74148 59.0654,-30.96282 68.9688,-26.46875 16.8486,-30.98864 32.1808,64.131 26.8438,81.875 42.0002,56.33913 47.7809,-26.98134 46.3437,-50.53125 11.0019,29.7612 20.6166,29.70904 25.4374,18.4375 0.8404,-0.49288 1.4122,-1.13064 0.5625,-1.40625 7.5983,-20.85351 0.6787,-72.48661 -37.9686,-60.65625 -39.593,-23.54622 2.8072,-81.11704 17.2187,-48.3125 26.0717,16.31928 45.4084,-13.50974 46.1874,-2 -0.2773,-31.0252 5.6726,-27.45547 30.5313,-18.3125 -50.0712,28.33013 7.5023,22.23684 26.5937,28.84375 -29.4194,18.91777 54.7122,85.89181 20.3125,18.96875 -26.0368,-34.38196 -1.4609,-83.41963 15.0313,-98.53125 -22.5954,-21.71315 -120.7122,-44.80283 -41.375,-62.0625 -0.5427,-48.74791 118.9108,-34.65483 104.3437,-95.09375 -43.7016,8.33437 -80.6219,91.46419 -140.375,45.90625 -42.4181,-31.06153 18.5575,-58.55369 -17.9375,-85.59375 17.677,-33.18468 39.7452,-63.59348 67.4688,-14 27.9318,24.14745 -25.0444,-56.76081 -13.3125,-78.6875 -6.0225,-50.37226 -95.0356,-68.09455 -89.4063,-112.343753 34.3103,6.86966 41.0806,-67.58179 41.1563,-72.84379 -47.202,2.48000001 -116.3295,-58.9863 -127.5,18 -23.1386,-2.0166 -41.7489,-62.1213 -7.7187,-30.7187 37.9537,-34.2595 -13.9775,-95.859697 -27.0625,-31.5938 -15.0658,41.5782 -99.7164,44.2108 -67.9375,-13.4375 9.3158,8.2092 18.0623,-0.5278 26.0625,-8.9687 -1.9356,-2.6888 -2.9192,-7.3862 -1.9062,-14.8438 7.5423,0.4423 12.3071,1.9081 15.0624,3.8125 4.7142,-1.5319 9.0441,1.5054 12.9688,14.1563 2.3584,-84.940197 -88.8532,-2.2385 -81.5312,-14.4375 34.8131,-23.823697 24.6088,-130.790697 -10.4376,-109.906297 1.0373,43.4881 -58.9726,27.0275 -78.5624,17.7188 -4.8831,-10.1437 -6.1948,-21.5297 -5.6563,-32.7188 z m 351.1874,746.68754 c 0.01,0.64188 -0.011,1.20315 0,1.875 0.047,-0.73774 0.037,-1.33121 0,-1.875 z m -251.7811,-694.18754 c 0.3634,0.01 0.7614,0.04 1.1874,0.094 5.5458,19.4444 -12.4531,-0.3962 -1.1874,-0.094 z m -20.8438,28.4688 c 8.0916,25.282297 -13.3888,9.0949 0,0 z m 12.4375,8.0937 c 9.3111,13.8356 -17.8617,6.0329 0,0 z m -43.3125,11.9375 c 2.5052,4.7612 -4.4639,-0.2092 0,0 z m -0.5938,6.874997 c 14.7952,4.0816 -15.1597,9.6423 0,0 z m -97.4374,6.4688 c 18.6955,28.7812 -33.5932,10.9137 0,0 z m 257.0312,28.3125 c 10.8001,1.5945 -5.8264,7.5362 0,0 z m 17.3438,2.2187 c 21.7516,10.8285 -15.8576,6.1186 0,0 z m -38.125,46.75 c 20.9156,20.8968 -24.5733,19.2923 0,0 z m 8.0624,18.125 c 0.6342,-0.032 1.657,0.6432 3.1563,2.5938 -2.8131,6.748 -5.4212,-2.4811 -3.1563,-2.5938 z m 20.0313,8.9688 c 0.1932,0 0.4373,0.015 0.7187,0.062 2.8068,4.1519 -3.6167,-0.1376 -0.7187,-0.062 z m -60.1875,2.3125 c 0.3757,0.056 0.9124,0.2533 1.6562,0.625 1.0717,5.0677 -4.2862,-1.0183 -1.6562,-0.625 z m -209.5,1.9687 c 2.7758,-0.2001 0.2822,8.4802 -2.8125,1.8438 1.2605,-1.2912 2.1719,-1.7976 2.8125,-1.8438 z m 244,3.5 c 6.4827,0.2987 -3.9986,2.8655 0,0 z m 19.4688,10.3438 c 46.008,20.42921 -24.7536,32.68585 0,0 z m 89.7812,14.74999 c 12.4728,6.79715 -22.2014,12.65126 0,0 z m -10.7188,3.1875 c 5.4354,12.43682 -17.9366,15.26618 0,0 z m -267.4374,2.59375 c 6.1071,0.63559 -3.0357,2.87859 0,0 z m -48.125,3.9375 c 6.5942,2.64682 -5.857,6.61872 0,0 z m 295.0624,7.8125 c 12.7991,2.00223 -1.8258,8.83292 0,0 z m -300.0624,3.5625 c 7.6107,0.39871 -0.4617,16.122343 -7.9688,2.71875 3.6273,-2.0865 6.2124,-2.81076 7.9688,-2.71875 z M 1894.923,85.00337 c 8.8018,1.97645 -8.2895,3.75416 0,0 z m -36.3124,0.46875 c 10.0978,0.73534 -5.539,8.23091 0,0 z m -311.1563,0.5 c 6.1288,-0.23752 -2.9917,11.295 -6.9375,2.4375 3.2883,-1.70407 5.5232,-2.38269 6.9375,-2.4375 z m 102.25,0.0625 c 14.2333,25.53083 -28.7829,3.98566 0,0 z m 184.9687,0.125 c 16.2736,13.37816 -11.902,6.33444 0,0 z m -171.1562,2.03125 c 8.3602,8.60875 -11.5479,0.48555 0,0 z m 215.5,10.09375 c 23.408,3.46616 -14.9605,17.93757 0,0 z m -200.9375,6.40625 c 17.3458,28.29232 -31.7421,2.51738 0,0 z m 166.5313,1.0625 c 0.8242,0.002 2.2958,0.49756 4.6874,1.78125 5.5917,12.9371 -9.1386,-1.79312 -4.6874,-1.78125 z m -305.6563,3.28125 c 0.8633,-0.0212 1.7807,-0.008 2.7813,0.0312 7.8481,29.03665 -29.5432,0.62462 -2.7813,-0.0312 z m 288.4687,3.5625 c 0.4572,52.10396 -29.7973,33.47577 0,0 z m -183,3.75 c 22.1621,12.38844 -19.943,14.44809 0,0 z m 194.4376,3.65625 c 7.1911,0.87317 -6.2059,4.81485 0,0 z m 101.4686,3.78125 c 16.9366,49.75822 -57.0787,2.5227 0,0 z m -57.5936,1.03125 c 20.9201,18.77825 -19.9309,18.56511 0,0 z m -220.375,2.25 c 36.2895,48.00392 -36.3289,54.14009 0,0 z m 237.2812,10.15625 c 3.2689,2.56736 -4.7936,0.56085 0,0 z m -33.8125,1.34375 c 24.4234,9.01696 18.5756,18.91768 8.2813,25.9375 -0.28,1.02011 -0.5996,2.02503 -1,2.96875 -4.7014,1.43721 -8.1102,2.5047 -10.9376,3.4375 -8.2429,3.58136 -12.7927,4.2205 0,0 3.7286,-1.61998 8.1219,-3.80431 11.9376,-6.40625 2.5178,-9.17517 0.1126,-20.91921 -8.2813,-25.9375 z m 110.3124,8 c 1.8092,0.13052 -2.6529,6.39987 -3.2187,1.71875 1.7128,-1.29855 2.7122,-1.7553 3.2187,-1.71875 z m -66.25,7.375 c 18.5934,10.11659 -3.8547,12.51881 0,0 z m -123.5311,7.125 c 8.4786,1.87301 -6.5139,8.37232 0,0 z m 49.5937,3.5625 c 14.0049,3.77245 -7.3081,10.27131 0,0 z m -96.8125,4.65625 c 35.1446,18.54697 -25.7719,40.75748 0,0 z m 207.9374,2.0625 c 37.9272,12.20279 -36.1455,3.58641 0,0 z m -124.0312,2.0625 c 12.1196,8.9214 -13.8223,5.71472 0,0 z m 74.7813,3.90625 c 0.3549,0.0711 0.5144,0.73157 0.125,2.46875 -4.1077,2.44404 -1.1896,-2.68215 -0.125,-2.46875 z m -344.5625,9.84375 c 10.2591,2.62384 -8.2825,7.58283 0,0 z m 341.9688,6.1875 c 1.4433,-0.0212 2.9856,0.0698 4.6562,0.3125 47.5231,22.95223 -16.9872,133.21258 -18.2188,43.6875 -4.947,-15.09207 -8.0877,-43.68248 13.5626,-44 z m 50.4999,5.125 c 9.5268,0.1043 -5.8748,16.2399 -2.25,0.21875 0.8697,-0.14971 1.6148,-0.2257 2.25,-0.21875 z m -131.5937,0.78125 c 8.0734,2.87177 -9.3433,6.55246 0,0 z m 153.6874,3.34375 c 5.9631,-0.0961 5.0681,19.36312 -2.9687,1.40625 1.1313,-0.97791 2.1169,-1.39252 2.9687,-1.40625 z m -531.1562,7.5625 c 5.2657,5.31227 -8.2785,1.52145 0,0 z m 22.0938,1.90625 c 8.4163,-0.64635 -10.2581,14.27432 -3.5312,0.75 1.5088,-0.44875 2.6605,-0.68314 3.5312,-0.75 z m 470.6561,1.0625 c 23.2034,8.72585 5.6364,30.02209 0,0 z m 28.1876,7.3125 c 0.3126,0.001 0.7589,0.0959 1.4062,0.3125 1.4268,4.03322 -3.5945,-0.32229 -1.4062,-0.3125 z m -138.9999,0.625 c 39.8138,-0.11446 47.7881,58.74072 38.4687,86.4375 5.6008,3.6674 1.53,5.86323 -2.6563,6.1875 -6.9328,12.58569 -19.162,12.48096 -33.9687,-17.40625 0.5281,-24.85955 8.647,-52.62882 -6.75,-74.90625 1.6843,-0.19666 3.3234,-0.30795 4.9063,-0.3125 z m 35.8124,92.625 c 0.9981,-1.81174 1.8864,-3.89951 2.6563,-6.1875 -0.5279,-0.3457 -1.1039,-0.69056 -1.8125,-1.0625 -10.8801,5.41055 -5.8077,7.63451 -0.8438,7.25 z m -334.5624,-91.28125 c 0.768,0.0178 1.6585,0.10743 2.7187,0.28125 5.2314,15.16821 -14.2397,-0.54903 -2.7187,-0.28125 z m 386.625,14.59375 c -10.5599,15.01712 18.1971,0.69232 0,0 z m -352.1563,3.84375 c 1.0441,-0.45923 0.5613,4.56831 -0.9687,1.375 0.41,-0.85689 0.7278,-1.26902 0.9687,-1.375 z m 286.6563,2.09375 c -25.4082,15.08971 25.5443,15.6732 0,0 z m 33.4062,9.5625 c 1.8094,0.0598 -3.2496,3.49693 -1.25,0.21875 0.5788,-0.15833 0.9915,-0.22729 1.25,-0.21875 z m -243.25,1.84375 c 25.5651,21.37675 -5.7696,41.6252 0,0 z m -92.0938,22 c 7.6368,5.28367 -8.7707,3.86614 0,0 z m 61.625,4.71875 c 18.9728,3.9366 -8.1664,12.28342 0,0 z m -53.3124,0.9375 c 8.9075,29.08603 -12.6168,10.25782 0,0 z m 141.2812,5.625 c 19.0067,7.05499 -5.1564,15.93695 0,0 z m -112.625,1.25 c 14.0258,6.05365 -8.7963,3.69325 0,0 z m -47.5,2.75 c 4.4022,3.99886 -6.6406,0.88211 0,0 z m -62.4062,0.625 c 4.0956,-0.14201 5.981,1.08582 -4.375,2.3125 l -4.5313,3.5625 c -1.5067,-4.23292 4.8106,-5.73299 8.9063,-5.875 z m 36.8124,5.21875 c 9.1009,12.28488 -19.0407,4.90701 0,0 z m 142.5313,3.90625 c 32.1601,18.12596 -22.503,32.7272 0,0 z m 97.4687,8.25 c 16.5042,15.54525 -16.2802,8.78237 0,0 z m -28.125,1.125 c 20.6344,26.3988 -10.2774,58.97823 0,0 z m -246.2812,0.46875 c 0.278,63.54489 -58.6493,29.1615 -5.125,3.875 l 5.125,-3.875 z m 89,1.5 c 13.3115,62.97006 -66.6213,30.93675 0,0 z m 372.8749,1.53125 c 10.3116,2.97464 -3.7493,7.41183 0,0 z m -328.6874,0.4375 c 39.9241,18.82266 -18.2212,39.69188 -9.625,15.125 -2.087,-0.45488 -4.4248,-2.50699 0.3125,-3.8125 0.3393,0.38283 0.6134,0.71204 0.8438,1.03125 1.6486,-3.39256 4.3666,-7.46587 8.4687,-12.34375 z m -90.5,1.1875 c 16.2406,50.89263 -77.8911,43.14198 -16.4063,8.625 0.4651,-0.3182 0.9607,-0.60813 1.4376,-0.90625 0.7317,-0.98357 2.121,-2.21619 4.4062,-3.75 0.5687,0.15893 1.0831,0.3089 1.5625,0.46875 3.0044,-1.47686 6.0638,-2.84766 9,-4.4375 z m -9,4.4375 c -2.0417,1.0036 -4.0436,2.07762 -5.9687,3.28125 -4.959,6.66569 20.537,1.57683 5.9687,-3.28125 z m 86.25,-2.125 c 0.3383,0.056 0.837,0.39694 1.5313,1.1875 -1.4715,3.6174 -2.9973,-1.43024 -1.5313,-1.1875 z m 303.5625,0.25 c 1.7945,0.044 4.3197,0.46828 7.7812,1.40625 3.3966,16.16222 -20.3426,-1.71397 -7.7812,-1.40625 z m -75.75,3.96875 c 14.5234,3.25485 -6.188,13.25157 0,0 z m -72.9375,6.21875 c 20.68,27.12257 -22.4192,32.73553 0,0 z m 173.9999,1.09375 c 47.5288,49.64937 -81.436,17.11577 -7.8437,0.84375 l 7.8437,-0.84375 z m -41.3124,0.21875 c 23.1879,10.11953 -19.9633,1.87231 0,0 z m -249.1875,4.625 c 7.5403,10.15634 -17.199,1.1431 0,0 z m 234.0313,1.125 c 8.2119,3.88515 -6.5232,3.86725 0,0 z m 31.8437,4.4375 c -14.1957,15.66384 20.7086,2.42925 0,0 z m -318.1563,5.125 c 8.0098,13.05557 -6.6225,8.93391 0,0 z m -65.6874,2.03125 c 7.0607,20.73461 -15.5077,1.47978 0,0 z m 92.375,0.5625 c 4.5302,4.75463 -7.3509,1.01134 0,0 z m 90.5,0.9375 c 7.3181,20.16797 -7.8749,24.81094 0,0 z m -75.6876,5.15625 c 52.7455,12.35839 17.6378,53.26102 0,0 z m 39.4063,7.1875 c 14.4224,5.08567 -7.863,12.38065 0,0 z m -10.9687,0.125 c 0.2748,-0.0197 0.6029,-0.0151 1,0 3.647,4.13529 -5.1234,0.29535 -1,0 z m 85.0624,4.03125 c 27.9919,24.24024 -33.9445,5.94449 0,0 z m -269.7812,0.53125 c 6.3226,2.34169 -6.636,2.53204 0,0 z m 98.375,1.75 c 51.071,0.13481 -55.1199,54.38157 -21.2188,1.875 8.9786,-1.32227 15.9356,-1.88895 21.2188,-1.875 z m -51.0312,4.71875 c 31.9822,47.4466 -58.1492,15.53392 0,0 z m 243.6874,3.59375 c 5.7196,2.36696 -4.0032,2.72427 0,0 z m -273.875,0.53125 c 28.2157,59.32897 -79.5476,62.93637 -28.2812,12.59375 10.6274,2.9018 31.8492,6.1605 28.2812,-12.59375 z m 119.7188,4.5625 c 15.6075,0.83353 -3.8039,22.99997 0,0 z m -285.3438,0.125 c 6.1618,0.0466 -2.5744,3.60182 0,0 z m 348.8126,6.53125 c 10.2062,6.05639 -8.4957,8.78157 0,0 z m 76.125,6.96875 c 17.8176,37.77431 -6.5964,37.29918 0,0 z m -322.625,2.875 c 10.2916,13.78894 -18.4698,5.73918 0,0 z m 128,4.46875 c 9.4881,21.53522 -23.2584,13.22437 0,0 z m 86.7812,2 c 2.466,0.0424 -2.606,3.64814 -1.5625,0.21875 0.6996,-0.1709 1.2102,-0.2248 1.5625,-0.21875 z m 64,2.75 c 7.7573,3.73801 -6.5435,6.66179 0,0 z m -200,3.78125 c 0.735,0.0196 1.6194,0.10959 2.6562,0.28125 7.2539,14.71994 -13.6814,-0.57513 -2.6562,-0.28125 z m -93.0312,1.5625 c 13.9919,22.56919 -26.2321,3.95548 0,0 z m 63.7812,0 c -19.8686,10.66855 19.4821,8.33179 0,0 z m 142.4375,2.71875 c 9.7047,12.4734 -11.0996,5.33208 0,0 z m -31.3125,1.03125 c 30.5945,43.17076 -56.211,14.38289 0,0 z m -248.1875,1.90625 c 46.2019,16.92461 -45.4504,14.388 -2.25,0.53125 l 2.25,-0.53125 z m 298.5937,1.375 c 13.2031,7.80449 -10.7677,7.80953 0,0 z m -212.8124,2.65625 c 65.3412,21.32659 -34.2195,39.8675 0,0 z m 224.9687,2.5625 c 62.9506,40.04776 -41.856,44.56816 0,0 z m -127.9063,1.09375 c 17.0081,16.09833 -9.195,12.60164 0,0 z m -18.6562,2.21875 c 0.6585,-0.005 1.3284,0.0154 2.0312,0.0312 1.8613,41.30474 -43.5191,0.29548 -2.0312,-0.0312 z m 282.75,1.9375 c 5.8947,5.98957 9.3674,11.56551 11.125,16.53125 -0.192,-2.80359 0.094,-6.48374 1.1875,-11.28125 17.8228,9.96991 4.535,24.24337 0.062,16.3125 0.8993,6.60732 -1.3842,11.76186 -4.7812,14.84375 9.8484,3.77153 -11.5772,12.16708 -7.6563,3.21875 -8.3412,0.0758 -15.1955,-11.13597 0.062,-39.625 z m -0.062,39.625 c 2.6167,-0.0238 5.381,-1.15455 7.6563,-3.21875 -1.149,-0.44 -2.7218,-0.81481 -4.8126,-1.09375 -1.4469,1.75536 -2.3428,3.16938 -2.8437,4.3125 z m -222.6563,-39.5625 c 0.4008,-0.0244 0.8749,-0.0157 1.4063,0.0625 0.5225,11.12217 -7.4182,0.30385 -1.4063,-0.0625 z m 169.2813,0.4375 c 39.6744,35.80188 -15.1427,47.42861 0,0 z m -200.9375,5.59375 c 0.5118,-0.004 1.1774,0.0867 2.0312,0.28125 2.6638,7.84848 -6.9783,-0.24151 -2.0312,-0.28125 z m -17,1.34375 c 1.561,-0.20448 -1.3118,5.01906 -1.875,1.1875 0.9148,-0.80319 1.5148,-1.14031 1.875,-1.1875 z m -169.1875,1.90625 c 106.5577,29.19683 -77.3446,33.94579 0,0 z m 204,6.25 c 13.6287,1.17378 -7.3248,9.0602 0,0 z m 71.1875,1.03125 c 5.7841,6.20563 -8.1597,0.0394 0,0 z m -103.4375,0.65625 c 9.0932,5.37391 -10.9498,1.93925 0,0 z m 50.1875,2.375 c 25.998,16.93767 30.5878,76.76755 -6.1875,32.375 -7.2195,-8.73716 -12.258,-32.75509 6.1875,-32.375 z m -151.4688,6.125 c 20.8006,0.0123 -10.5613,30.52033 -12.3437,2.125 5.339,-1.50348 9.3722,-2.12676 12.3437,-2.125 z m 111.2813,11.0625 c 1.5189,0.18209 -3.0392,4.42465 -1.0625,0.21875 0.5017,-0.1756 0.8455,-0.24476 1.0625,-0.21875 z m 105.25,5.03125 c -24.5111,46.96022 28.694,16.623 23.2813,10.9375 3.6951,3.46651 6.6343,6.74325 8.9687,9.8125 0.097,-0.0931 0.1823,-0.18752 0.2813,-0.28125 10.5365,9.18378 10.2841,15.22974 6.6874,18.09375 -2.3965,33.2869 -112.3494,20.35192 -41.6874,-36.71875 l 2.4687,-1.84375 z m 39.2187,38.5625 c 0.3547,-4.92608 -1.6767,-10.85472 -6.9687,-17.8125 -18.097,17.38986 0.2606,23.15419 6.9687,17.8125 z m -122.4374,-38.5 c 6.8064,11.39483 -5.5396,23.66812 0,0 z m 300.4374,3.5 c 8.2838,16.6861 -14.2582,0.31238 0,0 z m -324.125,0.90625 c 4.2926,-0.61803 -3.2618,10.67325 -3.7187,1.78125 1.7282,-1.13427 2.9238,-1.6668 3.7187,-1.78125 z m 206.9688,1.375 c 4.2882,0.97993 -4.2085,2.61744 0,0 z m 301.9374,6.6875 c 16.8023,0.22065 -9.5132,14.10041 0,0 z m -630.2186,0.25 c 2.0932,-0.0775 4.5683,0.0413 7.4374,0.375 12.2204,43.91608 -38.8357,0.78769 -7.4374,-0.375 z m 195.9062,4.53125 c 15.7237,10.54485 -12.909,25.36081 0.2188,3.1875 l -0.2188,-3.1875 z m -220.7812,0.0937 c 1.5866,0.0516 3.8312,0.60074 6.875,1.875 2.6853,22.23658 -17.9816,-2.23622 -6.875,-1.875 z m 53,0.3125 c 1.2811,-0.0105 -2.3622,4.78518 -1.7813,0.9375 0.9334,-0.68006 1.4856,-0.93508 1.7813,-0.9375 z m 381.5937,0.0625 c 0.901,0.0196 2.281,0.26297 4.2813,0.8125 6.6466,9.68111 -10.5883,-0.94971 -4.2813,-0.8125 z m -76.4375,0.0937 c 14.9661,20.90581 -13.8876,27.37871 0,0 z m 269.3749,0.59375 c 22.8679,3.49241 0.7284,28.48239 0,0 z m -233.4061,2.4375 c 14.9184,4.18604 -18.0468,11.22419 0,0 z m 144.75,1.21875 c 25.0913,3.73761 6.966,15.81911 0,0 z m -29,1.53125 c 81.796,29.86727 -24.7055,15.45672 0,0 z m -84.25,2.71875 c -0.895,58.65724 -56.8687,24.21009 0,0 z m -358.6563,1.46875 c 6.2526,24.72062 -14.9893,6.89839 0,0 z m 178.6563,0.625 c -23.7998,15.18769 24.6628,9.28808 0,0 z m -188.375,0.96875 c 0.4015,-8.7e-4 0.8976,0.0202 1.4687,0.0625 4.4295,4.37997 -7.4925,-0.0494 -1.4687,-0.0625 z m -4.1876,0.84375 c 2.7859,0.51035 -3.2442,0.14231 0,0 z m 48.5626,3.53125 c 3.4538,0.76842 -2.9955,1.06088 0,0 z m -44.375,1.78125 c 3.1987,0.22832 -3.6305,6.02045 -2.0313,0.28125 0.9204,-0.24489 1.5743,-0.31387 2.0313,-0.28125 z m 28.9687,2.375 c 1.6228,-0.30501 2.2433,8.76442 -1.5313,3 0.5352,-2.08465 1.0769,-2.9146 1.5313,-3 z m -9.2813,1.625 c 0.3294,-0.0524 0.825,-0.024 1.5313,0.0937 1.9624,4.02467 -3.8364,0.27304 -1.5313,-0.0937 z m 560.125,0.40625 c 19.7603,7.46789 -10.2743,5.96991 0,0 z m -567.5937,2 c 6.268,1.75581 -5.7528,3.95905 0,0 z m 423.3125,0.25 c 10.6366,-0.2173 -6.8111,7.11644 0,0 z m -442.0625,3.96875 c 1.0141,0.12032 -1.8296,4.00476 -1.4063,0.65625 0.7325,-0.50781 1.1723,-0.68402 1.4063,-0.65625 z m -10.625,0.28125 c 6.4522,-0.1815 0.015,12.59592 -6.6875,2.625 3.0159,-1.86253 5.1985,-2.58312 6.6875,-2.625 z m 429.2813,6.75 c 12.1904,5.6715 -10.7972,5.62995 0,0 z m -371.0626,0.375 c 3.6491,0.0129 -4.3586,4.11044 -0.9062,0.0625 0.3536,-0.039 0.663,-0.0634 0.9062,-0.0625 z m 37.4688,1.75 c 2.06,0.0484 -2.1957,8.15064 -2.5625,1.53125 1.2732,-1.12683 2.0871,-1.54243 2.5625,-1.53125 z m 306,0.0937 c 35.7451,34.63324 -48.2428,27.51766 0,0 z m -553.0312,3.96875 -0.4376,0.34375 0.4376,-0.34375 z m 601.3124,1.15625 c 10.4734,10.44488 -12.454,26.41539 0,0 z m -446.7187,5.375 c 0.3889,-0.002 0.8442,0.0256 1.4063,0.0937 5.184,7.07715 -7.2404,-0.0709 -1.4063,-0.0937 z m 48.8437,2.34375 c 4.4149,-0.39881 -5.8194,7.97677 -1.875,0.4375 0.8021,-0.25628 1.4183,-0.39625 1.875,-0.4375 z m 371.6563,3.84375 c 21.8977,6.06706 2.8337,30.07136 0,0 z m -411.9375,1.125 c 2.1019,-0.0836 -1.3088,7.46056 -2.4375,1.53125 1.1671,-1.09176 1.9524,-1.51197 2.4375,-1.53125 z m -33.8125,4.71875 c 5.9401,7.9622 -11.5352,5.7973 0,0 z m 20.125,9.0625 c 3.2753,-0.0216 7.1019,0.42149 11.5625,1.4375 -10.8585,63.19628 -50.2108,-1.18207 -11.5625,-1.4375 z m 41.375,23.84375 c 5.9802,0.48965 -4.2318,4.13919 0,0 z m -89.5313,8.03125 c 21.014,27.5455 -26.4935,19.71448 0,0 z m 112,5.625 c 5.4093,5.13894 -6.2084,3.65997 0,0 z m 77.9688,2.90625 c 11.6924,1.52485 -11.681,4.95787 0,0 z m 31.125,0.84375 c 2.857,9.45858 -12.7914,0.21769 0,0 z m 287.8438,0.3125 c 0.3967,0.007 0.8705,0.0412 1.4374,0.0937 4.6486,4.43941 -7.3886,-0.19138 -1.4374,-0.0937 z m -390.4376,0.65625 c 0.4724,-0.0254 1.1069,0.0629 1.9688,0.3125 -0.034,5.57942 -5.2752,-0.13461 -1.9688,-0.3125 z m -151.8437,14.75 c 2.1866,-0.0481 4.7036,0.0267 7.5937,0.21875 42.1581,47.91548 -52.0539,0.75953 -7.5937,-0.21875 z m -51.875,3.90625 c 43.2015,0.16291 1.2951,68.77727 -9.8125,0.9375 3.6709,-0.65835 6.9324,-0.94836 9.8125,-0.9375 z m 78.2813,1.03125 c 22.7053,2.41126 -9.6334,14.98135 0,0 z m 16.125,4.34375 c 31.5823,25.2832 -24.8578,25.30395 0,0 z m 54,7.8125 c 0.4391,-0.006 0.9606,0.009 1.5937,0.0625 5.7148,6.12319 -8.1805,0.0214 -1.5937,-0.0625 z m -6.3438,6.65625 c 19.752,-0.22298 -0.078,16.04676 -4.5,0.28125 1.6849,-0.17583 3.1832,-0.26639 4.5,-0.28125 z m 462.0312,5.84375 c 9.4709,8.13063 -14.9292,4.9125 0,0 z m -319.6562,0.34375 c 1.2917,-0.12099 1.9001,7.74539 -1.1875,2.4375 0.4005,-1.75287 0.8258,-2.40363 1.1875,-2.4375 z m 34.6875,0.375 c 0.9036,-0.0111 2.0543,0.0824 3.5313,0.3125 3.507,9.65947 -12.266,-0.20514 -3.5313,-0.3125 z m -88.6563,0.21875 c 8.6593,0.0188 -3.3795,14.89354 -9.625,2.875 4.5288,-2.09078 7.6268,-2.87935 9.625,-2.875 z m -62.6874,1.125 c 0.6811,-0.017 1.4193,0.003 2.2187,0.0312 10.7253,21.72392 -23.3356,0.49392 -2.2187,-0.0312 z m 121.8437,2.8125 c 2.4631,0.0382 0.1904,1.52912 -1.0937,1.75 15.2628,4.72908 -2.1413,13.6018 -0.9063,-0.28125 0.068,0.0187 0.1206,0.0436 0.1875,0.0625 -0.062,-0.2507 0.1443,-0.719 0.8438,-1.5 0.3839,-0.0333 0.7026,-0.0354 0.9687,-0.0312 z m 94.8437,3.28125 c 3.9412,1.63741 -3.737,1.76998 0,0 z m -46.9062,2.09375 c 1.3171,0.27348 -3.156,5.79487 -1.9688,0.84375 1.0629,-0.68881 1.6649,-0.90687 1.9688,-0.84375 z m -130.2812,0.96875 c 50.5268,1.44543 24.1056,53.49619 0,0 z m 152.9687,0.125 c 0.9767,10e-4 2.3829,0.15957 4.3125,0.53125 2.7072,6.95644 -11.1495,-0.54103 -4.3125,-0.53125 z m 243.4375,1.59375 c 6.0693,4.4414 -7.4153,5.9603 0,0 z m -225.1875,1.3125 c 6.4378,1.69294 -5.8752,3.42176 0,0 z m -326.0937,0.5 c 8.276,11.90129 -11.2357,1.74257 0,0 z m 200.0312,6.3125 c 12.313,27.67642 -9.7967,9.76116 0,0 z m 28.0312,1.03125 c 10.7358,0.0967 -3.1329,17.89202 -2.5,0.21875 0.9459,-0.16676 1.7843,-0.2252 2.5,-0.21875 z m -13.4062,7.125 c 10.4506,1.24212 -3.6166,7.13672 0,0 z m -92.5625,0.84375 c 39.0801,19.30432 156.7745,35.28173 120.0313,95.84375 -6.1608,-29.57682 -31.2852,-27.53476 -52.4376,-16 5.6908,4.75445 -3.6709,6.82744 -9.125,5.75 -12.1923,8.6967 -21.4959,19.79767 -22.2187,27.90625 -19.3569,-2.84862 -40.058,-17.40619 -50.5625,-34.3125 -3.4236,1.63997 -10.0149,1.39592 -4.7188,-5.125 0.797,0.14273 1.4923,0.27878 2.125,0.4375 -8.4324,-17.03338 -5.9129,-35.51984 18.6876,-46.46875 1.7085,-9.45793 -1.7288,-18.62368 -1.7813,-28.03125 z m 58.4687,85.59375 c 2.9043,-2.07154 5.9671,-4.0279 9.125,-5.75 -1.0984,-0.91771 -2.7358,-1.94819 -5.0937,-3.0625 -10.223,5.08565 -8.3741,7.95456 -4.0313,8.8125 z m 154.5938,-79.5 c 5.1987,-0.26453 -1.581,7.42155 -3,0.65625 1.2827,-0.42808 2.2573,-0.61847 3,-0.65625 z m -59.4375,0.5 c 5.7159,-0.37377 1.4303,10.35953 -1.2813,0.21875 0.4734,-0.13326 0.9002,-0.19384 1.2813,-0.21875 z m -22.125,2.90625 c 28.2779,40.82498 122.736,46.32734 115.25,99.625 -51.7363,-6.18387 -100.5648,-50.94701 -115.25,-99.625 z m 111.3125,1.34375 c 8.0845,0.32002 -12.7754,17.77317 -2.0312,0.1875 0.814,-0.14635 1.4922,-0.20884 2.0312,-0.1875 z m -138.4062,2.125 c 38.8358,11.80828 -15.4874,23.98839 0,0 z m 106.8437,0.65625 c 2.0337,-0.078 0.3737,2.31269 -1.0625,3.125 0.9438,-0.54893 3.1785,-0.84191 7.4375,-0.59375 5.1334,8.62605 -11.1217,2.73646 -7.4375,0.59375 -1.0772,0.60923 -2.0287,0.33941 -1.2188,-2.53125 1.03,-0.39107 1.7729,-0.57426 2.2813,-0.59375 z m -22.25,10.5 c 3.151,1.66696 -4.0459,1.0152 0,0 z m 152.9063,20.4375 c 3.3877,-0.22677 -1.4194,8.67197 -2.8126,1.21875 1.2619,-0.83041 2.1852,-1.17676 2.8126,-1.21875 z m -258.625,2.21875 c -55.7501,9.00953 17.0491,50.43796 0,0 z m -59.75,3.21875 c -26.2952,13.85604 26.8799,9.63728 0,0 z m -8.0938,29.1875 c -15.0986,20.66737 24.6187,3.67974 0,0 z m 160.625,7.375 c 22.3329,-0.97735 -43.1324,33.95281 -18.7812,3.8125 9.1355,-2.52497 15.1267,-3.65257 18.7812,-3.8125 z m 200.0625,1.46875 c 0.3874,-0.10963 0.1172,3.25356 -0.375,0.75 0.1654,-0.50924 0.2856,-0.7247 0.375,-0.75 z m -273.9687,1.28125 c 6.6364,24.86024 -28.0689,0.411 0,0 z m -27.75,7.34375 c 9.0508,3.71883 -7.6987,5.28139 0,0 z m 122.0937,14.5 c 45.0418,-1.621 61.2709,59.06415 42.5625,82.03125 51.1185,2.80837 -16.8683,51.29506 -5.2812,4.8125 -9.1115,6.00494 -23.1476,5.67394 -42.4063,-6.21875 -67.3775,-3.79625 -61.0064,-75.5491 1.9687,-80.40625 1.0704,-0.10504 2.1166,-0.18133 3.1563,-0.21875 z m -259.5313,12.75 c 21.7473,22.92429 -41.2966,10.05528 0,0 z m 79.3438,2.40625 c 16.6907,-0.74706 -20.4082,22.47246 -7.0312,1.0625 2.993,-0.66654 5.3046,-0.98522 7.0312,-1.0625 z m 321.3125,2.4375 c 2.7627,0.24492 -3.0531,4.93249 -1.75,0.21875 0.7908,-0.18614 1.3553,-0.25374 1.75,-0.21875 z m -288.5625,0.75 c 75.2041,18.56584 -41.3023,33.81978 0,0 z m 253.3125,0.5 c 4.5094,4.14279 -5.4419,0.93948 0,0 z m -232.2187,0.15625 c 3.2162,0.16662 -3.6803,4.5534 -0.7813,0.0312 0.3102,-0.0302 0.5668,-0.0424 0.7813,-0.0312 z m -85.6563,4.0625 c 36.9968,0.49309 -15.8117,27.53269 -3.875,0.0312 1.3855,-0.0421 2.6816,-0.0472 3.875,-0.0312 z m 130.0625,0.90625 c 33.1151,42.94135 -72.8727,38.15611 -10.4062,10.71875 l 6.0312,-4.5625 4.375,-6.15625 z m -64.9062,1.0625 c -25.2962,14.17376 23.974,9.95705 0,0 z m 274.0937,0.6875 c 70.4583,11.82404 -54.32,82.06358 -9.375,7 l 4.125,-4.28125 5.25,-2.71875 z m 57.3437,5.28125 c 1.596,0.1231 2.3773,8.50232 -1.7187,3.4375 0.5618,-2.59495 1.1868,-3.47853 1.7187,-3.4375 z m -377.1874,3.375 c 8.7393,12.3106 -24.3416,10.72254 0,0 z m -23.5938,11.15625 c 26.3887,-0.39142 -3.9153,34.61368 -10.0938,1.375 4.0329,-0.91276 7.3639,-1.33451 10.0938,-1.375 z m -43.1875,2 c 0.9363,-0.0908 2.0362,0.0825 3.3125,0.625 -8.2134,13.35322 -9.8668,0.0107 -3.3125,-0.625 z m 83.1875,3.4375 c 20.0861,0.20448 5.5647,27.56371 -2.0625,0.0625 0.7213,-0.0527 1.4146,-0.0691 2.0625,-0.0625 z m -119.6562,1.4375 c 6.8161,6.66589 -24.637,3.53829 0,0 z m 10.1874,1.125 c 7.5263,6.4338 -8.161,2.37404 0,0 z m 12.0313,2.15625 c -20.019,47.64605 34.3466,22.23641 33.3437,20.1875 56.0429,-5.24707 -38.7708,87.29469 18.6563,41.3125 21.5193,-36.43068 87.7273,-54.95646 59.3437,3.9375 45.6979,-2.22207 121.1131,-81.19591 144.9063,1.75 -3.3367,22.19292 -45.9032,55.57757 -60.2813,82.12498 8.7168,4.7234 2.4733,7.5888 -3.4374,7.8438 -3.5552,11.1531 -0.1226,20.5711 16.3124,26.6562 17.4757,-43.4175 119.1379,3.7638 107.9063,19.0625 -59.3014,37.2987 -136.8088,3.8822 -200.2187,-20.0937 -65.298,7.9148 -78.7532,-81.35768 -108.1876,-113.03128 -18.4511,-4.05011 -49.8756,30.28744 -31.1562,-19.75 4.5693,-17.79501 11.0563,-35.60233 22.8125,-50 z M 1561.1111,999.097 c 0.8076,-2.5338 1.9786,-5.1503 3.4374,-7.8438 -0.7195,-0.3899 -1.505,-0.804 -2.4374,-1.2187 -13.2107,6.6156 -7.3151,9.3348 -1,9.0625 z m 257.6874,-154.84378 c 0.2659,0.003 0.5832,0.019 0.9688,0.0625 3.6897,3.98645 -4.9563,-0.10826 -0.9688,-0.0625 z m -477.75,2.25 c 8.9796,6.72786 -6.4956,5.76112 0,0 z m 232,4.65625 c 38.069,5.66117 -26.2322,9.85514 0,0 z m 281.7813,0.25 c 0.6219,-0.05 1.7836,0.37542 3.6875,1.59375 0.8815,7.76622 -6.3825,-1.37718 -3.6875,-1.59375 z m -361.0625,1.21875 c 9.2138,0.63821 -6.8214,8.52318 0,0 z m -33.3125,0.25 c 5.6467,-0.11519 -2.8949,2.73215 0,0 z m 342.4687,3.125 c 1.3394,0.004 3.6749,0.36116 7.4063,1.25 7.5196,8.90684 -14.639,-1.2704 -7.4063,-1.25 z m -15.6874,2.53125 c 2.0243,-0.0165 4.4211,0.18371 7.25,0.65625 -2.3677,29.9392 -31.137,-0.46207 -7.25,-0.65625 z m -578.9063,3.0625 c 1.5107,0.013 3.2697,0.14493 5.3125,0.4375 5.9993,27.7908 -27.9737,-0.63219 -5.3125,-0.4375 z m 629.625,7.5 c 99.4869,28.69459 -33.0366,175.62593 -69.8437,78.87499 -37.8524,-75.53649 103.1702,-86.77983 57.25,-1.09375 35.4505,43.75939 2.3278,-66.16711 12.5937,-77.78124 z m 26.125,0.4375 c 10.7353,5.55802 -10.0239,0.76768 0,0 z m -477.8125,1.6875 c -18.9643,14.65569 22.394,7.39566 0,0 z m 380.9688,0.15625 c 6.0934,28.04904 -31.7716,0.48561 0,0 z m -427.0313,7.875 c 7.2125,1.61958 -4.6526,3.87712 0,0 z m 53.2813,0.0312 c -24.8783,16.23045 26.4477,18.74428 0,0 z m -157.0313,1.53125 c 19.4026,10.86393 -15.5951,1.08954 0,0 z m 335.0937,9.25 c -31.0048,17.71174 31.377,14.77462 0,0 z m 76.5,3.15625 c 72.829,7.97875 -47.9015,102.75588 -14.1874,19.25 2.5084,-8.19892 8.2116,-13.46604 14.1874,-19.25 z m 166.8438,1.65625 c -47.7546,13.9558 14.952,39.09476 0,0 z m -566.25,0.3125 c 12.8727,7.24272 -4.4121,27.40579 0,0 z m -54.9062,15.6875 c 0.5088,-0.17846 2.1161,0.66011 5.5624,3.4375 1.3189,6.7125 -7.0889,-2.90213 -5.5624,-3.4375 z m 303.4687,2.96875 c -21.8556,15.83876 23.3259,11.47062 0,0 z m -287.1875,2.25 c 42.4676,9.49249 9.9878,50.03699 0,0 z m 478.4062,1.5 c 31.4133,15.57415 -20.3362,111.61018 -9.9374,78.74998 -40.4602,-10.6736 -7.9336,-62.42176 9.9374,-78.74998 z m 88.75,3.34375 c -22.6231,16.94364 24.827,9.6741 0,0 z m -692.6563,1.0625 c 1.7869,0.10924 4.1753,0.76649 7.3125,2.15625 -2.4577,22.42697 -19.8211,-2.92096 -7.3125,-2.15625 z m 561.4376,1.96875 c -31.2242,20.57735 24.3353,25.72422 0,0 z m -267.4063,1.3125 c 15.276,3.50213 -13.4257,10.19005 0,0 z m 498.7813,2.125 c 15.0579,4.9438 -14.7889,8.44087 0,0 z m -461.9063,0.0625 c -0.5519,0.0221 -1.1618,0.0625 -1.8124,0.125 -10.0165,17.06461 18.9235,-0.81009 1.8124,-0.125 z m 337.75,1.46875 c 7.8744,34.21492 -5.4393,17.45404 0,0 z m -646.5001,3 c 3.431,0.13208 -3.3172,10.62027 -4.1874,1.9375 2.0751,-1.43356 3.3957,-1.96798 4.1874,-1.9375 z m 102.2189,0.65625 c 12.8821,18.35788 -23.5697,13.83929 0,0 z m 639.125,6.53124 c -20.662,15.75621 24.5227,6.94756 0,0 z m -742.7813,4 c 23.8812,3.09155 1.2618,15.23407 0,0 z m 399.7501,2.75 c -25.0563,15.98156 24.2574,8.34353 0,0 z m 116.1874,0.40625 c 6.2022,17.26006 -22.4203,10.48676 0,0 z m -495.3125,2.09375 c 14.2675,0.0687 -1.5608,13.94433 -3.2813,0.1875 1.2316,-0.13038 2.3301,-0.19208 3.2813,-0.1875 z m 245.2501,1.3125 c 21.0491,1.52764 -1.8075,17.71352 0,0 z m -27.6563,3.6875 c 21.5807,6.5637 -17.2929,13.76506 0,0 z m -96.9063,0.90625 c 0.3267,0.0331 0.7784,0.17848 1.375,0.5 -0.013,4.91803 -3.6618,-0.73186 -1.375,-0.5 z m -13.875,0.15625 c 4.6369,-0.41971 -3.4405,12.71519 -4,1.875 1.8604,-1.24491 3.1414,-1.79728 4,-1.875 z m 557.1563,6.71875 c -12.4375,25.05869 28.9223,-0.12975 0,0 z m -284.125,0.15625 c -1.1937,-0.037 -2.792,0.12114 -4.9063,0.5 -11.0084,17.02169 16.4451,-0.14274 4.9063,-0.5 z m -316.0937,1.8125 c 51.5246,16.45974 -15.992,36.19644 0,0 z m 71.5937,2.03125 c 12.31,22.87639 -17.2506,28.28859 0,0 z m 254.875,2.71875 c -18.9084,22.24894 28.9547,11.02002 0,0 z m -391.4064,1.53125 c 49.2143,16.40409 -49.109,15.82049 0,0 z m 249.2501,2.125 c 1.0879,-0.0223 2.5304,0.23294 4.4063,0.875 -2.1346,12.86869 -12.0209,-0.71894 -4.4063,-0.875 z m 16.6563,1.78125 c 42.1258,17.36784 25.08,81.81734 -14.4687,35.31254 -3.937,-13.1786 2.0989,-28.90009 14.4687,-35.31254 z m -114.5937,6.15625 c 36.4631,15.93519 -9.4111,30.27879 0,0 z m -102.25,1.56249 c 4.8743,3.0989 -6.3723,1.8322 0,0 z m 436.125,3.6875 c 18.4449,4.7126 -15.5102,5.3793 0,0 z m 171.2187,0.1875 c 46.1433,2.482 -17.0321,44.125 0,0 z m -426.0625,4 c 13.7258,23.1425 -12.52,11.6115 0,0 z m 190.5625,2.8438 c -20.6502,18.2772 24.9021,7.6355 0,0 z m -307.6875,0.2187 c 0.2593,0.026 0.6317,0.1489 1.1562,0.375 0.9488,3.3779 -2.9715,-0.5543 -1.1562,-0.375 z m 400.0625,1.25 c 0.8324,-0.032 2.0432,0.048 3.6875,0.3125 14.316,12.2431 -11.7341,0 -3.6875,-0.3125 z m -18.7187,1.625 c 4.6724,10.3888 -13.3216,0.6726 0,0 z m -305,4.3438 c 6.137,-0.1189 -3.9756,4.0918 0,0 z m -131.125,4.875 c 21.769,10.7767 -25.5834,13.0036 0,0 z m 25.2812,3.9062 c 64.0623,-1.0532 -55.1728,66.2766 -6.8438,7.6563 l 3.6563,-7.5625 c 1.1106,-0.052 2.1706,-0.077 3.1875,-0.094 z m 0.5938,1.9063 c -23.8487,15.1977 24.7208,9.2777 0,0 z m 86.4062,27.7812 c 14.9808,-0.3429 17.0379,13.5858 -5.0625,0.625 1.8136,-0.3861 3.5128,-0.5895 5.0625,-0.625 z m 196.9688,1.9063 c 48.7924,24.691 -51.7896,8.5169 -11.25,0.8125 l 11.25,-0.8125 z m -182.2193,20.1252 c 17.5107,4.8336 -12.1563,17.4255 0,0 z m 351,3.4375 c 69.5786,1.3438 -14.0025,105.7033 -22.9375,32.3437 -80.6643,-17.3714 0.6719,-17.6563 22.9375,-32.3437 z m -228.3438,5.8125 c 1.9676,0.1109 -3.1229,3.3879 -1.3124,0.1875 0.61,-0.1409 1.0314,-0.2034 1.3124,-0.1875 z m -55.3437,9.0937 c 40.3985,6.9637 -23.2353,24.408 0,0 z m -70.5313,1.7813 c 8.716,0.4659 -14.9968,18.4024 -11.9374,3.0937 6.1936,-2.3762 9.9261,-3.2013 11.9374,-3.0937 z m 24.8438,1.3125 c 49.6117,10.2201 -53.908,5.9267 0,0 z m 144.0938,4.5312 c 40.3043,1.9008 9.1006,19.6967 -7.9376,4.4063 l 7.9376,-4.4063 z m -46.1563,3.6563 c 22.6625,0.8555 -6.1119,64.6832 -5,75.9375 4.0974,-1.8207 8.2545,-4.6004 12.4375,-8.5625 -8.7906,10.4535 -12.0878,12.1017 -12.4375,8.5625 -46.7467,20.7718 -83.3435,-86.8657 -5.2187,-73.5 l 0.625,-0.2188 c 3.9135,-1.6273 7.0692,-2.314 9.5937,-2.2187 z m 448.6563,8.4375 c 9.7277,11.354 -10.0752,4.4371 0,0 z m -421.3438,5 c 1.3945,10.447 -12.4598,7.0467 0,0 z m -43.9062,13.2187 c -25.3051,12.8992 21.2754,11.2593 0,0 z m 135.9687,54.875 c 29.3357,38.7083 -37.0084,32.451 0,0 z m -190.0313,7.4688 c 42.4053,50.4421 -69.8275,9.1814 0,0 z m -236.1875,22.6562 c 23.2548,-0.3607 50.7378,43.4608 9.9062,25.625 2.9098,22.0346 -49.0319,68.5767 -25.0938,23.5625 -57.0335,-5.8611 -25.5632,-40.1568 9.4063,-48.0937 1.8658,-0.7297 3.8105,-1.0632 5.7813,-1.0938 z m 325.0313,9.25 c 5.5826,6.3046 -9.2012,-0.2817 0,0 z m -334.1876,4.8438 c -20.0187,10.6933 16.5576,8.968 0,0 z m 323.7814,3.375 c 4.5854,-0.024 -4.1636,14.8318 -7.4063,4.4062 3.787,-3.2206 6.1223,-4.3994 7.4063,-4.4062 z m -164.25,4.875 c 11.6178,9.7249 -12.6846,19.3999 0,0 z m 11.6562,6.8125 c 5.3932,4.2842 -5.6648,1.6396 0,0 z m -56.3438,3.1875 c 9.6035,6.875 -9.3072,2.6955 0,0 z m -26.4374,1.875 c 30.2412,-0.9904 -14.1338,55.1745 -14.75,3.25 6.1832,-2.1519 11.0361,-3.1284 14.75,-3.25 z m 254.0312,0.5625 c 2.1693,-0.028 4.7752,0.072 7.9062,0.3437 28.5485,31.0378 -40.4464,0.07 -7.9062,-0.3437 z m -115.25,0.7187 c 1.527,-0.1076 4.8947,0.6485 11.0312,2.9688 1.4699,8.879 -16.4849,-2.5843 -11.0312,-2.9688 z m -94.5312,0.031 c 24.5588,8.0037 -26.2103,1.6671 0,0 z m 298.2187,2.3438 c 35.8661,9.5202 108.0213,-9.1839 106.9687,47.5 -33.2911,-20.7543 -70.9157,-32.6645 -106.9687,-47.5 z m -53.5937,4.5625 c 31.3335,34.6062 -43.4451,20.28 0,0 z m 171.125,5.7812 c 42.0383,34.1568 -21.4701,55.977 0,0 z m -427.9376,3.875 c 50.2364,4.6991 -25.0559,37.8953 0,0 z m 163.8126,4.2188 c 40.649,18.4132 -32.17,10.8119 0,0 z m -58.6876,1.6875 c 0.2659,-0.049 0.7926,0.069 1.6876,0.5 0.8411,3.2529 -2.8394,-0.2875 -1.6876,-0.5 z m -247.9063,6.4062 c 6.2651,0.5495 -4.987,3.7729 0,0 z m 1024.25,2.5625 c 6.5232,-0.5127 -9.2636,9.8519 -6.1875,1.5938 2.999,-1.0282 4.9795,-1.4988 6.1875,-1.5938 z m -884.8124,15.0313 c 12.2946,1.4405 -3.2898,12.999 0,0 z m 36.5313,13.4687 c 0.5664,0 1.1994,0.011 1.875,0.031 13.8698,8.1214 -19.4335,-0.09 -1.875,-0.031 z"
       id="path59899"
       inkscape:connector-curvature="0" />
    <path
       sodipodi:type="arc"
       style="opacity:0.55000000000000004;fill:#1e64a4;fill-opacity:1;fill-rule:nonzero;stroke:none;filter:url(#filter8327)"
       id="path8325"
       sodipodi:cx="692.96466"
       sodipodi:cy="577.74603"
       sodipodi:rx="424.26407"
       sodipodi:ry="424.26407"
       d="m 1117.2287,577.74603 a 424.26407,424.26407 0 1 1 -848.52811,0 424.26407,424.26407 0 1 1 848.52811,0 z"
       transform="matrix(1.4341085,0,0,1.4341085,-33.78651,-499.70607)" />
    <rect
       style="opacity:0.35;fill:url(#radialGradient8323);fill-opacity:1;fill-rule:nonzero;stroke:none"
       id="rect7547"
       width="1920"
       height="1200"
       x="0"
       y="2.1316282e-14" />
    <rect
       y="2.1316282e-14"
       x="0"
       height="1200"
       width="1920"
       id="rect59943"
       style="opacity:0.35;fill:url(#radialGradient59953);fill-opacity:1;fill-rule:nonzero;stroke:none" />
    <rect
       style="fill:url(#radialGradient3828);fill-opacity:1;fill-rule:nonzero;stroke:none;filter:url(#filter3832);opacity:0.75000000000000000"
       id="rect3052"
       width="1920"
       height="1200"
       x="0"
       y="2.1316282e-14"
       transform="matrix(1.1371951,0,0,1.1371951,-131.70732,-82.317073)" />
  </g>
  <g
     inkscape:groupmode="layer"
     id="layer2"
     inkscape:label="b"
     style="opacity:0.75;display:inline">
    <path
       sodipodi:type="arc"
       style="fill:#00468c;fill-opacity:1;fill-rule:nonzero;stroke:none"
       id="path59959"
       sodipodi:cx="824"
       sodipodi:cy="696"
       sodipodi:rx="30"
       sodipodi:ry="30"
       d="m 854,696 a 30,30 0 1 1 -60,0 30,30 0 1 1 60,0 z"
       transform="translate(656.00004,394)" />
    <g
       id="g59979"
       transform="translate(-25.999964,-10.000002)">
      <path
         sodipodi:type="arc"
         style="opacity:0.55;fill:#b9dcff;fill-opacity:1;fill-rule:nonzero;stroke:none"
         id="path59961"
         sodipodi:cx="824"
         sodipodi:cy="696"
         sodipodi:rx="30"
         sodipodi:ry="30"
         d="m 854,696 c 0,16.56854 -13.43146,30 -30,30 -16.56854,0 -30,-13.43146 -30,-30 0,-16.56854 13.43146,-30 30,-30 16.56854,0 30,13.43146 30,30 z"
         transform="translate(752,404)" />
      <path
         transform="translate(772,404)"
         d="m 854,696 c 0,16.56854 -13.43146,30 -30,30 -16.56854,0 -30,-13.43146 -30,-30 0,-16.56854 13.43146,-30 30,-30 16.56854,0 30,13.43146 30,30 z"
         sodipodi:ry="30"
         sodipodi:rx="30"
         sodipodi:cy="696"
         sodipodi:cx="824"
         id="path59963"
         style="opacity:0.55;fill:#b9dcff;fill-opacity:1;fill-rule:nonzero;stroke:none"
         sodipodi:type="arc" />
    </g>
    <path
       transform="translate(816.00004,394)"
       d="m 854,696 a 30,30 0 1 1 -60,0 30,30 0 1 1 60,0 z"
       sodipodi:ry="30"
       sodipodi:rx="30"
       sodipodi:cy="696"
       sodipodi:cx="824"
       id="path59975"
       style="fill:#00468c;fill-opacity:1;fill-rule:nonzero;stroke:none"
       sodipodi:type="arc" />
    <path
       sodipodi:type="arc"
       style="fill:none;stroke:#0078f0;stroke-width:7.9245286;stroke-miterlimit:4;stroke-opacity:1;stroke-dasharray:none"
       id="path59977"
       sodipodi:cx="824"
       sodipodi:cy="696"
       sodipodi:rx="30"
       sodipodi:ry="30"
       d="m 854,696 a 30,30 0 1 1 -60,0 30,30 0 1 1 60,0 z"
       transform="matrix(0.88333333,0,0,0.88333333,982.1333,475.2)" />
  </g>
</svg>
