<?xml version="1.0" encoding="UTF-8" standalone="no"?>
<!-- Created with Inkscape (http://www.inkscape.org/) -->

<svg
   xmlns:dc="http://purl.org/dc/elements/1.1/"
   xmlns:cc="http://creativecommons.org/ns#"
   xmlns:rdf="http://www.w3.org/1999/02/22-rdf-syntax-ns#"
   xmlns:svg="http://www.w3.org/2000/svg"
   xmlns="http://www.w3.org/2000/svg"
   xmlns:xlink="http://www.w3.org/1999/xlink"
   xmlns:sodipodi="http://sodipodi.sourceforge.net/DTD/sodipodi-0.dtd"
   xmlns:inkscape="http://www.inkscape.org/namespaces/inkscape"
   width="1920"
   height="1200"
   id="svg2"
   version="1.1"
   inkscape:version="0.48.3.1 r9886"
   sodipodi:docname="1304-default.svg"
   inkscape:export-filename="/home/knome/wall-xubuntu.png"
   inkscape:export-xdpi="90"
   inkscape:export-ydpi="90">
  <defs
     id="defs4">
    <linearGradient
       id="linearGradient4070">
      <stop
         style="stop-color:#0088aa;stop-opacity:0;"
         offset="0"
         id="stop4072" />
      <stop
         style="stop-color:#000000;stop-opacity:1;"
         offset="1"
         id="stop4074" />
    </linearGradient>
    <linearGradient
       id="linearGradient4014">
      <stop
         style="stop-color:#19355c;stop-opacity:1;"
         offset="0"
         id="stop4016" />
      <stop
         style="stop-color:#152d4e;stop-opacity:1;"
         offset="1"
         id="stop4018" />
    </linearGradient>
    <radialGradient
       inkscape:collect="always"
       xlink:href="#linearGradient4014"
       id="radialGradient4020"
       cx="960"
       cy="452.36218"
       fx="960"
       fy="452.36218"
       r="960"
       gradientTransform="matrix(0.81044077,0,0,0.74634963,181.97686,114.74184)"
       gradientUnits="userSpaceOnUse" />
    <filter
       inkscape:collect="always"
       id="filter4028"
       x="-0.98666667"
       width="2.9733333"
       y="-0.93473684"
       height="2.8694737">
      <feGaussianBlur
         inkscape:collect="always"
         stdDeviation="207.2"
         id="feGaussianBlur4030" />
    </filter>
    <filter
       inkscape:collect="always"
       id="filter4054"
       x="-0.36"
       width="1.72"
       y="-0.36"
       height="1.72">
      <feGaussianBlur
         inkscape:collect="always"
         stdDeviation="82.731491"
         id="feGaussianBlur4056" />
    </filter>
    <filter
       inkscape:collect="always"
       id="filter4064"
       x="-0.59387754"
       width="2.1877551"
       y="-0.91413614"
       height="2.8282723">
      <feGaussianBlur
         inkscape:collect="always"
         stdDeviation="205.76807"
         id="feGaussianBlur4066" />
    </filter>
    <radialGradient
       inkscape:collect="always"
       xlink:href="#linearGradient4070"
       id="radialGradient4076"
       cx="454.72861"
       cy="-24.577621"
       fx="454.72861"
       fy="-24.577621"
       r="960"
       gradientTransform="matrix(2.5125865,0,0,1.5703665,-786.54495,98.958119)"
       gradientUnits="userSpaceOnUse" />
  </defs>
  <sodipodi:namedview
     id="base"
     pagecolor="#ffffff"
     bordercolor="#666666"
     borderopacity="1.0"
     inkscape:pageopacity="0.0"
     inkscape:pageshadow="2"
     inkscape:zoom="0.35355339"
     inkscape:cx="1155.5032"
     inkscape:cy="181.44027"
     inkscape:document-units="px"
     inkscape:current-layer="layer2"
     showgrid="false"
     inkscape:window-width="1646"
     inkscape:window-height="1151"
     inkscape:window-x="1920"
     inkscape:window-y="0"
     inkscape:window-maximized="0" />
  <metadata
     id="metadata7">
    <rdf:RDF>
      <cc:Work
         rdf:about="">
        <dc:format>image/svg+xml</dc:format>
        <dc:type
           rdf:resource="http://purl.org/dc/dcmitype/StillImage" />
        <dc:title></dc:title>
      </cc:Work>
    </rdf:RDF>
  </metadata>
  <g
     inkscape:label="Layer 1"
     inkscape:groupmode="layer"
     id="layer1"
     transform="translate(0,147.63782)"
     sodipodi:insensitive="true">
    <rect
       style="fill:url(#radialGradient4020);fill-opacity:1;fill-rule:nonzero;stroke:none;display:inline"
       id="rect7446"
       width="1920"
       height="1200"
       x="0"
       y="-147.63782" />
    <path
       sodipodi:type="arc"
       style="fill:#00aad4;fill-opacity:1;stroke:none;filter:url(#filter4028)"
       id="path4022"
       sodipodi:cx="592"
       sodipodi:cy="164"
       sodipodi:rx="252"
       sodipodi:ry="266"
       d="M 844,164 C 844,310.90774 731.17576,430 592,430 452.82424,430 340,310.90774 340,164 c 0,-146.907743 112.82424,-266 252,-266 139.17576,0 252,119.092257 252,266 z"
       transform="matrix(1.4814596,0,0,1.2234318,82.975917,-259.45527)" />
    <path
       sodipodi:type="star"
       style="opacity:0.7;fill:#d5f6ff;fill-opacity:1;stroke:none;filter:url(#filter4054)"
       id="path4032"
       sodipodi:sides="5"
       sodipodi:cx="852"
       sodipodi:cy="46"
       sodipodi:r1="292.52692"
       sodipodi:r2="117.01077"
       sodipodi:arg1="1.1254953"
       sodipodi:arg2="1.7538138"
       inkscape:flatsided="false"
       inkscape:rounded="0"
       inkscape:randomized="0"
       d="M 977.99999,310 830.70433,161.05658 639.85722,247.4136 735.99397,61.301056 594.88856,-93.519547 801.6,-59.600003 905.23917,-241.64142 936.85711,-34.565447 1142.0151,7.7473711 954.84458,101.80782 z"
       transform="matrix(1.2951243,0,0,1.2951243,-164.75309,-157.72496)" />
    <path
       sodipodi:type="arc"
       style="opacity:0.4;fill:#0088aa;fill-opacity:1;stroke:none;filter:url(#filter4064)"
       id="path4058"
       sodipodi:cx="602.45496"
       sodipodi:cy="1017.5665"
       sodipodi:rx="415.77878"
       sodipodi:ry="270.11478"
       d="m 1018.2337,1017.5665 c 0,149.1803 -186.15047,270.1148 -415.77874,270.1148 -229.62828,0 -415.77878,-120.9345 -415.77878,-270.1148 0,-149.18024 186.1505,-270.11475 415.77878,-270.11475 229.62827,0 415.77874,120.93451 415.77874,270.11475 z"
       transform="translate(-166.8772,-170.26524)" />
    <rect
       style="opacity:0.4;fill:url(#radialGradient4076);fill-opacity:1;stroke:none"
       id="rect4068"
       width="1920"
       height="1200"
       x="0"
       y="-147.63776" />
  </g>
  <g
     inkscape:groupmode="layer"
     id="layer2"
     inkscape:label="Version">
    <rect
       style="opacity:0.2;fill:#ffffff;fill-opacity:1;stroke:none"
       id="rect3149"
       width="0.69999999"
       height="35"
       x="957.47321"
       y="583" />
    <path
       sodipodi:type="arc"
       style="opacity:0.5;fill:#ffffff;fill-opacity:1;stroke:none"
       id="path3151"
       sodipodi:cx="412"
       sodipodi:cy="1129"
       sodipodi:rx="7"
       sodipodi:ry="7"
       d="m 419,1129 a 7,7 0 1 1 -14,0 7,7 0 1 1 14,0 z"
       transform="matrix(0.42857143,0,0,0.42857143,746.42857,125.14286)" />
    <g
       id="g4093"
       style="opacity:0.5;fill:#00ccff">
      <path
         sodipodi:type="arc"
         style="fill:#00ccff;fill-opacity:1;stroke:none"
         id="path3153"
         sodipodi:cx="412"
         sodipodi:cy="1129"
         sodipodi:rx="7"
         sodipodi:ry="7"
         d="m 419,1129 a 7,7 0 1 1 -14,0 7,7 0 1 1 14,0 z"
         transform="matrix(0.42857143,0,0,0.42857143,760.42857,125.14286)" />
      <path
         transform="matrix(0.42857143,0,0,0.42857143,760.42857,113.14286)"
         d="m 419,1129 a 7,7 0 1 1 -14,0 7,7 0 1 1 14,0 z"
         sodipodi:ry="7"
         sodipodi:rx="7"
         sodipodi:cy="1129"
         sodipodi:cx="412"
         id="path3155"
         style="fill:#00ccff;fill-opacity:1;stroke:none"
         sodipodi:type="arc" />
      <path
         sodipodi:type="arc"
         style="fill:#00ccff;fill-opacity:1;stroke:none"
         id="path3157"
         sodipodi:cx="412"
         sodipodi:cy="1129"
         sodipodi:rx="7"
         sodipodi:ry="7"
         d="m 419,1129 a 7,7 0 1 1 -14,0 7,7 0 1 1 14,0 z"
         transform="matrix(0.42857143,0,0,0.42857143,766.42857,119.14286)" />
    </g>
    <path
       transform="matrix(0.35714285,0,0,0.35714285,824.78571,205.85714)"
       d="m 419,1129 a 7,7 0 1 1 -14,0 7,7 0 1 1 14,0 z"
       sodipodi:ry="7"
       sodipodi:rx="7"
       sodipodi:cy="1129"
       sodipodi:cx="412"
       id="path3159"
       style="opacity:0.58999999000000003;fill:none;stroke:#ccff00;stroke-width:2.80000019000000000;stroke-miterlimit:4;stroke-opacity:1;stroke-dasharray:none"
       sodipodi:type="arc" />
    <g
       id="g4087"
       style="opacity:0.50000000000000000;fill:#ffffff">
      <path
         transform="matrix(0.42857143,0,0,0.42857143,809.92857,124.64285)"
         d="m 419,1129 a 7,7 0 1 1 -14,0 7,7 0 1 1 14,0 z"
         sodipodi:ry="7"
         sodipodi:rx="7"
         sodipodi:cy="1129"
         sodipodi:cx="412"
         id="path3161"
         style="fill:#ffffff;fill-opacity:1;stroke:none"
         sodipodi:type="arc" />
      <path
         sodipodi:type="arc"
         style="fill:#ffffff;fill-opacity:1;stroke:none"
         id="path3163"
         sodipodi:cx="412"
         sodipodi:cy="1129"
         sodipodi:rx="7"
         sodipodi:ry="7"
         d="m 419,1129 a 7,7 0 1 1 -14,0 7,7 0 1 1 14,0 z"
         transform="matrix(0.42857143,0,0,0.42857143,809.92857,112.64285)" />
      <path
         transform="matrix(0.42857143,0,0,0.42857143,815.92857,118.64285)"
         d="m 419,1129 a 7,7 0 1 1 -14,0 7,7 0 1 1 14,0 z"
         sodipodi:ry="7"
         sodipodi:rx="7"
         sodipodi:cy="1129"
         sodipodi:cx="412"
         id="path3165"
         style="fill:#ffffff;fill-opacity:1;stroke:none"
         sodipodi:type="arc" />
      <path
         sodipodi:type="arc"
         style="fill:#ffffff;fill-opacity:1;stroke:none"
         id="path3935"
         sodipodi:cx="412"
         sodipodi:cy="1129"
         sodipodi:rx="7"
         sodipodi:ry="7"
         d="m 419,1129 a 7,7 0 1 1 -14,0 7,7 0 1 1 14,0 z"
         transform="matrix(0.42857143,0,0,0.42857143,815.92857,106.64285)" />
    </g>
  </g>
</svg>
