<?xml version="1.0" encoding="UTF-8" standalone="no"?>
<!-- Created with Inkscape (http://www.inkscape.org/) -->

<svg
   xmlns:dc="http://purl.org/dc/elements/1.1/"
   xmlns:cc="http://creativecommons.org/ns#"
   xmlns:rdf="http://www.w3.org/1999/02/22-rdf-syntax-ns#"
   xmlns:svg="http://www.w3.org/2000/svg"
   xmlns="http://www.w3.org/2000/svg"
   xmlns:xlink="http://www.w3.org/1999/xlink"
   xmlns:sodipodi="http://sodipodi.sourceforge.net/DTD/sodipodi-0.dtd"
   xmlns:inkscape="http://www.inkscape.org/namespaces/inkscape"
   width="2560"
   height="1600"
   viewBox="0 0 677.33332 423.33335"
   version="1.1"
   id="svg8"
   sodipodi:docname="final.svg"
   inkscape:version="0.92.3 (2405546, 2018-03-11)"
   inkscape:export-filename="/home/knome/.wallpapers/xubuntu-disco.png"
   inkscape:export-xdpi="96"
   inkscape:export-ydpi="96">
  <defs
     id="defs2">
    <inkscape:path-effect
       effect="powerstroke"
       id="path-effect879"
       is_visible="true"
       offset_points="0.2,0.13229166 | 0.68384226,0.66711599 | 1.9722886,1.3036131"
       sort_points="true"
       interpolator_type="CubicBezierFit"
       interpolator_beta="0.2"
       start_linecap_type="butt"
       linejoin_type="extrp_arc"
       miter_limit="4"
       end_linecap_type="butt" />
    <linearGradient
       inkscape:collect="always"
       id="linearGradient1208">
      <stop
         style="stop-color:#492424;stop-opacity:0.70552146"
         offset="0"
         id="stop1204" />
      <stop
         style="stop-color:#492424;stop-opacity:0.92024541"
         offset="1"
         id="stop1206" />
    </linearGradient>
    <inkscape:path-effect
       effect="simplify"
       id="path-effect940"
       is_visible="true"
       steps="1"
       threshold="0.00416667"
       smooth_angles="360"
       helper_size="0"
       simplify_individual_paths="false"
       simplify_just_coalesce="false"
       simplifyindividualpaths="false"
       simplifyJustCoalesce="false" />
    <inkscape:path-effect
       effect="simplify"
       id="path-effect936"
       is_visible="true"
       steps="1"
       threshold="0.00416667"
       smooth_angles="360"
       helper_size="0"
       simplify_individual_paths="false"
       simplify_just_coalesce="false"
       simplifyindividualpaths="false"
       simplifyJustCoalesce="false" />
    <inkscape:path-effect
       effect="simplify"
       id="path-effect932"
       is_visible="true"
       steps="1"
       threshold="0.00416667"
       smooth_angles="360"
       helper_size="0"
       simplify_individual_paths="false"
       simplify_just_coalesce="false"
       simplifyindividualpaths="false"
       simplifyJustCoalesce="false" />
    <linearGradient
       inkscape:collect="always"
       id="linearGradient906">
      <stop
         style="stop-color:#ffffff;stop-opacity:1;"
         offset="0"
         id="stop902" />
      <stop
         style="stop-color:#ffffff;stop-opacity:0.50471699"
         offset="1"
         id="stop904" />
    </linearGradient>
    <inkscape:path-effect
       end_linecap_type="butt"
       miter_limit="4"
       linejoin_type="extrp_arc"
       start_linecap_type="butt"
       interpolator_beta="0.2"
       interpolator_type="CubicBezierFit"
       sort_points="true"
       offset_points="0.2,0.13229166 | 0.77176349,0.59094255 | 1.2881228,0.55752011"
       is_visible="true"
       id="path-effect873"
       effect="powerstroke" />
    <inkscape:path-effect
       end_linecap_type="butt"
       miter_limit="4"
       linejoin_type="extrp_arc"
       start_linecap_type="butt"
       interpolator_beta="0.2"
       interpolator_type="CubicBezierFit"
       sort_points="true"
       offset_points="0.2,0.13229166 | 0.68384226,0.66711599 | 1.9722886,1.3036131"
       is_visible="true"
       id="path-effect869"
       effect="powerstroke" />
    <inkscape:path-effect
       effect="powerstroke"
       id="path-effect865"
       is_visible="true"
       offset_points="0.2,0.13229166 | 0.76817605,1.4265234 | 1.2881228,0.55752011"
       sort_points="true"
       interpolator_type="CubicBezierFit"
       interpolator_beta="0.2"
       start_linecap_type="butt"
       linejoin_type="extrp_arc"
       miter_limit="4"
       end_linecap_type="butt" />
    <linearGradient
       inkscape:collect="always"
       id="linearGradient859">
      <stop
         style="stop-color:#1b3762;stop-opacity:1"
         offset="0"
         id="stop855" />
      <stop
         style="stop-color:#132845;stop-opacity:1"
         offset="1"
         id="stop857" />
    </linearGradient>
    <linearGradient
       inkscape:collect="always"
       id="linearGradient830">
      <stop
         style="stop-color:#c8beb7;stop-opacity:1"
         offset="0"
         id="stop826" />
      <stop
         style="stop-color:#ac9d93;stop-opacity:0.82208592"
         offset="1"
         id="stop828" />
    </linearGradient>
    <linearGradient
       inkscape:collect="always"
       id="linearGradient1298">
      <stop
         style="stop-color:#ff6600;stop-opacity:1;"
         offset="0"
         id="stop1294" />
      <stop
         style="stop-color:#ff6600;stop-opacity:0.77300614"
         offset="1"
         id="stop1296" />
    </linearGradient>
    <radialGradient
       inkscape:collect="always"
       xlink:href="#linearGradient1298"
       id="radialGradient1300"
       cx="225.4118"
       cy="74.445885"
       fx="225.4118"
       fy="74.445885"
       r="240.08208"
       gradientTransform="matrix(0.89930011,0,0,0.79245254,70.705536,-9.3316554)"
       gradientUnits="userSpaceOnUse" />
    <radialGradient
       inkscape:collect="always"
       xlink:href="#linearGradient830"
       id="radialGradient832"
       cx="575.38892"
       cy="177.55952"
       fx="575.38892"
       fy="177.55952"
       r="71.815483"
       gradientUnits="userSpaceOnUse"
       gradientTransform="matrix(0.33891653,0,0,0.33891653,397.54031,155.22156)" />
    <radialGradient
       inkscape:collect="always"
       xlink:href="#linearGradient859"
       id="radialGradient861"
       cx="590.3988"
       cy="242.82028"
       fx="590.3988"
       fy="242.82028"
       r="338.66666"
       gradientTransform="matrix(0,-1.7898641,1.9416831,0,118.91876,1312.9122)"
       gradientUnits="userSpaceOnUse" />
    <filter
       inkscape:collect="always"
       style="color-interpolation-filters:sRGB"
       id="filter898"
       x="-0.24"
       width="1.48"
       y="-0.24"
       height="1.48">
      <feGaussianBlur
         inkscape:collect="always"
         stdDeviation="38.85123"
         id="feGaussianBlur900" />
    </filter>
    <radialGradient
       inkscape:collect="always"
       xlink:href="#linearGradient906"
       id="radialGradient908"
       cx="253.62914"
       cy="-172.15431"
       fx="253.62914"
       fy="-172.15431"
       r="456.34118"
       gradientTransform="matrix(1.6555998,0.95586107,-0.27560751,0.47736621,-213.72624,-34.73021)"
       gradientUnits="userSpaceOnUse" />
    <radialGradient
       inkscape:collect="always"
       xlink:href="#linearGradient906"
       id="radialGradient916"
       cx="232.23271"
       cy="-264.2326"
       fx="232.23271"
       fy="-264.2326"
       r="461.56625"
       gradientTransform="matrix(1,0,0,0.34920661,0,63.796189)"
       gradientUnits="userSpaceOnUse" />
    <radialGradient
       inkscape:collect="always"
       xlink:href="#linearGradient906"
       id="radialGradient924"
       cx="229.12941"
       cy="-280.8981"
       fx="229.12941"
       fy="-280.8981"
       r="555.08765"
       gradientTransform="matrix(0.84974201,0.48969709,-0.24189072,0.41973847,-26.30994,-29.973606)"
       gradientUnits="userSpaceOnUse" />
    <clipPath
       clipPathUnits="userSpaceOnUse"
       id="clipPath984">
      <circle
         r="176.89287"
         cy="53.488842"
         cx="-619.74817"
         id="circle986"
         style="opacity:1;vector-effect:none;fill:url(#radialGradient988);fill-opacity:1;fill-rule:nonzero;stroke:none;stroke-width:4.77198362;stroke-linecap:square;stroke-linejoin:round;stroke-miterlimit:4;stroke-dasharray:none;stroke-dashoffset:0;stroke-opacity:1;paint-order:markers fill stroke"
         d="m -442.8553,53.488842 c 0.46467,57.122168 -29.59771,112.492948 -76.23345,145.479958 -50.36938,35.62794 -119.35337,40.54104 -175.40998,14.88952 -55.20307,-25.26094 -94.16015,-80.80993 -101.11235,-141.169243 -6.37409,-55.340142 15.99678,-112.267715 56.92414,-150.139542 41.40445,-38.313295 101.61213,-53.428345 156.74317,-41.904825 61.085,12.76802 112.58019,60.680892 131.13572,120.24160417 5.29567,16.99837283 7.95976,34.80138683 7.95275,52.60252783 z" />
    </clipPath>
    <radialGradient
       inkscape:collect="always"
       xlink:href="#linearGradient1298"
       id="radialGradient988"
       gradientUnits="userSpaceOnUse"
       gradientTransform="matrix(0.89930011,0,0,0.79245254,-766.86609,33.663137)"
       cx="225.4118"
       cy="74.445885"
       fx="225.4118"
       fy="74.445885"
       r="240.08208" />
    <radialGradient
       inkscape:collect="always"
       xlink:href="#linearGradient1208"
       id="radialGradient1210"
       cx="205.21022"
       cy="52.978444"
       fx="205.21022"
       fy="52.978444"
       r="185.78692"
       gradientTransform="matrix(1,0,0,1.2344764,0,-12.422194)"
       gradientUnits="userSpaceOnUse" />
    <clipPath
       clipPathUnits="userSpaceOnUse"
       id="clipPath1216">
      <circle
         r="176.89287"
         cy="10.494049"
         cx="217.82347"
         id="circle1218"
         style="opacity:1;vector-effect:none;fill:url(#radialGradient1220);fill-opacity:1;fill-rule:nonzero;stroke:none;stroke-width:4.77198362;stroke-linecap:square;stroke-linejoin:round;stroke-miterlimit:4;stroke-dasharray:none;stroke-dashoffset:0;stroke-opacity:1;paint-order:markers fill stroke" />
    </clipPath>
    <radialGradient
       inkscape:collect="always"
       xlink:href="#linearGradient1298"
       id="radialGradient1220"
       gradientUnits="userSpaceOnUse"
       gradientTransform="matrix(0.89930011,0,0,0.79245254,70.705536,-9.3316546)"
       cx="225.4118"
       cy="74.445885"
       fx="225.4118"
       fy="74.445885"
       r="240.08208" />
    <filter
       inkscape:collect="always"
       style="color-interpolation-filters:sRGB"
       id="filter907"
       x="-0.1206711"
       width="1.2413422"
       y="-0.35409229"
       height="1.7081846">
      <feGaussianBlur
         inkscape:collect="always"
         stdDeviation="46.696189"
         id="feGaussianBlur909" />
    </filter>
  </defs>
  <sodipodi:namedview
     id="base"
     pagecolor="#ffffff"
     bordercolor="#666666"
     borderopacity="1.0"
     inkscape:pageopacity="0.0"
     inkscape:pageshadow="2"
     inkscape:zoom="0.45254834"
     inkscape:cx="981.68534"
     inkscape:cy="969.63645"
     inkscape:document-units="px"
     inkscape:current-layer="layer2"
     showgrid="false"
     units="px"
     inkscape:window-width="2560"
     inkscape:window-height="1390"
     inkscape:window-x="0"
     inkscape:window-y="0"
     inkscape:window-maximized="1"
     showguides="false" />
  <metadata
     id="metadata5">
    <rdf:RDF>
      <cc:Work
         rdf:about="">
        <dc:format>image/svg+xml</dc:format>
        <dc:type
           rdf:resource="http://purl.org/dc/dcmitype/StillImage" />
        <dc:title />
      </cc:Work>
    </rdf:RDF>
  </metadata>
  <g
     inkscape:groupmode="layer"
     id="layer3"
     inkscape:label="BG"
     style="display:inline"
     sodipodi:insensitive="true">
    <rect
       transform="translate(0,126.33334)"
       style="opacity:1;vector-effect:none;fill:url(#radialGradient861);fill-opacity:1;fill-rule:nonzero;stroke:none;stroke-width:6.71757555;stroke-linecap:square;stroke-linejoin:round;stroke-miterlimit:4;stroke-dasharray:none;stroke-dashoffset:0;stroke-opacity:1;paint-order:markers fill stroke"
       id="rect1282"
       width="677.33331"
       height="423.33334"
       x="0"
       y="-126.33334" />
  </g>
  <g
     inkscape:groupmode="layer"
     id="layer5"
     inkscape:label="Lines BG"
     sodipodi:insensitive="true"
     style="display:inline">
    <path
       style="opacity:0.65;vector-effect:none;fill:none;fill-opacity:1;fill-rule:nonzero;stroke:#3e89fb;stroke-width:35;stroke-linecap:butt;stroke-linejoin:miter;stroke-miterlimit:4;stroke-dasharray:none;stroke-dashoffset:0;stroke-opacity:1;filter:url(#filter907)"
       d="m -126.62393,67.122482 c 0,0 302.27323,-50.630299 436.20134,58.935898 133.9281,109.5662 157.83237,222.38986 279.44181,244.17067 121.60944,21.78081 213.08675,-171.05792 213.08675,-171.05792"
       id="path877"
       inkscape:connector-curvature="0"
       sodipodi:nodetypes="czzc" />
  </g>
  <g
     inkscape:label="Highlight"
     inkscape:groupmode="layer"
     id="layer1"
     transform="translate(0,126.33334)"
     style="display:inline">
    <circle
       r="194.25615"
       cy="10.494045"
       cx="217.82347"
       id="circle882"
       style="opacity:0.22600002;vector-effect:none;fill:#fea56a;fill-opacity:1;fill-rule:nonzero;stroke:none;stroke-width:5.24038744;stroke-linecap:square;stroke-linejoin:round;stroke-miterlimit:4;stroke-dasharray:none;stroke-dashoffset:0;stroke-opacity:1;paint-order:markers fill stroke;filter:url(#filter898)" />
    <circle
       style="opacity:1;vector-effect:none;fill:url(#radialGradient1300);fill-opacity:1;fill-rule:nonzero;stroke:none;stroke-width:4.77198362;stroke-linecap:square;stroke-linejoin:round;stroke-miterlimit:4;stroke-dasharray:none;stroke-dashoffset:0;stroke-opacity:1;paint-order:markers fill stroke"
       id="path1284"
       cx="217.82347"
       cy="10.494045"
       r="176.89287" />
    <path
       id="path12955"
       style="opacity:0.03999999;fill:url(#radialGradient1210);fill-opacity:1;stroke:none;stroke-width:10.78150272"
       d="m 140.34587,-35.761403 c -23.18491,2.033756 -40.1324,24.439058 -31.12843,46.361313 C 92.292412,20.707014 69.709028,-2.6949037 51.512078,11.235928 25.608942,27.004124 34.559637,62.030242 26.738285,87.015725 19.025072,137.66597 11.157135,194.42437 38.419263,240.7585 c 22.135507,35.56986 67.412767,46.23773 106.513347,39.80225 37.60865,-4.97025 78.52129,-10.09532 106.92202,-37.95148 32.41971,-28.59891 74.69948,-49.20736 95.13244,-89.04073 C 351.63144,116.1898 316.66516,88.537901 285.58854,75.795814 246.25194,58.825215 197.74322,51.968508 171.43971,14.547998 161.58838,-1.6271877 166.35528,-35.402332 140.34587,-35.761403 Z M 293.85782,-176.27909 c -16.4613,0.6009 -27.46193,17.14524 -28.37996,32.40963 -3.07305,20.78014 1.19514,43.1809 -8.78719,62.520743 -1.05424,11.637382 12.20599,19.287619 22.10384,21.844236 13.0338,3.589451 26.76679,-2.610127 34.48203,-13.29354 12.46027,-15.833466 13.22967,-36.914439 14.52083,-56.154869 0.48015,-17.5667 -6.54806,-37.84205 -23.40559,-45.73862 -3.31822,-1.36258 -6.96106,-1.91552 -10.53396,-1.58758 z m 76.56074,51.41719 c -14.46187,-0.6203 -24.07377,13.74597 -26.65706,26.481326 -4.36846,20.155886 -15.65986,37.548069 -25.05807,55.566256 -6.59088,12.784822 5.401,30.101451 19.7811,28.35353 18.08005,0.116336 36.03837,-14.072622 37.73575,-32.517664 6.22915,-19.446768 18.89799,-39.052233 13.44732,-60.240428 -2.24353,-8.85532 -9.31224,-17.91225 -19.24904,-17.64302 z"
       clip-path="url(#clipPath1216)"
       inkscape:connector-curvature="0" />
  </g>
  <g
     inkscape:groupmode="layer"
     id="layer4"
     inkscape:label="Lines"
     style="display:inline"
     sodipodi:insensitive="true">
    <path
       transform="translate(0,126.33334)"
       style="opacity:1;vector-effect:none;fill:url(#radialGradient924);fill-opacity:1;fill-rule:nonzero;stroke:none;stroke-width:0.26458332;stroke-linecap:butt;stroke-linejoin:miter;stroke-miterlimit:4;stroke-dasharray:none;stroke-dashoffset:0;stroke-opacity:1"
       d="m -300.396,-0.34172831 c 10.12467,-7.99424859 24.85894,-16.08314969 43.19649,-23.87267669 11.00164,-4.67334 23.29843,-9.238164 36.67199,-13.609645 8.92743,-2.878214 18.33243,-5.667264 28.14985,-8.342797 49.08949,-13.378316 108.484018,-23.917029 170.068631,-28.579734 61.592218,-4.663279 125.337959,-3.447147 183.193979,6.661294 4.20598,0.734858 8.38068,1.516677 12.52111,2.346624 52.80347,10.584412 100.05725,28.932155 135.40405,57.6743782 44.13248,35.8875968 77.26733,69.7457388 104.63671,100.4864058 20.12201,22.600579 37.20931,43.418459 53.43568,61.938869 19.14325,21.84967 37.09657,40.51089 57.42201,55.10759 20.33218,14.60155 43.03094,25.13116 71.66292,30.73435 28.68328,5.61322 56.45932,-0.0766 81.9729,-11.7466 25.51041,-11.66857 48.77278,-29.32174 68.44572,-47.66084 39.34469,-36.6771 64.38801,-76.15052 64.39862,-76.16727 l -0.94178,-0.59694 c 0.0144,-0.0228 -24.95075,39.39638 -64.16256,76.00776 -19.60869,18.3083 -42.76933,35.90617 -68.14426,47.53415 -25.37177,11.62652 -52.94334,17.27866 -81.39093,11.72109 -28.49892,-5.56762 -51.07761,-16.04033 -71.30192,-30.5755 -20.23104,-14.54002 -38.11323,-33.1499 -57.21688,-55.00861 C 451.43807,135.18732 434.37872,114.33829 414.28024,91.681388 386.95507,60.877878 354.16404,26.552712 310.22088,-9.7846808 274.70221,-39.154666 227.09897,-57.947542 173.96522,-68.536378 c -4.16549,-0.830125 -8.36482,-1.610223 -12.59483,-2.341552 -58.17582,-10.058045 -122.168765,-10.895093 -183.830779,-5.776141 -61.670471,5.119657 -121.047031,16.199211 -170.052761,29.998127 -9.8016,2.759911 -19.18859,5.628664 -28.09658,8.580405 -13.37955,4.373441 -25.68356,8.94086 -36.69323,13.617611 -18.34798,7.793956 -33.10621,15.8936674 -43.257,23.90854367 z"
       id="path863"
       inkscape:connector-curvature="0"
       sodipodi:nodetypes="czzc"
       inkscape:path-effect="#path-effect865"
       inkscape:original-d="M -300.47798,-0.44555632 C -219.37614,-64.482056 156.67101,-134.26213 309.51549,-8.9244828 462.35997,116.41316 481.7945,217.40698 596.05625,239.7486 710.318,262.09021 810.31377,104.32975 810.31377,104.32975" />
    <path
       inkscape:original-d="m -126.62393,67.122482 c 0,0 294.0881,-45.953082 428.01621,63.613118 133.9281,109.5662 154.90911,222.38986 276.51855,244.17067 121.60944,21.78081 208.40953,-58.80472 208.40953,-58.80472"
       inkscape:path-effect="#path-effect869"
       sodipodi:nodetypes="czzc"
       inkscape:connector-curvature="0"
       id="path867"
       d="m -126.60351,67.253188 c 0,0 0,0 0,0 -0.002,2.93e-4 11.75408,-1.889385 31.649823,-3.901712 29.848147,-3.018947 77.972722,-6.477424 132.103053,-5.02859 33.170874,0.88784 68.587144,3.618169 103.435234,9.418535 12.78781,2.128495 25.22807,4.629075 37.2639,7.522577 50.51427,12.144008 92.02741,30.751392 122.99185,56.146242 39.12556,32.08781 67.84345,63.97388 88.68522,88.71132 21.75646,25.8231 38.40919,47.76965 53.85749,66.3589 20.34084,24.47656 38.08909,42.95132 58.11424,57.50919 21.55767,15.67197 45.88869,26.76788 76.18311,32.20312 26.5658,4.76628 52.67226,4.88061 77.97683,1.05731 25.54857,-3.86016 49.97949,-11.69614 72.62251,-22.391 15.76547,-7.44642 29.45827,-15.71541 40.58161,-23.49011 11.29193,-7.89255 17.73197,-13.74203 18.34596,-14.31206 l -1.77392,-1.91072 c 0.0394,-0.0366 -7.35341,6.59522 -18.06898,14.08046 -11.01629,7.6953 -24.58391,15.88378 -40.20592,23.25771 -22.43584,10.59019 -46.62186,18.33929 -71.89523,22.1584 -25.02781,3.782 -50.84418,3.67527 -77.12202,-1.02299 -29.89451,-5.34488 -53.87963,-16.2485 -75.16963,-31.66228 -19.80877,-14.34139 -37.4515,-32.59203 -57.81255,-56.95701 -15.45781,-18.49753 -32.17801,-40.40253 -54.0501,-66.21686 C 370.15371,194.05137 341.26588,162.1506 301.94421,130.06095 270.6598,104.53019 228.85053,85.940621 178.17915,73.881621 166.1015,71.007327 153.62328,68.528917 140.80216,66.425046 105.86537,60.692122 70.378538,58.096041 37.172901,57.360546 c -54.185217,-1.200187 -102.322627,2.553304 -132.153899,5.72776 -19.889192,2.116482 -31.661172,3.903129 -31.663352,3.90347 z"
       style="opacity:1;vector-effect:none;fill:url(#radialGradient908);fill-opacity:1;fill-rule:nonzero;stroke:none;stroke-width:0.26458332;stroke-linecap:butt;stroke-linejoin:miter;stroke-miterlimit:4;stroke-dasharray:none;stroke-dashoffset:0;stroke-opacity:1" />
    <path
       transform="translate(0,126.33334)"
       inkscape:original-d="m -138.34678,-31.642815 c 0,0 293.11942,-83.483315 436.40196,23.4519736 C 441.33772,98.744448 475.7682,230.93883 591.35237,234.62356 706.93654,238.30829 785.41738,76.837114 785.41738,76.837114"
       inkscape:path-effect="#path-effect873"
       sodipodi:nodetypes="czzc"
       inkscape:connector-curvature="0"
       id="path871"
       d="m -138.31054,-31.515583 c -0.002,5.63e-4 11.71178,-3.376806 31.62353,-7.824961 29.871186,-6.673026 78.141891,-15.882893 132.842226,-20.2887 45.585735,-3.671676 95.613184,-4.00502 143.177724,3.23575 4.14037,0.63029 8.26193,1.317947 12.3602,2.065765 42.98231,7.843058 83.38996,22.300275 115.99973,46.6223248 41.24739,30.7644842 73.48639,63.6176402 101.22958,94.9285122 20.40097,23.024472 38.38055,45.202742 55.75025,65.077482 20.48965,23.44463 40.14648,43.70186 61.93031,58.32631 21.7964,14.63288 45.71982,23.62519 74.73168,24.55025 29.03197,0.92569 55.71563,-8.52063 79.39444,-23.18156 23.67628,-14.65937 44.36512,-34.5421 61.42265,-54.5225 34.11366,-39.95915 53.75872,-80.375155 53.76703,-80.392263 l -1.00286,-0.487426 c 0.0119,-0.02457 -19.59402,40.310639 -53.60986,80.157729 -17.01069,19.9268 -37.61408,39.72097 -61.16102,54.30113 -23.5444,14.57858 -50.01488,23.93437 -78.77502,23.01771 -28.78024,-0.91732 -52.50468,-9.83107 -74.14962,-24.36269 -21.65753,-14.54007 -41.2355,-34.70577 -61.7118,-58.13723 C 438.15932,131.71688 420.17646,109.53213 399.75704,86.483625 371.99032,55.141824 339.73606,22.180248 298.4175,-8.676275 265.62262,-33.167317 225.0151,-47.68462 181.90451,-55.49056 c -4.11112,-0.744391 -8.24512,-1.42778 -12.39739,-2.053027 -47.6937,-7.181677 -97.811488,-6.694507 -143.415813,-2.862294 -54.727829,4.598876 -102.989862,14.017896 -132.836497,20.80723 -19.89911,4.52653 -31.63562,7.827976 -31.63783,7.828604 z"
       style="opacity:1;vector-effect:none;fill:url(#radialGradient916);fill-opacity:1;fill-rule:nonzero;stroke:none;stroke-width:0.26458332;stroke-linecap:butt;stroke-linejoin:miter;stroke-miterlimit:4;stroke-dasharray:none;stroke-dashoffset:0;stroke-opacity:1" />
  </g>
  <g
     inkscape:groupmode="layer"
     id="layer2"
     inkscape:label="Passepartout"
     style="display:inline">
    <path
       style="opacity:1;vector-effect:none;fill:#ffffff;fill-opacity:1;fill-rule:nonzero;stroke:none;stroke-width:16.55434418;stroke-linecap:square;stroke-linejoin:round;stroke-miterlimit:4;stroke-dasharray:none;stroke-dashoffset:0;stroke-opacity:1;paint-order:markers fill stroke"
       d="M -1000,-1000 V 2600 H 3650 V -1000 Z M 0,0 H 2560 V 1600 H 0 Z"
       transform="scale(0.26458334)"
       id="rect1303"
       inkscape:connector-curvature="0" />
  </g>
</svg>
