<?xml version="1.0" encoding="UTF-8" standalone="no"?>
<!-- Created with Inkscape (http://www.inkscape.org/) -->

<svg
   xmlns:dc="http://purl.org/dc/elements/1.1/"
   xmlns:cc="http://creativecommons.org/ns#"
   xmlns:rdf="http://www.w3.org/1999/02/22-rdf-syntax-ns#"
   xmlns:svg="http://www.w3.org/2000/svg"
   xmlns="http://www.w3.org/2000/svg"
   xmlns:xlink="http://www.w3.org/1999/xlink"
   xmlns:sodipodi="http://sodipodi.sourceforge.net/DTD/sodipodi-0.dtd"
   xmlns:inkscape="http://www.inkscape.org/namespaces/inkscape"
   width="2560"
   height="1600"
   viewBox="0 0 677.33332 423.33335"
   version="1.1"
   id="svg8"
   sodipodi:docname="final.svg"
   inkscape:version="0.92.3 (2405546, 2018-03-11)"
   inkscape:export-filename="/ssh/kapsiweb/links/temp.knome.fi/xubuntu/.wall-1910/xubuntu-eoan.png"
   inkscape:export-xdpi="96"
   inkscape:export-ydpi="96">
  <defs
     id="defs2">
    <inkscape:path-effect
       end_linecap_type="round"
       miter_limit="4"
       linejoin_type="extrp_arc"
       start_linecap_type="zerowidth"
       interpolator_beta="0.2"
       interpolator_type="CubicBezierFit"
       sort_points="true"
       offset_points="0.2,0.13229166 | 0.93821181,1.4994129"
       is_visible="true"
       id="path-effect886"
       effect="powerstroke" />
    <linearGradient
       inkscape:collect="always"
       id="linearGradient880">
      <stop
         style="stop-color:#ffffff;stop-opacity:1;"
         offset="0"
         id="stop876" />
      <stop
         style="stop-color:#ffffff;stop-opacity:0;"
         offset="1"
         id="stop878" />
    </linearGradient>
    <inkscape:path-effect
       effect="powerstroke"
       id="path-effect874"
       is_visible="true"
       offset_points="0.2,0.13229166 | 0.93821181,1.4994129"
       sort_points="true"
       interpolator_type="CubicBezierFit"
       interpolator_beta="0.2"
       start_linecap_type="zerowidth"
       linejoin_type="extrp_arc"
       miter_limit="4"
       end_linecap_type="round" />
    <inkscape:path-effect
       effect="powerstroke"
       id="path-effect870"
       is_visible="true"
       offset_points="0.2,1.322965 | 1,1.322965 | 1.8,1.322965"
       sort_points="false"
       interpolator_type="CubicBezierSmooth"
       interpolator_beta="0.2"
       start_linecap_type="zerowidth"
       linejoin_type="extrp_arc"
       miter_limit="4"
       end_linecap_type="round" />
    <linearGradient
       inkscape:collect="always"
       id="linearGradient913">
      <stop
         style="stop-color:#ffffff;stop-opacity:0.63106793"
         offset="0"
         id="stop909" />
      <stop
         id="stop890"
         offset="0.49961159"
         style="stop-color:#ffffff;stop-opacity:0.93689322" />
      <stop
         style="stop-color:#ffffff;stop-opacity:0;"
         offset="1"
         id="stop911" />
    </linearGradient>
    <inkscape:path-effect
       effect="powerstroke"
       id="path-effect899"
       is_visible="true"
       offset_points="2,12.905744 | 1.0207532,2.1058189"
       sort_points="true"
       interpolator_type="CubicBezierFit"
       interpolator_beta="0.2"
       start_linecap_type="zerowidth"
       linejoin_type="extrp_arc"
       miter_limit="4"
       end_linecap_type="butt" />
    <linearGradient
       inkscape:collect="always"
       id="linearGradient1027">
      <stop
         style="stop-color:#2c89a0;stop-opacity:1"
         offset="0"
         id="stop1023" />
      <stop
         style="stop-color:#374548;stop-opacity:0;"
         offset="1"
         id="stop1025" />
    </linearGradient>
    <inkscape:path-effect
       effect="powerstroke"
       id="path-effect879"
       is_visible="true"
       offset_points="0.2,0.13229166 | 0.68384226,0.66711599 | 1.9722886,1.3036131"
       sort_points="true"
       interpolator_type="CubicBezierFit"
       interpolator_beta="0.2"
       start_linecap_type="butt"
       linejoin_type="extrp_arc"
       miter_limit="4"
       end_linecap_type="butt" />
    <inkscape:path-effect
       effect="simplify"
       id="path-effect940"
       is_visible="true"
       steps="1"
       threshold="0.00416667"
       smooth_angles="360"
       helper_size="0"
       simplify_individual_paths="false"
       simplify_just_coalesce="false"
       simplifyindividualpaths="false"
       simplifyJustCoalesce="false" />
    <inkscape:path-effect
       effect="simplify"
       id="path-effect936"
       is_visible="true"
       steps="1"
       threshold="0.00416667"
       smooth_angles="360"
       helper_size="0"
       simplify_individual_paths="false"
       simplify_just_coalesce="false"
       simplifyindividualpaths="false"
       simplifyJustCoalesce="false" />
    <inkscape:path-effect
       effect="simplify"
       id="path-effect932"
       is_visible="true"
       steps="1"
       threshold="0.00416667"
       smooth_angles="360"
       helper_size="0"
       simplify_individual_paths="false"
       simplify_just_coalesce="false"
       simplifyindividualpaths="false"
       simplifyJustCoalesce="false" />
    <inkscape:path-effect
       end_linecap_type="butt"
       miter_limit="4"
       linejoin_type="extrp_arc"
       start_linecap_type="butt"
       interpolator_beta="0.2"
       interpolator_type="CubicBezierFit"
       sort_points="true"
       offset_points="0.2,0.13229166 | 0.77176349,0.59094255 | 1.2881228,0.55752011"
       is_visible="true"
       id="path-effect873"
       effect="powerstroke" />
    <inkscape:path-effect
       end_linecap_type="butt"
       miter_limit="4"
       linejoin_type="extrp_arc"
       start_linecap_type="butt"
       interpolator_beta="0.2"
       interpolator_type="CubicBezierFit"
       sort_points="true"
       offset_points="0.2,0.13229166 | 0.68384226,0.66711599 | 1.9722886,1.3036131"
       is_visible="true"
       id="path-effect869"
       effect="powerstroke" />
    <inkscape:path-effect
       effect="powerstroke"
       id="path-effect865"
       is_visible="true"
       offset_points="0.2,0.13229166 | 0.76817605,1.4265234 | 1.2881228,0.55752011"
       sort_points="true"
       interpolator_type="CubicBezierFit"
       interpolator_beta="0.2"
       start_linecap_type="butt"
       linejoin_type="extrp_arc"
       miter_limit="4"
       end_linecap_type="butt" />
    <linearGradient
       inkscape:collect="always"
       id="linearGradient830">
      <stop
         style="stop-color:#c8beb7;stop-opacity:1"
         offset="0"
         id="stop826" />
      <stop
         style="stop-color:#ac9d93;stop-opacity:0.82208592"
         offset="1"
         id="stop828" />
    </linearGradient>
    <linearGradient
       inkscape:collect="always"
       id="linearGradient1298">
      <stop
         style="stop-color:#ff6600;stop-opacity:1;"
         offset="0"
         id="stop1294" />
      <stop
         style="stop-color:#ff6600;stop-opacity:0.77300614"
         offset="1"
         id="stop1296" />
    </linearGradient>
    <radialGradient
       inkscape:collect="always"
       xlink:href="#linearGradient830"
       id="radialGradient832"
       cx="575.38892"
       cy="177.55952"
       fx="575.38892"
       fy="177.55952"
       r="71.815483"
       gradientUnits="userSpaceOnUse"
       gradientTransform="matrix(0.33891653,0,0,0.33891653,397.54031,155.22156)" />
    <clipPath
       clipPathUnits="userSpaceOnUse"
       id="clipPath984">
      <circle
         r="176.89287"
         cy="53.488842"
         cx="-619.74817"
         id="circle986"
         style="opacity:1;vector-effect:none;fill:url(#radialGradient988);fill-opacity:1;fill-rule:nonzero;stroke:none;stroke-width:4.77198362;stroke-linecap:square;stroke-linejoin:round;stroke-miterlimit:4;stroke-dasharray:none;stroke-dashoffset:0;stroke-opacity:1;paint-order:markers fill stroke"
         d="m -442.8553,53.488842 c 0.46467,57.122168 -29.59771,112.492948 -76.23345,145.479958 -50.36938,35.62794 -119.35337,40.54104 -175.40998,14.88952 -55.20307,-25.26094 -94.16015,-80.80993 -101.11235,-141.169243 -6.37409,-55.340142 15.99678,-112.267715 56.92414,-150.139542 41.40445,-38.313295 101.61213,-53.428345 156.74317,-41.904825 61.085,12.76802 112.58019,60.680892 131.13572,120.24160417 5.29567,16.99837283 7.95976,34.80138683 7.95275,52.60252783 z" />
    </clipPath>
    <radialGradient
       inkscape:collect="always"
       xlink:href="#linearGradient1298"
       id="radialGradient988"
       gradientUnits="userSpaceOnUse"
       gradientTransform="matrix(0.89930011,0,0,0.79245254,-766.86609,33.663137)"
       cx="225.4118"
       cy="74.445885"
       fx="225.4118"
       fy="74.445885"
       r="240.08208" />
    <clipPath
       clipPathUnits="userSpaceOnUse"
       id="clipPath1216">
      <circle
         r="176.89287"
         cy="10.494049"
         cx="217.82347"
         id="circle1218"
         style="opacity:1;vector-effect:none;fill:url(#radialGradient1220);fill-opacity:1;fill-rule:nonzero;stroke:none;stroke-width:4.77198362;stroke-linecap:square;stroke-linejoin:round;stroke-miterlimit:4;stroke-dasharray:none;stroke-dashoffset:0;stroke-opacity:1;paint-order:markers fill stroke" />
    </clipPath>
    <radialGradient
       inkscape:collect="always"
       xlink:href="#linearGradient1298"
       id="radialGradient1220"
       gradientUnits="userSpaceOnUse"
       gradientTransform="matrix(0.89930011,0,0,0.79245254,70.705536,-9.3316546)"
       cx="225.4118"
       cy="74.445885"
       fx="225.4118"
       fy="74.445885"
       r="240.08208" />
    <radialGradient
       inkscape:collect="always"
       xlink:href="#linearGradient1027"
       id="radialGradient1029"
       cx="371.01544"
       cy="156.4129"
       fx="371.01544"
       fy="156.4129"
       r="338.66666"
       gradientTransform="matrix(2.835505,-1.6370795,1.0002463,1.7324775,-800.01708,516.81793)"
       gradientUnits="userSpaceOnUse" />
    <linearGradient
       inkscape:collect="always"
       xlink:href="#linearGradient913"
       id="linearGradient915"
       x1="719.65509"
       y1="89.223534"
       x2="-19.418726"
       y2="311.75455"
       gradientUnits="userSpaceOnUse"
       gradientTransform="rotate(0.8817945,-2699.6338,-189.48185)" />
    <linearGradient
       inkscape:collect="always"
       xlink:href="#linearGradient880"
       id="linearGradient882"
       x1="895.10236"
       y1="151.01282"
       x2="-384.36334"
       y2="364.87799"
       gradientUnits="userSpaceOnUse"
       gradientTransform="rotate(5.0543741,-136.51254,318.00959)" />
    <linearGradient
       inkscape:collect="always"
       xlink:href="#linearGradient880"
       id="linearGradient888"
       gradientUnits="userSpaceOnUse"
       x1="1001.509"
       y1="148.67421"
       x2="-103.79673"
       y2="352.9772"
       gradientTransform="rotate(5.0543741,-208.4487,314.83459)" />
  </defs>
  <sodipodi:namedview
     id="base"
     pagecolor="#ffffff"
     bordercolor="#666666"
     borderopacity="1.0"
     inkscape:pageopacity="0.0"
     inkscape:pageshadow="2"
     inkscape:zoom="0.16"
     inkscape:cx="1739.3209"
     inkscape:cy="230.51077"
     inkscape:document-units="px"
     inkscape:current-layer="layer7"
     showgrid="false"
     units="px"
     inkscape:window-width="2560"
     inkscape:window-height="1390"
     inkscape:window-x="0"
     inkscape:window-y="0"
     inkscape:window-maximized="1"
     showguides="false"
     inkscape:snap-bbox="false"
     inkscape:snap-bbox-midpoints="false"
     inkscape:snap-object-midpoints="true"
     inkscape:snap-center="false"
     inkscape:snap-others="true"
     inkscape:guide-bbox="true"
     inkscape:lockguides="true" />
  <metadata
     id="metadata5">
    <rdf:RDF>
      <cc:Work
         rdf:about="">
        <dc:format>image/svg+xml</dc:format>
        <dc:type
           rdf:resource="http://purl.org/dc/dcmitype/StillImage" />
        <dc:title />
      </cc:Work>
    </rdf:RDF>
  </metadata>
  <g
     inkscape:groupmode="layer"
     id="layer3"
     inkscape:label="BG"
     style="display:inline"
     sodipodi:insensitive="true">
    <rect
       transform="translate(0,126.33334)"
       style="opacity:1;vector-effect:none;fill:#374548;fill-opacity:1;fill-rule:nonzero;stroke:none;stroke-width:6.71757555;stroke-linecap:square;stroke-linejoin:round;stroke-miterlimit:4;stroke-dasharray:none;stroke-dashoffset:0;stroke-opacity:1;paint-order:markers fill stroke"
       id="rect1282"
       width="677.33331"
       height="423.33334"
       x="0"
       y="-126.33334" />
    <rect
       y="-126.33334"
       x="0"
       height="423.33334"
       width="677.33331"
       id="rect1021"
       style="opacity:1;vector-effect:none;fill:url(#radialGradient1029);fill-opacity:1;fill-rule:nonzero;stroke:none;stroke-width:6.71757555;stroke-linecap:square;stroke-linejoin:round;stroke-miterlimit:4;stroke-dasharray:none;stroke-dashoffset:0;stroke-opacity:1;paint-order:markers fill stroke"
       transform="translate(0,126.33334)" />
  </g>
  <g
     inkscape:groupmode="layer"
     id="layer6"
     inkscape:label="Rings B">
    <path
       style="opacity:1;vector-effect:none;fill:url(#linearGradient882);fill-opacity:1;fill-rule:nonzero;stroke:none;stroke-width:0.26458332;stroke-linecap:butt;stroke-linejoin:miter;stroke-miterlimit:4;stroke-dasharray:none;stroke-dashoffset:0;stroke-opacity:1"
       d="m -63.685398,373.84002 c 0.0082,0.0293 8.889016,-2.3944 18.658765,-4.96747 10.181131,-2.68142 20.462158,-5.33283 30.447394,-7.86495 18.8425961,-4.77823 34.727317,-8.65106 46.396163,-11.44941 10.373662,-2.48775 28.221132,-6.71738 51.289297,-11.94825 12.139953,-2.75283 30.449339,-6.85478 52.525829,-11.5908 21.59642,-4.63303 53.82024,-11.3842 91.93757,-18.69485 29.68678,-5.69372 68.17438,-12.7335 111.40669,-19.66146 42.94677,-6.8822 96.80261,-14.65847 154.48227,-20.62634 58.98264,-6.10269 129.88296,-11.1482 199.03995,-9.70276 20.53806,0.42926 40.50368,1.35111 59.72954,2.94294 a 1.4994129,1.4994129 90 0 0 0.24744,-2.9886 c -19.29627,-1.59766 -39.3233,-2.59264 -59.91945,-2.95261 -69.33443,-1.21181 -140.33029,4.07193 -199.34236,10.37119 -57.72671,6.16205 -111.57446,14.11926 -154.52916,21.15547 -43.24896,7.0844 -81.69127,14.26277 -111.38311,20.07854 -38.15303,7.47307 -70.2527,14.34697 -91.88266,19.09576 -22.11058,4.8543 -40.296977,9.03282 -52.474677,11.86795 -22.69907,5.28464 -41.203854,9.79635 -51.224453,12.25259 -11.220644,2.75039 -27.9636632,6.89075 -46.360095,11.61065 -9.892802,2.53815 -20.33891,5.26287 -30.424262,7.96148 -9.420456,2.5207 -18.633409,5.06536 -18.620681,5.11093 z"
       id="path872"
       inkscape:connector-curvature="0"
       inkscape:path-effect="#path-effect874"
       inkscape:original-d="m -63.685398,373.84002 c 0,0 504.310038,-140.86756 816.037188,-115.05765" />
    <path
       inkscape:original-d="m -119.68214,416.3476 c 0,0 514.61922,-210.97483 921.81245,-129.76668"
       inkscape:path-effect="#path-effect886"
       inkscape:connector-curvature="0"
       id="path884"
       d="m -119.68214,416.3476 c 0.0115,0.0281 9.1014,-3.60192 19.17925,-7.41466 10.477001,-3.96375 21.181935,-7.88331 31.537755,-11.58249 19.488029,-6.96129 36.32933,-12.64219 48.473955,-16.65197 10.8003883,-3.56596 29.7416351,-9.72666 54.095582,-17.1367 12.879201,-3.91868 32.291443,-9.71664 55.920388,-16.32243 23.11484,-6.46206 57.68391,-15.78114 99.16449,-25.54248 32.29963,-7.60086 74.4294,-16.80569 122.54514,-25.30748 47.79624,-8.44534 108.39618,-17.42851 175.17062,-22.62444 68.2796,-5.31306 152.15607,-7.40519 238.99484,2.48065 25.78936,2.9359 51.32184,6.79692 76.43717,11.80578 a 1.4994129,1.4994129 90 0 0 0.58652,-2.94092 c -25.20414,-5.02656 -50.81145,-8.96997 -76.68853,-11.84489 -87.11275,-9.67817 -171.16299,-7.34779 -239.51502,-1.83598 -66.85999,5.3915 -127.49184,14.56229 -175.30579,23.16392 -48.13987,8.66025 -90.25059,18.00902 -122.55024,25.73203 -41.49629,9.92196 -75.99091,19.37195 -99.112085,25.94594 -23.635505,6.72023 -42.971972,12.60177 -55.860081,16.59826 -24.1471084,7.48782 -43.400727,13.8781 -54.013356,17.437 -11.911612,3.99452 -29.169722,9.87482 -48.427223,16.81058 -10.305014,3.71144 -21.085536,7.69025 -31.506915,11.6769 -9.71973,3.71824 -19.15178,7.49164 -19.12647,7.55338 z"
       style="opacity:1;vector-effect:none;fill:url(#linearGradient888);fill-opacity:1;fill-rule:nonzero;stroke:none;stroke-width:0.26458332;stroke-linecap:butt;stroke-linejoin:miter;stroke-miterlimit:4;stroke-dasharray:none;stroke-dashoffset:0;stroke-opacity:1"
       sodipodi:nodetypes="cc" />
  </g>
  <g
     inkscape:groupmode="layer"
     id="layer1"
     inkscape:label="Planet"
     style="display:inline">
    <circle
       style="display:inline;opacity:1;vector-effect:none;fill:#46aec8;fill-opacity:1;fill-rule:nonzero;stroke:none;stroke-width:2.11666703;stroke-linecap:butt;stroke-linejoin:round;stroke-miterlimit:4;stroke-dasharray:8.46666798, 2.11666699;stroke-dashoffset:0;stroke-opacity:1;paint-order:normal"
       id="path1035"
       cx="408.45053"
       cy="306.75131"
       r="152.99667" />
  </g>
  <g
     inkscape:groupmode="layer"
     id="layer7"
     inkscape:label="Rings A">
    <path
       style="opacity:1;vector-effect:none;fill:url(#linearGradient915);fill-opacity:1;fill-rule:nonzero;stroke:none;stroke-width:13.22916698;stroke-linecap:butt;stroke-linejoin:miter;stroke-miterlimit:4;stroke-dasharray:none;stroke-dashoffset:0;stroke-opacity:1"
       d="m -140.08845,395.56988 c 6.61961,3.12645 14.73495,5.14938 23.51962,6.39098 9.76018,1.37948 20.542442,1.82225 31.473452,1.67871 26.24853,-0.34471 55.508489,-4.1017 80.0333402,-8.11027 44.9351918,-7.34463 89.0597918,-18.03313 114.0655078,-24.35851 26.27185,-6.64565 51.31976,-13.56704 68.07467,-18.24887 23.75502,-6.85047 45.69223,-14.29 66.24135,-22.42274 20.99523,-8.30929 41.59044,-17.73671 63.74152,-29.52634 14.01209,-7.45775 27.05412,-14.98105 42.77994,-24.28543 13.81057,-8.17119 33.25914,-19.89961 51.67787,-29.89041 25.8353,-14.01373 62.73357,-32.20156 118.5217,-47.77034 44.10149,-12.30739 107.24255,-25.21033 205.6768,-34.23356 l -2.6171,-25.67846 c -99.57556,11.15826 -163.77208,26.21309 -208.8457,40.53454 -57.07147,18.13359 -94.36329,38.92283 -119.97376,54.6107 -39.5987,24.25646 -65.51868,43.66467 -91.4755,59.16872 -21.24643,12.69053 -41.18483,22.86923 -61.67663,31.79788 -20.11248,8.76339 -41.60955,16.67392 -65.17684,23.91181 -17.65593,5.58268 -40.32097,12.29016 -67.60849,19.47488 -25.044277,6.59409 -68.765418,17.47396 -113.6948983,25.18808 -24.4446707,4.19699 -53.6053137,8.208 -79.7623707,8.88145 -10.893637,0.28048 -21.644531,-0.007 -31.389411,-1.21521 -8.76609,-1.0864 -16.90018,-2.93921 -23.58507,-5.89761 z"
       id="path897"
       inkscape:connector-curvature="0"
       sodipodi:nodetypes="csc"
       inkscape:path-effect="#path-effect899"
       inkscape:original-d="M -140.08845,395.56988 C -89.254723,418.81829 63.227708,384.75577 176.51495,351.03011 398.81025,284.8527 361.94796,188.89514 724.40877,151.95387" />
  </g>
  <g
     inkscape:groupmode="layer"
     id="layer2"
     inkscape:label="Passepartout"
     style="display:inline"
     sodipodi:insensitive="true">
    <path
       style="opacity:1;vector-effect:none;fill:#ffffff;fill-opacity:1;fill-rule:nonzero;stroke:none;stroke-width:16.55434418;stroke-linecap:square;stroke-linejoin:round;stroke-miterlimit:4;stroke-dasharray:none;stroke-dashoffset:0;stroke-opacity:1;paint-order:markers fill stroke"
       d="M -1000,-1000 V 2600 H 3650 V -1000 Z M 0,0 H 2560 V 1600 H 0 Z"
       transform="scale(0.26458334)"
       id="rect1303"
       inkscape:connector-curvature="0" />
  </g>
</svg>
