<?xml version="1.0" encoding="UTF-8" standalone="no"?>
<!-- Created with Inkscape (http://www.inkscape.org/) -->

<svg
   xmlns:dc="http://purl.org/dc/elements/1.1/"
   xmlns:cc="http://creativecommons.org/ns#"
   xmlns:rdf="http://www.w3.org/1999/02/22-rdf-syntax-ns#"
   xmlns:svg="http://www.w3.org/2000/svg"
   xmlns="http://www.w3.org/2000/svg"
   xmlns:xlink="http://www.w3.org/1999/xlink"
   xmlns:sodipodi="http://sodipodi.sourceforge.net/DTD/sodipodi-0.dtd"
   xmlns:inkscape="http://www.inkscape.org/namespaces/inkscape"
   width="1920"
   height="1200"
   id="svg2"
   version="1.1"
   inkscape:version="0.91 r"
   sodipodi:docname="wallpaper-development-5.svg"
   inkscape:export-filename="/home/knome/dev-wall-draft-5.png"
   inkscape:export-xdpi="90"
   inkscape:export-ydpi="90">
  <defs
     id="defs4">
    <linearGradient
       id="linearGradient5495">
      <stop
         id="stop5497"
         offset="0"
         style="stop-color:#fffa70;stop-opacity:1;" />
      <stop
         style="stop-color:#f7ff70;stop-opacity:0.703125;"
         offset="0.25"
         id="stop5499" />
      <stop
         id="stop5501"
         offset="1"
         style="stop-color:#fffb70;stop-opacity:0;" />
    </linearGradient>
    <linearGradient
       id="linearGradient5481">
      <stop
         style="stop-color:#fffa70;stop-opacity:1;"
         offset="0"
         id="stop5483" />
      <stop
         id="stop5489"
         offset="0.25"
         style="stop-color:#f7ff70;stop-opacity:0.703125;" />
      <stop
         style="stop-color:#fffb70;stop-opacity:0;"
         offset="1"
         id="stop5485" />
    </linearGradient>
    <linearGradient
       id="linearGradient5454">
      <stop
         id="stop5456"
         offset="0"
         style="stop-color:#fff124;stop-opacity:0.5625;" />
      <stop
         id="stop5458"
         offset="1"
         style="stop-color:#000000;stop-opacity:0;" />
    </linearGradient>
    <linearGradient
       id="linearGradient5444">
      <stop
         style="stop-color:#ffffff;stop-opacity:0;"
         offset="0"
         id="stop5446" />
      <stop
         style="stop-color:#000000;stop-opacity:0.3359375;"
         offset="1"
         id="stop5448" />
    </linearGradient>
    <linearGradient
       id="linearGradient5436">
      <stop
         id="stop5438"
         offset="0"
         style="stop-color:#00a3d2;stop-opacity:1;" />
      <stop
         id="stop5440"
         offset="1"
         style="stop-color:#004e7c;stop-opacity:1;" />
    </linearGradient>
    <linearGradient
       id="linearGradient4158">
      <stop
         style="stop-color:#000000;stop-opacity:1;"
         offset="0"
         id="stop4160" />
      <stop
         style="stop-color:#ffffff;stop-opacity:1;"
         offset="1"
         id="stop4162" />
    </linearGradient>
    <linearGradient
       id="linearGradient4134">
      <stop
         style="stop-color:#fffb70;stop-opacity:0;"
         offset="0"
         id="stop4136" />
      <stop
         id="stop4142"
         offset="0.25"
         style="stop-color:#fff80c;stop-opacity:0.49803922;" />
      <stop
         style="stop-color:#ff4100;stop-opacity:0.78431374;"
         offset="0.5"
         id="stop4146" />
      <stop
         style="stop-color:#fff80c;stop-opacity:0.49803922;"
         offset="0.75"
         id="stop4144" />
      <stop
         style="stop-color:#fff80c;stop-opacity:0;"
         offset="1"
         id="stop4138" />
    </linearGradient>
    <linearGradient
       id="linearGradient4063">
      <stop
         style="stop-color:#74755d;stop-opacity:1"
         offset="0"
         id="stop4065" />
      <stop
         style="stop-color:#202930;stop-opacity:1"
         offset="1"
         id="stop4067" />
    </linearGradient>
    <linearGradient
       id="linearGradient4053">
      <stop
         style="stop-color:#3f76e0;stop-opacity:1;"
         offset="0"
         id="stop4055" />
      <stop
         id="stop4057"
         offset="0.578053"
         style="stop-color:#fffccf;stop-opacity:1;" />
      <stop
         style="stop-color:#ffc640;stop-opacity:1;"
         offset="1"
         id="stop4059" />
    </linearGradient>
    <linearGradient
       inkscape:collect="always"
       id="linearGradient4766">
      <stop
         style="stop-color:#ffffff;stop-opacity:1;"
         offset="0"
         id="stop4768" />
      <stop
         style="stop-color:#ffffff;stop-opacity:0;"
         offset="1"
         id="stop4770" />
    </linearGradient>
    <linearGradient
       id="linearGradient4551">
      <stop
         id="stop4553"
         offset="0"
         style="stop-color:#e0fafa;stop-opacity:1;" />
      <stop
         style="stop-color:#fffccf;stop-opacity:1;"
         offset="0.578053"
         id="stop4555" />
      <stop
         id="stop4557"
         offset="1"
         style="stop-color:#ffc640;stop-opacity:1;" />
    </linearGradient>
    <linearGradient
       id="linearGradient4541">
      <stop
         style="stop-color:#f79700;stop-opacity:1;"
         offset="0"
         id="stop4543" />
      <stop
         style="stop-color:#0072d3;stop-opacity:1;"
         offset="1"
         id="stop4545" />
    </linearGradient>
    <linearGradient
       id="linearGradient4137">
      <stop
         style="stop-color:#ffffff;stop-opacity:1;"
         offset="0"
         id="stop4139" />
      <stop
         style="stop-color:#ffffff;stop-opacity:0;"
         offset="1"
         id="stop4141" />
    </linearGradient>
    <linearGradient
       id="linearGradient4125">
      <stop
         style="stop-color:#e0fafa;stop-opacity:1;"
         offset="0"
         id="stop4127" />
      <stop
         id="stop4172"
         offset="0.5"
         style="stop-color:#fffccf;stop-opacity:1;" />
      <stop
         style="stop-color:#ffc640;stop-opacity:1;"
         offset="1"
         id="stop4129" />
    </linearGradient>
    <linearGradient
       id="linearGradient5078">
      <stop
         id="stop5080"
         offset="0"
         style="stop-color:#ffef00;stop-opacity:1;" />
      <stop
         style="stop-color:#fd8c6a;stop-opacity:1;"
         offset="1"
         id="stop5082" />
    </linearGradient>
    <linearGradient
       id="linearGradient5030">
      <stop
         style="stop-color:#ffffff;stop-opacity:1;"
         offset="0"
         id="stop5032" />
      <stop
         style="stop-color:#ffffff;stop-opacity:0;"
         offset="1"
         id="stop5034" />
    </linearGradient>
    <linearGradient
       id="linearGradient3760">
      <stop
         style="stop-color:#ffef00;stop-opacity:1;"
         offset="0"
         id="stop3762" />
      <stop
         id="stop5057"
         offset="0.90000004"
         style="stop-color:#f78b00;stop-opacity:1;" />
      <stop
         style="stop-color:#9b3e00;stop-opacity:1;"
         offset="1"
         id="stop5072" />
    </linearGradient>
    <radialGradient
       inkscape:collect="always"
       xlink:href="#linearGradient5030"
       id="radialGradient5099"
       cx="955.71429"
       cy="558.97961"
       fx="955.71429"
       fy="558.97961"
       r="43.469383"
       gradientTransform="matrix(2.6062442,9.8596025e-7,-2.0135795e-6,5.322608,-1535.1095,-2416.2507)"
       gradientUnits="userSpaceOnUse" />
    <radialGradient
       inkscape:collect="always"
       xlink:href="#linearGradient5030"
       id="radialGradient5101"
       cx="963.06122"
       cy="687.55103"
       fx="963.06122"
       fy="687.55103"
       r="22.653061"
       gradientTransform="matrix(3.9204105,0,0,4.1323256,-2812.5341,-2153.6336)"
       gradientUnits="userSpaceOnUse" />
    <radialGradient
       inkscape:collect="always"
       xlink:href="#linearGradient4541"
       id="radialGradient4547"
       cx="530.42487"
       cy="72.289368"
       fx="530.42487"
       fy="72.289368"
       r="600"
       gradientTransform="matrix(1.9350574,0,-4.2678717e-8,0.35791008,-659.05561,697.39221)"
       gradientUnits="userSpaceOnUse" />
    <radialGradient
       inkscape:collect="always"
       xlink:href="#linearGradient4541"
       id="radialGradient4745"
       gradientUnits="userSpaceOnUse"
       gradientTransform="matrix(1.9350574,0,-4.2678717e-8,0.35791008,-659.05561,697.39221)"
       cx="530.42487"
       cy="72.289368"
       fx="530.42487"
       fy="72.289368"
       r="600" />
    <radialGradient
       inkscape:collect="always"
       xlink:href="#linearGradient4541"
       id="radialGradient4754"
       gradientUnits="userSpaceOnUse"
       gradientTransform="matrix(1.9350574,0,-4.2678717e-8,0.35791008,-659.05561,538.92603)"
       cx="530.42487"
       cy="72.289368"
       fx="530.42487"
       fy="72.289368"
       r="600" />
    <radialGradient
       inkscape:collect="always"
       xlink:href="#linearGradient4766"
       id="radialGradient4772"
       cx="932.08636"
       cy="-380.6265"
       fx="932.08636"
       fy="-380.6265"
       r="900"
       gradientTransform="matrix(0.97553025,-1.0092102e-8,0,0.18538702,31.129727,545.55145)"
       gradientUnits="userSpaceOnUse" />
    <radialGradient
       inkscape:collect="always"
       xlink:href="#linearGradient4063"
       id="radialGradient4069"
       cx="960"
       cy="600"
       fx="960"
       fy="600"
       r="960"
       gradientTransform="matrix(1.6855052,0,0,1.0534408,-658.085,-32.06446)"
       gradientUnits="userSpaceOnUse" />
    <linearGradient
       inkscape:collect="always"
       xlink:href="#linearGradient4134"
       id="linearGradient4140"
       x1="73.469391"
       y1="1016.3265"
       x2="1915.1021"
       y2="1016.3265"
       gradientUnits="userSpaceOnUse"
       gradientTransform="matrix(1.0425532,0,0,0.60049021,-1996.5957,564.70589)" />
    <linearGradient
       inkscape:collect="always"
       xlink:href="#linearGradient4158"
       id="linearGradient4176"
       gradientUnits="userSpaceOnUse"
       gradientTransform="matrix(0.02604167,0,0,38.4,1200,-44160)"
       x1="-1920"
       y1="1175"
       x2="0"
       y2="1175" />
    <mask
       maskUnits="userSpaceOnUse"
       id="mask4172">
      <rect
         transform="matrix(0,1,-1,0,0,0)"
         y="0"
         x="1150"
         height="1920"
         width="50"
         id="rect4174"
         style="fill:url(#linearGradient4176);fill-opacity:1;stroke:none" />
    </mask>
    <radialGradient
       inkscape:collect="always"
       xlink:href="#linearGradient5444"
       id="radialGradient5450"
       cx="960"
       cy="600"
       fx="960"
       fy="600"
       r="960"
       gradientTransform="matrix(1.5114463,0.40499081,-0.25311925,0.94465392,-339.11687,-355.58353)"
       gradientUnits="userSpaceOnUse" />
    <radialGradient
       inkscape:collect="always"
       xlink:href="#linearGradient5454"
       id="radialGradient5460"
       gradientUnits="userSpaceOnUse"
       gradientTransform="matrix(1.0630703,-0.28484884,0.17803054,0.66441895,-167.36583,474.80352)"
       cx="960"
       cy="600"
       fx="960"
       fy="600"
       r="960" />
    <linearGradient
       inkscape:collect="always"
       xlink:href="#linearGradient5078"
       id="linearGradient8721"
       x1="960"
       y1="954.12335"
       x2="960"
       y2="1047.1846"
       gradientUnits="userSpaceOnUse" />
  </defs>
  <sodipodi:namedview
     id="base"
     pagecolor="#ffffff"
     bordercolor="#666666"
     borderopacity="1.0"
     inkscape:pageopacity="0.0"
     inkscape:pageshadow="2"
     inkscape:zoom="0.20416667"
     inkscape:cx="2157.2499"
     inkscape:cy="-342.2705"
     inkscape:document-units="px"
     inkscape:current-layer="layer4"
     showgrid="false"
     inkscape:window-width="1503"
     inkscape:window-height="1052"
     inkscape:window-x="1920"
     inkscape:window-y="0"
     inkscape:window-maximized="0" />
  <metadata
     id="metadata7">
    <rdf:RDF>
      <cc:Work
         rdf:about="">
        <dc:format>image/svg+xml</dc:format>
        <dc:type
           rdf:resource="http://purl.org/dc/dcmitype/StillImage" />
        <dc:title></dc:title>
      </cc:Work>
    </rdf:RDF>
  </metadata>
  <g
     inkscape:groupmode="layer"
     id="layer4"
     inkscape:label="Background"
     style="display:inline">
    <rect
       y="0"
       x="0"
       height="1200"
       width="1920"
       id="rect4051"
       style="fill:url(#radialGradient4069);fill-opacity:1;stroke:none" />
    <rect
       style="fill:url(#radialGradient5450);fill-opacity:1;stroke:none"
       id="rect5434"
       width="1920"
       height="1200"
       x="0"
       y="0" />
  </g>
  <g
     inkscape:groupmode="layer"
     id="layer2"
     inkscape:label="Dots"
     style="display:inline">
    <path
       style="opacity:1;fill:url(#linearGradient8721);fill-opacity:1;stroke:none"
       d="m 560,985.59375 a 5.0847459,5.0847459 0 0 0 -5.08398,5.08398 5.0847459,5.0847459 0 0 0 5.08398,5.08594 5.0847459,5.0847459 0 0 0 5.08398,-5.08594 A 5.0847459,5.0847459 0 0 0 560,985.59375 Z m 189.83008,0 a 5.0847459,5.0847459 0 0 0 -5.08399,5.08398 5.0847459,5.0847459 0 0 0 5.08399,5.08594 5.0847459,5.0847459 0 0 0 5.08594,-5.08594 5.0847459,5.0847459 0 0 0 -5.08594,-5.08398 z m 216.94922,0 a 5.0847459,5.0847459 0 0 0 -5.08399,5.08398 5.0847459,5.0847459 0 0 0 5.08399,5.08594 5.0847459,5.0847459 0 0 0 5.08593,-5.08594 5.0847459,5.0847459 0 0 0 -5.08593,-5.08398 z m 257.6269,0 a 5.0847459,5.0847459 0 0 0 -5.0839,5.08398 5.0847459,5.0847459 0 0 0 5.0839,5.08594 5.0847459,5.0847459 0 0 0 5.086,-5.08594 5.0847459,5.0847459 0 0 0 -5.086,-5.08398 z m 230.5098,0 a 5.0847459,5.0847459 0 0 0 -5.0859,5.08398 5.0847459,5.0847459 0 0 0 5.0859,5.08594 5.0847459,5.0847459 0 0 0 5.084,-5.08594 5.0847459,5.0847459 0 0 0 -5.084,-5.08398 z M 465.08398,999.15234 A 5.0847459,5.0847459 0 0 0 460,1004.2383 a 5.0847459,5.0847459 0 0 0 5.08398,5.084 5.0847459,5.0847459 0 0 0 5.08594,-5.084 5.0847459,5.0847459 0 0 0 -5.08594,-5.08596 z m 881.35742,0 a 5.0847459,5.0847459 0 0 0 -5.0859,5.08596 5.0847459,5.0847459 0 0 0 5.0859,5.084 5.0847459,5.0847459 0 0 0 5.084,-5.084 5.0847459,5.0847459 0 0 0 -5.084,-5.08596 z m -189.832,13.55856 a 5.0847459,5.0847459 0 0 0 -5.084,5.086 5.0847459,5.0847459 0 0 0 5.084,5.084 5.0847459,5.0847459 0 0 0 5.0859,-5.084 5.0847459,5.0847459 0 0 0 -5.0859,-5.086 z m -447.45706,13.5606 a 5.0847459,5.0847459 0 0 0 -5.08398,5.084 5.0847459,5.0847459 0 0 0 5.08398,5.0859 5.0847459,5.0847459 0 0 0 5.08399,-5.0859 5.0847459,5.0847459 0 0 0 -5.08399,-5.084 z m 162.71289,0 a 5.0847459,5.0847459 0 0 0 -5.08593,5.084 5.0847459,5.0847459 0 0 0 5.08593,5.0859 5.0847459,5.0847459 0 0 0 5.08399,-5.0859 5.0847459,5.0847459 0 0 0 -5.08399,-5.084 z m 203.38867,13.5586 a 5.0847459,5.0847459 0 0 0 -5.084,5.0859 5.0847459,5.0847459 0 0 0 5.084,5.084 5.0847459,5.0847459 0 0 0 5.0859,-5.084 5.0847459,5.0847459 0 0 0 -5.0859,-5.0859 z"
       id="path4200"
       inkscape:connector-curvature="0" />
  </g>
  <g
     transform="translate(0,147.63782)"
     id="g5074"
     inkscape:groupmode="layer"
     inkscape:label="Mouse components"
     style="display:inline;opacity:1"
     sodipodi:insensitive="true">
    <rect
       style="opacity:0.2;fill:url(#radialGradient4772);fill-opacity:1;stroke:none"
       id="rect4756"
       width="1800"
       height="500"
       x="60"
       y="491.927" />
    <path
       style="opacity:0.75;fill:#ffffff;fill-opacity:1;stroke:none"
       d="m 670.88806,355.74785 113.52116,246.00178 218.69758,-0.47386 z"
       id="path4716"
       inkscape:connector-curvature="0"
       sodipodi:nodetypes="cccc"
       inkscape:transform-center-x="106.70022"
       inkscape:transform-center-y="-78.705145" />
    <path
       style="opacity:0.75;fill:#ffffff;fill-opacity:1;stroke:none"
       d="M 741.22976,423.04685 367,567.97691 639.25354,571.0808 Z"
       id="path4718"
       inkscape:connector-curvature="0"
       sodipodi:nodetypes="cccc" />
    <path
       style="opacity:0.75;fill:#ffffff;fill-opacity:1;stroke:none"
       d="m 1543,561.22726 -167.68,-18.73601 -6.1001,41.40415 z"
       id="path4720"
       inkscape:connector-curvature="0" />
    <path
       style="opacity:0.75;fill:#ffffff;fill-opacity:1;stroke:none"
       d="m 1430.1625,609.71285 -171.5466,-28.38082 -2.9775,38.48399 z"
       id="path4722"
       inkscape:connector-curvature="0" />
    <path
       style="opacity:0.75;fill:#ffffff;fill-opacity:1;stroke:none"
       d="M 1235.2839,545.7483 976.33689,545.22739 1235.7909,278.90834 Z"
       id="path4726"
       inkscape:connector-curvature="0"
       sodipodi:nodetypes="cccc" />
  </g>
</svg>
