<?xml version="1.0" encoding="UTF-8" standalone="no"?>
<!-- Created with Inkscape (http://www.inkscape.org/) -->

<svg
   xmlns:dc="http://purl.org/dc/elements/1.1/"
   xmlns:cc="http://creativecommons.org/ns#"
   xmlns:rdf="http://www.w3.org/1999/02/22-rdf-syntax-ns#"
   xmlns:svg="http://www.w3.org/2000/svg"
   xmlns="http://www.w3.org/2000/svg"
   xmlns:sodipodi="http://sodipodi.sourceforge.net/DTD/sodipodi-0.dtd"
   xmlns:inkscape="http://www.inkscape.org/namespaces/inkscape"
   width="64"
   height="64"
   id="svg3681"
   version="1.1"
   inkscape:version="0.48.2 r9819"
   sodipodi:docname="logo-icon-large.svg">
  <defs
     id="defs3683" />
  <sodipodi:namedview
     id="base"
     pagecolor="#ffffff"
     bordercolor="#666666"
     borderopacity="1.0"
     inkscape:pageopacity="0.0"
     inkscape:pageshadow="2"
     inkscape:zoom="0.35"
     inkscape:cx="505.9735"
     inkscape:cy="363.95694"
     inkscape:document-units="px"
     inkscape:current-layer="layer1"
     showgrid="false"
     fit-margin-top="0"
     fit-margin-left="0"
     fit-margin-right="0"
     fit-margin-bottom="0"
     inkscape:window-width="932"
     inkscape:window-height="787"
     inkscape:window-x="2049"
     inkscape:window-y="187"
     inkscape:window-maximized="0" />
  <metadata
     id="metadata3686">
    <rdf:RDF>
      <cc:Work
         rdf:about="">
        <dc:format>image/svg+xml</dc:format>
        <dc:type
           rdf:resource="http://purl.org/dc/dcmitype/StillImage" />
        <dc:title></dc:title>
      </cc:Work>
    </rdf:RDF>
  </metadata>
  <g
     inkscape:label="Layer 1"
     inkscape:groupmode="layer"
     id="layer1"
     transform="translate(-501.31203,-494.03164)">
    <path
       style="fill:#ffffff;fill-opacity:1;stroke:none"
       d="M 32 0 C 14.326888 0 0 14.326888 0 32 C 0 49.673112 14.326888 64 32 64 C 49.673112 64 64 49.673112 64 32 C 64 14.326888 49.673112 0 32 0 z M 42.46875 12 C 42.49335 11.99902 42.49015 12.005 42.53125 12 A 0.7971544 0.7971544 0 0 0 42.5625 12 C 42.6737 11.994 42.6568 11.9784 42.6875 12 C 42.71823 12.02154 42.81702 12.10488 42.9375 12.25 C 43.119 12.46912 43.1549 12.61748 43.1875 12.8125 C 43.44273 16.73559 42.76984 20.74344 41.8125 24.5625 A 0.7971544 0.7971544 0 0 0 41.78125 24.59375 A 0.7971544 0.7971544 0 0 0 41.71875 24.75 A 0.7971544 0.7971544 0 0 0 41.71875 24.8125 A 0.7971544 0.7971544 0 0 0 41.625 24.96875 C 41.55392 25.41272 41.42953 25.73777 41.1875 25.90625 C 40.96383 26.06217 40.84575 26.0753 40.78125 26.0625 C 40.69105 26.04394 40.55446 25.91093 40.4375 25.75 C 40.4281 25.7372 40.385 25.7644 40.375 25.75 C 40.367 25.738 40.383 25.73155 40.375 25.71875 C 40.37 25.70275 40.38 25.67245 40.375 25.65625 A 0.7971544 0.7971544 0 0 0 40.3125 25.5 C 39.76411 23.27371 40.54563 20.90765 40.78125 18.59375 C 40.78925 18.56235 40.77325 18.5315 40.78125 18.5 A 0.7971544 0.7971544 0 0 0 40.78125 18.46875 C 41.26665 16.31337 41.2884 13.89279 42.375 12.0625 C 42.34524 12.1108 42.35691 12.0646 42.46875 12 z M 51.28125 13.875 C 51.30685 13.8622 51.3489 13.8862 51.375 13.875 C 51.53521 13.85506 51.8454 14.064 51.875 14.125 C 51.97566 14.33111 51.95687 14.41369 51.84375 14.6875 A 0.74690181 0.74690181 0 0 0 51.84375 14.71875 C 50.20841 18.88892 48.22735 23.16248 45.59375 26.78125 A 0.74690181 0.74690181 0 0 0 45.59375 26.84375 A 0.74690181 0.74690181 0 0 0 45.59375 26.875 A 0.74690181 0.74690181 0 0 0 45.53125 26.9375 C 45.3404 27.2425 44.86028 27.40135 44.59375 27.34375 C 44.32234 27.28492 44.05335 27.04167 44.03125 26.59375 C 44.03225 26.57715 44.03025 26.54805 44.03125 26.53125 C 44.23328 23.56306 46.08215 21.00567 47.53125 18.4375 A 0.74690181 0.74690181 0 0 0 47.59375 18.34375 A 0.74690181 0.74690181 0 0 0 47.625 18.1875 C 48.76803 16.61609 49.62308 14.68084 51.28125 13.875 z M 25.875 15.03125 C 26.009947 15.033787 26.15616 15.04795 26.28125 15.0625 C 27.11264 15.12058 27.79749 15.49378 28.28125 16.0625 C 29.09519 17.01844 29.46856 18.45822 29.71875 19.9375 C 29.96635 21.41065 30.06175 22.9907 30.09375 24.1875 L 30.09375 25.625 C 30.09348 25.6599 30.09375 25.69265 30.09375 25.71875 C 30.09375 25.78563 30.06175 25.8794 30.09375 25.9375 C 30.12879 25.9986 30.22315 25.99635 30.28125 26.03125 C 30.32785 26.06015 30.3259 26.0565 30.375 26.0625 C 30.4662 26.0916 30.55005 26.1585 30.71875 26.1875 C 31.28891 26.2923 32.21707 26.31755 33.1875 26.46875 C 35.12894 26.77072 37.66403 27.34296 40.28125 28.03125 C 42.8996 28.71983 45.51919 29.66368 47.625 31.03125 C 49.72294 32.39386 51.29918 34.15773 51.625 36.53125 C 51.83095 38.00355 50.72286 39.46327 49.1875 40.8125 C 47.65476 42.1597 45.6304 43.4375 43.46875 44.625 C 41.30797 45.81161 39.07141 46.88006 37.28125 47.71875 C 36.38613 48.13824 35.57643 48.42755 34.96875 48.71875 C 31.87568 49.96645 28.39598 51.07215 24.71875 51.8125 C 24.57331 51.8125 24.24799 51.9263 24.09375 51.9375 C 5.36905 53.56019 14.09375 30.375 14.09375 30.375 C 14.09481 30.375 14.52966 29.27985 14.71875 28.625 C 14.75655 28.47668 14.84375 28.0903 14.84375 27.9375 C 14.81767 27.78326 14.7034 27.49556 14.625 27.1875 C 14.44202 26.45673 14.15201 25.54801 13.96875 24.46875 C 13.78845 23.38713 13.6902 22.14004 13.9375 21.0625 C 14.1836 20.00125 14.81755 18.99638 15.9375 18.375 C 16.37091 18.159 16.86207 18.0827 17.28125 18.1875 C 17.71554 18.29502 18.16618 18.61664 18.53125 18.9375 C 19.26168 19.57984 19.90877 20.50493 20.46875 21.53125 C 21.02669 22.55351 21.5474 23.6437 21.9375 24.53125 C 22.13297 24.97693 22.23244 25.32186 22.375 25.625 C 22.43902 25.75876 22.49065 25.95555 22.53125 26.03125 C 22.54 26.04945 22.529609 26.052581 22.53125 26.0625 C 22.56917 26.1236 22.66065 26.1526 22.71875 26.1875 C 22.68083 26.15838 22.84363 26.25225 22.96875 26.28125 C 23.1523 26.32785 23.29113 26.3862 23.46875 26.375 C 23.55891 26.375 23.64625 26.33665 23.71875 26.28125 C 23.75075 26.28125 23.68675 26.2049 23.71875 26.1875 C 23.77695 26.11758 23.84375 26.11845 23.84375 26.03125 L 23.84375 25.8125 C 23.76839 25.54778 23.59332 25.17238 23.375 24.375 C 23.12103 23.45338 22.88165 22.23282 22.71875 21.0625 C 22.55582 19.88984 22.47437 18.74886 22.71875 17.71875 C 22.95875 16.71192 23.52594 15.85014 24.53125 15.46875 C 24.81549 15.35819 25.20113 15.1123 25.46875 15.0625 C 25.60387 15.0378 25.740053 15.028713 25.875 15.03125 z "
       transform="translate(501.31203,494.03164)"
       id="path3354" />
    <g
       id="g3368"
       transform="matrix(1.6,0,0,1.6,-25.562994,-102.61109)" />
  </g>
</svg>
